<?xml version="1.0" encoding='UTF-8' standalone='no' ?>
<!DOCTYPE score-partwise PUBLIC "-//Recordare//DTD MusicXML 3.0 Partwise//EN" "http://www.musicxml.org/dtds/partwise.dtd">
<score-partwise version="3.0">
 <work>
  <work-title>Caspar Johannes Walter</work-title>
 </work>
 <identification>
  <rights>Copyright © </rights>
  <encoding>
   <encoding-date>2020-01-15</encoding-date>
   <encoder>Johannes Keller</encoder>
   <software>Sibelius 7.1.3</software>
   <software>Direct export, not from Dolet</software>
   <encoding-description>Sibelius / MusicXML 3.0</encoding-description>
   <supports element="print" type="yes" value="yes" attribute="new-system" />
   <supports element="print" type="yes" value="yes" attribute="new-page" />
   <supports element="accidental" type="yes" />
   <supports element="beam" type="yes" />
   <supports element="stem" type="yes" />
  </encoding>
 </identification>
 <defaults>
  <scaling>
   <millimeters>210</millimeters>
   <tenths>1400</tenths>
  </scaling>
  <page-layout>
   <page-height>1980</page-height>
   <page-width>1400</page-width>
   <page-margins type="both">
    <left-margin>84</left-margin>
    <right-margin>84</right-margin>
    <top-margin>84</top-margin>
    <bottom-margin>84</bottom-margin>
   </page-margins>
  </page-layout>
  <system-layout>
   <system-margins>
    <left-margin>71</left-margin>
    <right-margin>0</right-margin>
   </system-margins>
   <system-distance>160</system-distance>
  </system-layout>
  <appearance>
   <line-width type="stem">0.9375</line-width>
   <line-width type="beam">5</line-width>
   <line-width type="staff">0.9375</line-width>
   <line-width type="light barline">1.5625</line-width>
   <line-width type="heavy barline">5</line-width>
   <line-width type="leger">1.5625</line-width>
   <line-width type="ending">1.5625</line-width>
   <line-width type="wedge">1.25</line-width>
   <line-width type="enclosure">0.9375</line-width>
   <line-width type="tuplet bracket">1.25</line-width>
   <line-width type="bracket">5</line-width>
   <line-width type="dashes">1.5625</line-width>
   <line-width type="extend">0.9375</line-width>
   <line-width type="octave shift">1.5625</line-width>
   <line-width type="pedal">1.5625</line-width>
   <line-width type="slur middle">1.5625</line-width>
   <line-width type="slur tip">0.625</line-width>
   <line-width type="tie middle">1.5625</line-width>
   <line-width type="tie tip">0.625</line-width>
   <note-size type="cue">75</note-size>
   <note-size type="grace">60</note-size>
  </appearance>
  <music-font font-family="Opus Std" font-size="17.0079" />
  <lyric-font font-family="Times New Roman" font-size="9.8327" />
  <lyric-language xml:lang="en" />
 </defaults>
 <credit page="1">
  <credit-words default-x="700" default-y="265" font-family="Times New Roman" font-style="normal" font-size="18.8681" font-weight="normal" justify="center" valign="middle">Caspar Johannes Walter</credit-words>
 </credit>
 <part-list>
  <part-group type="start" number="1">
   <group-symbol>brace</group-symbol>
  </part-group>
  <score-part id="P1">
   <part-name>Klavier</part-name>
   <part-name-display>
    <display-text>Klavier</display-text>
   </part-name-display>
   <part-abbreviation>Klav.</part-abbreviation>
   <part-abbreviation-display>
    <display-text>Klav.</display-text>
   </part-abbreviation-display>
   <score-instrument id="P1-I1">
    <instrument-name>Piano (2)</instrument-name>
    <instrument-sound>keyboard.piano.grand</instrument-sound>
    <solo />
    <virtual-instrument>
     <virtual-library>General MIDI</virtual-library>
     <virtual-name>Acoustic Piano</virtual-name>
    </virtual-instrument>
   </score-instrument>
  </score-part>
  <part-group type="stop" number="1" />
 </part-list>
 <part id="P1">
  <!--============== Part: P1, Measure: 1 ==============-->
  <measure number="1" width="251">
   <print new-page="yes">
    <system-layout>
     <system-margins>
      <left-margin>22</left-margin>
      <right-margin>0</right-margin>
     </system-margins>
     <top-system-distance>254</top-system-distance>
    </system-layout>
    <staff-layout number="2">
     <staff-distance>80</staff-distance>
    </staff-layout>
   </print>
   <attributes>
    <divisions>256</divisions>
    <key color="#000000">
     <fifths>0</fifths>
     <mode>none</mode>
    </key>
    <time color="#000000">
     <beats>4</beats>
     <beat-type>4</beat-type>
    </time>
    <staves>2</staves>
    <clef number="1" color="#000000">
     <sign>G</sign>
     <line>2</line>
    </clef>
    <clef number="2" color="#000000">
     <sign>G</sign>
     <line>2</line>
    </clef>
    <staff-details number="1" print-object="yes" />
    <staff-details number="2" print-object="yes" />
   </attributes>
   <direction>
    <direction-type>
     <words default-x="29" default-y="150" justify="left" valign="middle" font-family="Times New Roman" font-style="normal" font-size="18.8681" font-weight="normal">XVI - Erzwungenes Accelerando</words>
    </direction-type>
    <voice>1</voice>
    <staff>1</staff>
   </direction>
   <direction>
    <direction-type>
     <words default-x="32" default-y="108" justify="left" valign="middle" font-family="Times New Roman" font-style="normal" font-size="10.2313" font-weight="normal">Bauprinzip: Differenztöne zwischen Halteton und gleichmäßig aufsteigender Linie</words>
    </direction-type>
    <voice>1</voice>
    <staff>1</staff>
   </direction>
   <direction>
    <direction-type>
     <metronome default-y="47" color="#000000" font-family="Opus Text Std" font-style="normal" font-size="10.2313" font-weight="normal">
      <beat-unit>quarter</beat-unit>
      <per-minute>150</per-minute>
     </metronome>
    </direction-type>
    <voice>1</voice>
    <staff>1</staff>
   </direction>
   <note color="#000000" default-x="78">
    <pitch>
     <step>C</step>
     <octave>6</octave>
    </pitch>
    <duration>1024</duration>
    <instrument id="P1-I1" />
    <voice>1</voice>
    <type>whole</type>
    <accidental>natural</accidental>
    <staff>1</staff>
   </note>
   <backup>
    <duration>1024</duration>
   </backup>
   <note color="#000000" default-x="78" default-y="-62">
    <pitch>
     <step>F</step>
     <octave>4</octave>
    </pitch>
    <duration>256</duration>
    <instrument id="P1-I1" />
    <voice>2</voice>
    <type>quarter</type>
    <accidental>natural</accidental>
    <stem>down</stem>
    <staff>1</staff>
   </note>
   <note color="#000000" default-x="124" default-y="-60">
    <pitch>
     <step>G</step>
     <alter>-2</alter>
     <octave>4</octave>
    </pitch>
    <duration>256</duration>
    <instrument id="P1-I1" />
    <voice>2</voice>
    <type>quarter</type>
    <accidental>flat-flat</accidental>
    <stem>down</stem>
    <staff>1</staff>
   </note>
   <note color="#000000" default-x="166" default-y="-62">
    <pitch>
     <step>F</step>
     <alter>1</alter>
     <octave>4</octave>
    </pitch>
    <duration>256</duration>
    <instrument id="P1-I1" />
    <voice>2</voice>
    <type>quarter</type>
    <accidental>sharp</accidental>
    <stem>down</stem>
    <staff>1</staff>
   </note>
   <note color="#000000" default-x="209" default-y="-60">
    <pitch>
     <step>G</step>
     <alter>-1</alter>
     <octave>4</octave>
    </pitch>
    <duration>256</duration>
    <instrument id="P1-I1" />
    <voice>2</voice>
    <type>quarter</type>
    <accidental>flat</accidental>
    <stem>down</stem>
    <staff>1</staff>
   </note>
   <backup>
    <duration>1024</duration>
   </backup>
   <note color="#000000" default-x="78" default-y="-35">
    <pitch>
     <step>F</step>
     <octave>5</octave>
    </pitch>
    <duration>768</duration>
    <instrument id="P1-I1" />
    <voice>3</voice>
    <type>half</type>
    <dot />
    <accidental>natural</accidental>
    <stem>down</stem>
    <staff>2</staff>
   </note>
   <note color="#000000" default-x="209" default-y="-35">
    <pitch>
     <step>F</step>
     <alter>-1</alter>
     <octave>5</octave>
    </pitch>
    <duration>256</duration>
    <instrument id="P1-I1" />
    <voice>3</voice>
    <type>quarter</type>
    <accidental>flat</accidental>
    <stem>down</stem>
    <staff>2</staff>
   </note>
  </measure>
  <!--============== Part: P1, Measure: 2 ==============-->
  <measure number="2" width="195">
   <attributes />
   <note color="#000000" default-x="16">
    <pitch>
     <step>C</step>
     <octave>6</octave>
    </pitch>
    <duration>1024</duration>
    <instrument id="P1-I1" />
    <voice>1</voice>
    <type>whole</type>
    <accidental>natural</accidental>
    <staff>1</staff>
   </note>
   <backup>
    <duration>1024</duration>
   </backup>
   <note color="#000000" default-x="16" default-y="-62">
    <pitch>
     <step>F</step>
     <alter>2</alter>
     <octave>4</octave>
    </pitch>
    <duration>256</duration>
    <instrument id="P1-I1" />
    <voice>2</voice>
    <type>quarter</type>
    <accidental>double-sharp</accidental>
    <stem>down</stem>
    <staff>1</staff>
   </note>
   <note color="#000000" default-x="59" default-y="-60">
    <pitch>
     <step>G</step>
     <octave>4</octave>
    </pitch>
    <duration>256</duration>
    <instrument id="P1-I1" />
    <voice>2</voice>
    <type>quarter</type>
    <accidental>natural</accidental>
    <stem>down</stem>
    <staff>1</staff>
   </note>
   <note color="#000000" default-x="101" default-y="-57">
    <pitch>
     <step>A</step>
     <alter>-2</alter>
     <octave>4</octave>
    </pitch>
    <duration>256</duration>
    <instrument id="P1-I1" />
    <voice>2</voice>
    <type>quarter</type>
    <accidental>flat-flat</accidental>
    <stem>down</stem>
    <staff>1</staff>
   </note>
   <note color="#000000" default-x="153" default-y="-60">
    <pitch>
     <step>G</step>
     <alter>1</alter>
     <octave>4</octave>
    </pitch>
    <duration>256</duration>
    <instrument id="P1-I1" />
    <voice>2</voice>
    <type>quarter</type>
    <accidental>sharp</accidental>
    <stem>down</stem>
    <staff>1</staff>
   </note>
   <backup>
    <duration>1024</duration>
   </backup>
   <note color="#000000" default-x="16" default-y="-35">
    <pitch>
     <step>F</step>
     <alter>-1</alter>
     <octave>5</octave>
    </pitch>
    <duration>256</duration>
    <instrument id="P1-I1" />
    <voice>3</voice>
    <type>quarter</type>
    <accidental>flat</accidental>
    <stem>down</stem>
    <staff>2</staff>
   </note>
   <note color="#000000" default-x="59" default-y="-40">
    <pitch>
     <step>E</step>
     <octave>5</octave>
    </pitch>
    <duration>384</duration>
    <instrument id="P1-I1" />
    <voice>3</voice>
    <type>quarter</type>
    <dot />
    <accidental>natural</accidental>
    <stem>down</stem>
    <staff>2</staff>
   </note>
   <note color="#000000" default-x="122" default-y="-45">
    <pitch>
     <step>D</step>
     <alter>2</alter>
     <octave>5</octave>
    </pitch>
    <duration>384</duration>
    <instrument id="P1-I1" />
    <voice>3</voice>
    <type>quarter</type>
    <dot />
    <accidental>double-sharp</accidental>
    <stem>down</stem>
    <staff>2</staff>
   </note>
  </measure>
  <!--============== Part: P1, Measure: 3 ==============-->
  <measure number="3" width="185">
   <attributes />
   <note color="#000000" default-x="16">
    <pitch>
     <step>C</step>
     <octave>6</octave>
    </pitch>
    <duration>1024</duration>
    <instrument id="P1-I1" />
    <voice>1</voice>
    <type>whole</type>
    <accidental>natural</accidental>
    <staff>1</staff>
   </note>
   <backup>
    <duration>1024</duration>
   </backup>
   <note color="#000000" default-x="16" default-y="-57">
    <pitch>
     <step>A</step>
     <alter>-1</alter>
     <octave>4</octave>
    </pitch>
    <duration>256</duration>
    <instrument id="P1-I1" />
    <voice>2</voice>
    <type>quarter</type>
    <accidental>flat</accidental>
    <stem>down</stem>
    <staff>1</staff>
   </note>
   <note color="#000000" default-x="59" default-y="-60">
    <pitch>
     <step>G</step>
     <alter>2</alter>
     <octave>4</octave>
    </pitch>
    <duration>256</duration>
    <instrument id="P1-I1" />
    <voice>2</voice>
    <type>quarter</type>
    <accidental>double-sharp</accidental>
    <stem>down</stem>
    <staff>1</staff>
   </note>
   <note color="#000000" default-x="101" default-y="-57">
    <pitch>
     <step>A</step>
     <octave>4</octave>
    </pitch>
    <duration>256</duration>
    <instrument id="P1-I1" />
    <voice>2</voice>
    <type>quarter</type>
    <accidental>natural</accidental>
    <stem>down</stem>
    <staff>1</staff>
   </note>
   <note color="#000000" default-x="143" default-y="-55">
    <pitch>
     <step>B</step>
     <alter>-2</alter>
     <octave>4</octave>
    </pitch>
    <duration>256</duration>
    <instrument id="P1-I1" />
    <voice>2</voice>
    <type>quarter</type>
    <accidental>flat-flat</accidental>
    <stem>down</stem>
    <staff>1</staff>
   </note>
   <backup>
    <duration>1024</duration>
   </backup>
   <note color="#000000" default-x="16" default-y="-40">
    <pitch>
     <step>E</step>
     <alter>-1</alter>
     <octave>5</octave>
    </pitch>
    <duration>341</duration>
    <instrument id="P1-I1" />
    <voice>3</voice>
    <type>half</type>
    <accidental>flat</accidental>
    <time-modification>
     <actual-notes>3</actual-notes>
     <normal-notes>2</normal-notes>
     <normal-type>half</normal-type>
    </time-modification>
    <stem>down</stem>
    <staff>2</staff>
    <notations>
     <tuplet type="start" bracket="yes" number="1" default-y="-52" placement="below" />
    </notations>
   </note>
   <note color="#000000" default-x="73" default-y="-45">
    <pitch>
     <step>D</step>
     <alter>1</alter>
     <octave>5</octave>
    </pitch>
    <duration>341</duration>
    <instrument id="P1-I1" />
    <voice>3</voice>
    <type>half</type>
    <accidental>sharp</accidental>
    <time-modification>
     <actual-notes>3</actual-notes>
     <normal-notes>2</normal-notes>
     <normal-type>half</normal-type>
    </time-modification>
    <stem>down</stem>
    <staff>2</staff>
   </note>
   <note color="#000000" default-x="129" default-y="-40">
    <pitch>
     <step>E</step>
     <alter>-2</alter>
     <octave>5</octave>
    </pitch>
    <duration>342</duration>
    <instrument id="P1-I1" />
    <voice>3</voice>
    <type>half</type>
    <accidental>flat-flat</accidental>
    <time-modification>
     <actual-notes>3</actual-notes>
     <normal-notes>2</normal-notes>
     <normal-type>half</normal-type>
    </time-modification>
    <stem>down</stem>
    <staff>2</staff>
    <notations>
     <tuplet type="stop" bracket="yes" number="1" default-y="-52" placement="below" />
    </notations>
   </note>
  </measure>
  <!--============== Part: P1, Measure: 4 ==============-->
  <measure number="4" width="186">
   <attributes />
   <note color="#000000" default-x="16">
    <pitch>
     <step>C</step>
     <octave>6</octave>
    </pitch>
    <duration>1024</duration>
    <instrument id="P1-I1" />
    <voice>1</voice>
    <type>whole</type>
    <accidental>natural</accidental>
    <staff>1</staff>
   </note>
   <backup>
    <duration>1024</duration>
   </backup>
   <note color="#000000" default-x="16" default-y="-57">
    <pitch>
     <step>A</step>
     <alter>1</alter>
     <octave>4</octave>
    </pitch>
    <duration>256</duration>
    <instrument id="P1-I1" />
    <voice>2</voice>
    <type>quarter</type>
    <accidental>sharp</accidental>
    <stem>down</stem>
    <staff>1</staff>
   </note>
   <note color="#000000" default-x="59" default-y="-55">
    <pitch>
     <step>B</step>
     <alter>-1</alter>
     <octave>4</octave>
    </pitch>
    <duration>256</duration>
    <instrument id="P1-I1" />
    <voice>2</voice>
    <type>quarter</type>
    <accidental>flat</accidental>
    <stem>down</stem>
    <staff>1</staff>
   </note>
   <note color="#000000" default-x="101" default-y="-57">
    <pitch>
     <step>A</step>
     <alter>2</alter>
     <octave>4</octave>
    </pitch>
    <duration>256</duration>
    <instrument id="P1-I1" />
    <voice>2</voice>
    <type>quarter</type>
    <accidental>double-sharp</accidental>
    <stem>down</stem>
    <staff>1</staff>
   </note>
   <note color="#000000" default-x="143" default-y="-55">
    <pitch>
     <step>B</step>
     <octave>4</octave>
    </pitch>
    <duration>256</duration>
    <instrument id="P1-I1" />
    <voice>2</voice>
    <type>quarter</type>
    <accidental>natural</accidental>
    <stem>down</stem>
    <staff>1</staff>
   </note>
   <backup>
    <duration>1024</duration>
   </backup>
   <note color="#000000" default-x="16" default-y="-45">
    <pitch>
     <step>D</step>
     <octave>5</octave>
    </pitch>
    <duration>341</duration>
    <instrument id="P1-I1" />
    <voice>3</voice>
    <type>half</type>
    <accidental>natural</accidental>
    <time-modification>
     <actual-notes>3</actual-notes>
     <normal-notes>2</normal-notes>
     <normal-type>half</normal-type>
    </time-modification>
    <stem>down</stem>
    <staff>2</staff>
    <notations>
     <tuplet type="start" bracket="yes" number="1" default-y="-57" placement="below" />
    </notations>
   </note>
   <note color="#000000" default-x="73" default-y="-50">
    <pitch>
     <step>C</step>
     <alter>2</alter>
     <octave>5</octave>
    </pitch>
    <duration>341</duration>
    <instrument id="P1-I1" />
    <voice>3</voice>
    <type>half</type>
    <accidental>double-sharp</accidental>
    <time-modification>
     <actual-notes>3</actual-notes>
     <normal-notes>2</normal-notes>
     <normal-type>half</normal-type>
    </time-modification>
    <stem>down</stem>
    <staff>2</staff>
   </note>
   <note color="#000000" default-x="129" default-y="-45">
    <pitch>
     <step>D</step>
     <alter>-1</alter>
     <octave>5</octave>
    </pitch>
    <duration>342</duration>
    <instrument id="P1-I1" />
    <voice>3</voice>
    <type>half</type>
    <accidental>flat</accidental>
    <time-modification>
     <actual-notes>3</actual-notes>
     <normal-notes>2</normal-notes>
     <normal-type>half</normal-type>
    </time-modification>
    <stem>down</stem>
    <staff>2</staff>
    <notations>
     <tuplet type="stop" bracket="yes" number="1" default-y="-57" placement="below" />
    </notations>
   </note>
  </measure>
  <!--============== Part: P1, Measure: 5 ==============-->
  <measure number="5" width="185">
   <attributes />
   <note color="#000000" default-x="16">
    <pitch>
     <step>C</step>
     <octave>6</octave>
    </pitch>
    <duration>1024</duration>
    <instrument id="P1-I1" />
    <voice>1</voice>
    <type>whole</type>
    <accidental>natural</accidental>
    <staff>1</staff>
   </note>
   <backup>
    <duration>1024</duration>
   </backup>
   <note color="#000000" default-x="16" default-y="-50">
    <pitch>
     <step>C</step>
     <alter>-1</alter>
     <octave>5</octave>
    </pitch>
    <duration>256</duration>
    <instrument id="P1-I1" />
    <voice>2</voice>
    <type>quarter</type>
    <accidental>flat</accidental>
    <stem>down</stem>
    <staff>1</staff>
   </note>
   <note color="#000000" default-x="59" default-y="-55">
    <pitch>
     <step>B</step>
     <alter>1</alter>
     <octave>4</octave>
    </pitch>
    <duration>256</duration>
    <instrument id="P1-I1" />
    <voice>2</voice>
    <type>quarter</type>
    <accidental>sharp</accidental>
    <stem>down</stem>
    <staff>1</staff>
   </note>
   <note color="#000000" default-x="101" default-y="-50">
    <pitch>
     <step>C</step>
     <octave>5</octave>
    </pitch>
    <duration>256</duration>
    <instrument id="P1-I1" />
    <voice>2</voice>
    <type>quarter</type>
    <accidental>natural</accidental>
    <stem>down</stem>
    <staff>1</staff>
   </note>
   <note color="#000000" default-x="143" default-y="-45">
    <pitch>
     <step>D</step>
     <alter>-2</alter>
     <octave>5</octave>
    </pitch>
    <duration>256</duration>
    <instrument id="P1-I1" />
    <voice>2</voice>
    <type>quarter</type>
    <accidental>flat-flat</accidental>
    <stem>down</stem>
    <staff>1</staff>
   </note>
   <backup>
    <duration>1024</duration>
   </backup>
   <note color="#000000" default-x="16" default-y="-50">
    <pitch>
     <step>C</step>
     <alter>1</alter>
     <octave>5</octave>
    </pitch>
    <duration>256</duration>
    <instrument id="P1-I1" />
    <voice>3</voice>
    <type>quarter</type>
    <accidental>sharp</accidental>
    <stem>down</stem>
    <staff>2</staff>
   </note>
   <note color="#000000" default-x="59" default-y="-45">
    <pitch>
     <step>D</step>
     <alter>-2</alter>
     <octave>5</octave>
    </pitch>
    <duration>256</duration>
    <instrument id="P1-I1" />
    <voice>3</voice>
    <type>quarter</type>
    <accidental>flat-flat</accidental>
    <stem>down</stem>
    <staff>2</staff>
   </note>
   <note color="#000000" default-x="101" default-y="-50">
    <pitch>
     <step>C</step>
     <octave>5</octave>
    </pitch>
    <duration>256</duration>
    <instrument id="P1-I1" />
    <voice>3</voice>
    <type>quarter</type>
    <accidental>natural</accidental>
    <stem>down</stem>
    <staff>2</staff>
   </note>
   <note color="#000000" default-x="143" default-y="-55">
    <pitch>
     <step>B</step>
     <alter>1</alter>
     <octave>4</octave>
    </pitch>
    <duration>256</duration>
    <instrument id="P1-I1" />
    <voice>3</voice>
    <type>quarter</type>
    <accidental>sharp</accidental>
    <stem>down</stem>
    <staff>2</staff>
   </note>
  </measure>
  <!--============== Part: P1, Measure: 6 ==============-->
  <measure number="6" width="203">
   <attributes />
   <note color="#000000" default-x="16">
    <pitch>
     <step>C</step>
     <octave>6</octave>
    </pitch>
    <duration>1024</duration>
    <instrument id="P1-I1" />
    <voice>1</voice>
    <type>whole</type>
    <accidental>natural</accidental>
    <staff>1</staff>
   </note>
   <backup>
    <duration>1024</duration>
   </backup>
   <note color="#000000" default-x="16" default-y="-50">
    <pitch>
     <step>C</step>
     <alter>1</alter>
     <octave>5</octave>
    </pitch>
    <duration>256</duration>
    <instrument id="P1-I1" />
    <voice>2</voice>
    <type>quarter</type>
    <accidental>sharp</accidental>
    <stem>down</stem>
    <staff>1</staff>
   </note>
   <note color="#000000" default-x="64" default-y="-45">
    <pitch>
     <step>D</step>
     <alter>-1</alter>
     <octave>5</octave>
    </pitch>
    <duration>256</duration>
    <instrument id="P1-I1" />
    <voice>2</voice>
    <type>quarter</type>
    <accidental>flat</accidental>
    <stem>down</stem>
    <staff>1</staff>
   </note>
   <note color="#000000" default-x="110" default-y="-50">
    <pitch>
     <step>C</step>
     <alter>2</alter>
     <octave>5</octave>
    </pitch>
    <duration>256</duration>
    <instrument id="P1-I1" />
    <voice>2</voice>
    <type>quarter</type>
    <accidental>double-sharp</accidental>
    <stem>down</stem>
    <staff>1</staff>
   </note>
   <note color="#000000" default-x="156" default-y="-45">
    <pitch>
     <step>D</step>
     <octave>5</octave>
    </pitch>
    <duration>256</duration>
    <instrument id="P1-I1" />
    <voice>2</voice>
    <type>quarter</type>
    <accidental>natural</accidental>
    <stem>down</stem>
    <staff>1</staff>
   </note>
   <backup>
    <duration>1024</duration>
   </backup>
   <note color="#000000" default-x="16" default-y="-50">
    <pitch>
     <step>C</step>
     <alter>-1</alter>
     <octave>5</octave>
    </pitch>
    <duration>204</duration>
    <instrument id="P1-I1" />
    <voice>3</voice>
    <type>quarter</type>
    <accidental>flat</accidental>
    <time-modification>
     <actual-notes>5</actual-notes>
     <normal-notes>4</normal-notes>
     <normal-type>quarter</normal-type>
    </time-modification>
    <stem>down</stem>
    <staff>2</staff>
    <notations>
     <tuplet type="start" bracket="yes" number="1" default-y="12" placement="below" />
    </notations>
   </note>
   <note color="#000000" default-x="54" default-y="-55">
    <pitch>
     <step>B</step>
     <octave>4</octave>
    </pitch>
    <duration>205</duration>
    <instrument id="P1-I1" />
    <voice>3</voice>
    <type>quarter</type>
    <accidental>natural</accidental>
    <time-modification>
     <actual-notes>5</actual-notes>
     <normal-notes>4</normal-notes>
     <normal-type>quarter</normal-type>
    </time-modification>
    <stem>down</stem>
    <staff>2</staff>
   </note>
   <note color="#000000" default-x="91" default-y="10">
    <pitch>
     <step>A</step>
     <alter>2</alter>
     <octave>4</octave>
    </pitch>
    <duration>205</duration>
    <instrument id="P1-I1" />
    <voice>3</voice>
    <type>quarter</type>
    <accidental>double-sharp</accidental>
    <time-modification>
     <actual-notes>5</actual-notes>
     <normal-notes>4</normal-notes>
     <normal-type>quarter</normal-type>
    </time-modification>
    <stem>up</stem>
    <staff>2</staff>
   </note>
   <note color="#000000" default-x="128" default-y="-55">
    <pitch>
     <step>B</step>
     <alter>-1</alter>
     <octave>4</octave>
    </pitch>
    <duration>205</duration>
    <instrument id="P1-I1" />
    <voice>3</voice>
    <type>quarter</type>
    <accidental>flat</accidental>
    <time-modification>
     <actual-notes>5</actual-notes>
     <normal-notes>4</normal-notes>
     <normal-type>quarter</normal-type>
    </time-modification>
    <stem>down</stem>
    <staff>2</staff>
   </note>
   <note color="#000000" default-x="166" default-y="10">
    <pitch>
     <step>A</step>
     <alter>1</alter>
     <octave>4</octave>
    </pitch>
    <duration>205</duration>
    <instrument id="P1-I1" />
    <voice>3</voice>
    <type>quarter</type>
    <accidental>sharp</accidental>
    <time-modification>
     <actual-notes>5</actual-notes>
     <normal-notes>4</normal-notes>
     <normal-type>quarter</normal-type>
    </time-modification>
    <stem>up</stem>
    <staff>2</staff>
    <notations>
     <tuplet type="stop" bracket="yes" number="1" default-y="12" placement="below" />
    </notations>
   </note>
  </measure>
  <!--============== Part: P1, Measure: 7 ==============-->
  <measure number="7" width="369">
   <print new-system="yes">
    <system-layout>
     <system-margins>
      <left-margin>22</left-margin>
      <right-margin>0</right-margin>
     </system-margins>
     <system-distance>157</system-distance>
    </system-layout>
    <staff-layout number="2">
     <staff-distance>80</staff-distance>
    </staff-layout>
   </print>
   <attributes>
    <staff-details number="1" print-object="yes" />
    <staff-details number="2" print-object="yes" />
   </attributes>
   <note color="#000000" default-x="74">
    <pitch>
     <step>C</step>
     <octave>6</octave>
    </pitch>
    <duration>1024</duration>
    <instrument id="P1-I1" />
    <voice>1</voice>
    <type>whole</type>
    <accidental>natural</accidental>
    <staff>1</staff>
   </note>
   <backup>
    <duration>1024</duration>
   </backup>
   <note color="#000000" default-x="74" default-y="-40">
    <pitch>
     <step>E</step>
     <alter>-2</alter>
     <octave>5</octave>
    </pitch>
    <duration>256</duration>
    <instrument id="P1-I1" />
    <voice>2</voice>
    <type>quarter</type>
    <accidental>flat-flat</accidental>
    <stem>down</stem>
    <staff>1</staff>
   </note>
   <note color="#000000" default-x="145" default-y="-45">
    <pitch>
     <step>D</step>
     <alter>1</alter>
     <octave>5</octave>
    </pitch>
    <duration>256</duration>
    <instrument id="P1-I1" />
    <voice>2</voice>
    <type>quarter</type>
    <accidental>sharp</accidental>
    <stem>down</stem>
    <staff>1</staff>
   </note>
   <note color="#000000" default-x="218" default-y="-40">
    <pitch>
     <step>E</step>
     <alter>-1</alter>
     <octave>5</octave>
    </pitch>
    <duration>256</duration>
    <instrument id="P1-I1" />
    <voice>2</voice>
    <type>quarter</type>
    <accidental>flat</accidental>
    <stem>down</stem>
    <staff>1</staff>
   </note>
   <note color="#000000" default-x="296" default-y="-45">
    <pitch>
     <step>D</step>
     <alter>2</alter>
     <octave>5</octave>
    </pitch>
    <duration>256</duration>
    <instrument id="P1-I1" />
    <voice>2</voice>
    <type>quarter</type>
    <accidental>double-sharp</accidental>
    <stem>down</stem>
    <staff>1</staff>
   </note>
   <backup>
    <duration>1024</duration>
   </backup>
   <note color="#000000" default-x="74" default-y="-55">
    <pitch>
     <step>B</step>
     <alter>-2</alter>
     <octave>4</octave>
    </pitch>
    <duration>170</duration>
    <instrument id="P1-I1" />
    <voice>3</voice>
    <type>quarter</type>
    <accidental>flat-flat</accidental>
    <time-modification>
     <actual-notes>3</actual-notes>
     <normal-notes>2</normal-notes>
     <normal-type>quarter</normal-type>
    </time-modification>
    <stem>down</stem>
    <staff>2</staff>
    <notations>
     <tuplet type="start" bracket="yes" number="1" default-y="12" placement="above" />
    </notations>
   </note>
   <note color="#000000" default-x="122" default-y="10">
    <pitch>
     <step>A</step>
     <octave>4</octave>
    </pitch>
    <duration>171</duration>
    <instrument id="P1-I1" />
    <voice>3</voice>
    <type>quarter</type>
    <accidental>natural</accidental>
    <time-modification>
     <actual-notes>3</actual-notes>
     <normal-notes>2</normal-notes>
     <normal-type>quarter</normal-type>
    </time-modification>
    <stem>up</stem>
    <staff>2</staff>
   </note>
   <note color="#000000" default-x="170" default-y="5">
    <pitch>
     <step>G</step>
     <alter>2</alter>
     <octave>4</octave>
    </pitch>
    <duration>171</duration>
    <instrument id="P1-I1" />
    <voice>3</voice>
    <type>quarter</type>
    <accidental>double-sharp</accidental>
    <time-modification>
     <actual-notes>3</actual-notes>
     <normal-notes>2</normal-notes>
     <normal-type>quarter</normal-type>
    </time-modification>
    <stem>up</stem>
    <staff>2</staff>
    <notations>
     <tuplet type="stop" bracket="yes" number="1" default-y="12" placement="above" />
    </notations>
   </note>
   <note color="#000000" default-x="218" default-y="10">
    <pitch>
     <step>A</step>
     <alter>-1</alter>
     <octave>4</octave>
    </pitch>
    <duration>170</duration>
    <instrument id="P1-I1" />
    <voice>3</voice>
    <type>quarter</type>
    <accidental>flat</accidental>
    <time-modification>
     <actual-notes>3</actual-notes>
     <normal-notes>2</normal-notes>
     <normal-type>quarter</normal-type>
    </time-modification>
    <stem>up</stem>
    <staff>2</staff>
    <notations>
     <tuplet type="start" bracket="yes" number="1" default-y="22" placement="above" />
    </notations>
   </note>
   <note color="#000000" default-x="273" default-y="5">
    <pitch>
     <step>G</step>
     <alter>1</alter>
     <octave>4</octave>
    </pitch>
    <duration>171</duration>
    <instrument id="P1-I1" />
    <voice>3</voice>
    <type>quarter</type>
    <accidental>sharp</accidental>
    <time-modification>
     <actual-notes>3</actual-notes>
     <normal-notes>2</normal-notes>
     <normal-type>quarter</normal-type>
    </time-modification>
    <stem>up</stem>
    <staff>2</staff>
   </note>
   <note color="#000000" default-x="321" default-y="10">
    <pitch>
     <step>A</step>
     <alter>-2</alter>
     <octave>4</octave>
    </pitch>
    <duration>171</duration>
    <instrument id="P1-I1" />
    <voice>3</voice>
    <type>quarter</type>
    <accidental>flat-flat</accidental>
    <time-modification>
     <actual-notes>3</actual-notes>
     <normal-notes>2</normal-notes>
     <normal-type>quarter</normal-type>
    </time-modification>
    <stem>up</stem>
    <staff>2</staff>
    <notations>
     <tuplet type="stop" bracket="yes" number="1" default-y="22" placement="above" />
    </notations>
   </note>
  </measure>
  <!--============== Part: P1, Measure: 8 ==============-->
  <measure number="8" width="353">
   <attributes />
   <note color="#000000" default-x="21">
    <pitch>
     <step>C</step>
     <octave>6</octave>
    </pitch>
    <duration>1024</duration>
    <instrument id="P1-I1" />
    <voice>1</voice>
    <type>whole</type>
    <accidental>natural</accidental>
    <staff>1</staff>
   </note>
   <backup>
    <duration>1024</duration>
   </backup>
   <note color="#000000" default-x="21" default-y="-40">
    <pitch>
     <step>E</step>
     <octave>5</octave>
    </pitch>
    <duration>256</duration>
    <instrument id="P1-I1" />
    <voice>2</voice>
    <type>quarter</type>
    <accidental>natural</accidental>
    <stem>down</stem>
    <staff>1</staff>
   </note>
   <note color="#000000" default-x="93" default-y="-31">
    <pitch>
     <step>F</step>
     <alter>-1</alter>
     <octave>5</octave>
    </pitch>
    <duration>256</duration>
    <instrument id="P1-I1" />
    <voice>2</voice>
    <type>quarter</type>
    <accidental>flat</accidental>
    <stem>down</stem>
    <staff>1</staff>
   </note>
   <note color="#000000" default-x="165" default-y="-40">
    <pitch>
     <step>E</step>
     <alter>1</alter>
     <octave>5</octave>
    </pitch>
    <duration>256</duration>
    <instrument id="P1-I1" />
    <voice>2</voice>
    <type>quarter</type>
    <accidental>sharp</accidental>
    <stem>down</stem>
    <staff>1</staff>
   </note>
   <note color="#000000" default-x="259" default-y="-35">
    <pitch>
     <step>F</step>
     <octave>5</octave>
    </pitch>
    <duration>256</duration>
    <instrument id="P1-I1" />
    <voice>2</voice>
    <type>quarter</type>
    <accidental>natural</accidental>
    <stem>down</stem>
    <staff>1</staff>
   </note>
   <backup>
    <duration>1024</duration>
   </backup>
   <note color="#000000" default-x="21" default-y="5">
    <pitch>
     <step>G</step>
     <octave>4</octave>
    </pitch>
    <duration>170</duration>
    <instrument id="P1-I1" />
    <voice>3</voice>
    <type>quarter</type>
    <accidental>natural</accidental>
    <time-modification>
     <actual-notes>3</actual-notes>
     <normal-notes>2</normal-notes>
     <normal-type>quarter</normal-type>
    </time-modification>
    <stem>up</stem>
    <staff>2</staff>
    <notations>
     <tuplet type="start" bracket="yes" number="1" default-y="17" placement="above" />
    </notations>
   </note>
   <note color="#000000" default-x="69">
    <pitch>
     <step>F</step>
     <alter>2</alter>
     <octave>4</octave>
    </pitch>
    <duration>171</duration>
    <instrument id="P1-I1" />
    <voice>3</voice>
    <type>quarter</type>
    <accidental>double-sharp</accidental>
    <time-modification>
     <actual-notes>3</actual-notes>
     <normal-notes>2</normal-notes>
     <normal-type>quarter</normal-type>
    </time-modification>
    <stem>up</stem>
    <staff>2</staff>
   </note>
   <note color="#000000" default-x="117" default-y="5">
    <pitch>
     <step>G</step>
     <alter>-1</alter>
     <octave>4</octave>
    </pitch>
    <duration>171</duration>
    <instrument id="P1-I1" />
    <voice>3</voice>
    <type>quarter</type>
    <accidental>flat</accidental>
    <time-modification>
     <actual-notes>3</actual-notes>
     <normal-notes>2</normal-notes>
     <normal-type>quarter</normal-type>
    </time-modification>
    <stem>up</stem>
    <staff>2</staff>
    <notations>
     <tuplet type="stop" bracket="yes" number="1" default-y="17" placement="above" />
    </notations>
   </note>
   <note color="#000000" default-x="165" default-y="2">
    <pitch>
     <step>F</step>
     <alter>1</alter>
     <octave>4</octave>
    </pitch>
    <duration>128</duration>
    <instrument id="P1-I1" />
    <voice>3</voice>
    <type>eighth</type>
    <accidental>sharp</accidental>
    <stem>up</stem>
    <staff>2</staff>
    <beam number="1">begin</beam>
   </note>
   <note color="#000000" default-x="216" default-y="2">
    <pitch>
     <step>G</step>
     <alter>-2</alter>
     <octave>4</octave>
    </pitch>
    <duration>128</duration>
    <instrument id="P1-I1" />
    <voice>3</voice>
    <type>eighth</type>
    <accidental>flat-flat</accidental>
    <stem>up</stem>
    <staff>2</staff>
    <beam number="1">continue</beam>
   </note>
   <note color="#000000" default-x="259" default-y="2">
    <pitch>
     <step>F</step>
     <octave>4</octave>
    </pitch>
    <duration>128</duration>
    <instrument id="P1-I1" />
    <voice>3</voice>
    <type>eighth</type>
    <accidental>natural</accidental>
    <stem>up</stem>
    <staff>2</staff>
    <beam number="1">continue</beam>
   </note>
   <note color="#000000" default-x="309" default-y="2">
    <pitch>
     <step>E</step>
     <alter>1</alter>
     <octave>4</octave>
    </pitch>
    <duration>128</duration>
    <instrument id="P1-I1" />
    <voice>3</voice>
    <type>eighth</type>
    <accidental>sharp</accidental>
    <stem>up</stem>
    <staff>2</staff>
    <beam number="1">end</beam>
   </note>
  </measure>
  <!--============== Part: P1, Measure: 9 ==============-->
  <measure number="9" width="485">
   <attributes />
   <note color="#000000" default-x="34">
    <pitch>
     <step>C</step>
     <octave>6</octave>
    </pitch>
    <duration>1024</duration>
    <instrument id="P1-I1" />
    <voice>1</voice>
    <type>whole</type>
    <accidental>natural</accidental>
    <staff>1</staff>
   </note>
   <backup>
    <duration>1024</duration>
   </backup>
   <note color="#000000" default-x="34" default-y="-30">
    <pitch>
     <step>G</step>
     <alter>-2</alter>
     <octave>5</octave>
    </pitch>
    <duration>256</duration>
    <instrument id="P1-I1" />
    <voice>2</voice>
    <type>quarter</type>
    <accidental>flat-flat</accidental>
    <stem>down</stem>
    <staff>1</staff>
   </note>
   <note color="#000000" default-x="136" default-y="-35">
    <pitch>
     <step>F</step>
     <alter>1</alter>
     <octave>5</octave>
    </pitch>
    <duration>256</duration>
    <instrument id="P1-I1" />
    <voice>2</voice>
    <type>quarter</type>
    <accidental>sharp</accidental>
    <stem>down</stem>
    <staff>1</staff>
   </note>
   <note color="#000000" default-x="238" default-y="-30">
    <pitch>
     <step>G</step>
     <alter>-1</alter>
     <octave>5</octave>
    </pitch>
    <duration>256</duration>
    <instrument id="P1-I1" />
    <voice>2</voice>
    <type>quarter</type>
    <accidental>flat</accidental>
    <stem>down</stem>
    <staff>1</staff>
   </note>
   <note color="#000000" default-x="357" default-y="-35">
    <pitch>
     <step>F</step>
     <alter>2</alter>
     <octave>5</octave>
    </pitch>
    <duration>256</duration>
    <instrument id="P1-I1" />
    <voice>2</voice>
    <type>quarter</type>
    <accidental>double-sharp</accidental>
    <stem>down</stem>
    <staff>1</staff>
   </note>
   <backup>
    <duration>1024</duration>
   </backup>
   <note color="#000000" default-x="34" default-y="-5">
    <pitch>
     <step>F</step>
     <alter>-1</alter>
     <octave>4</octave>
    </pitch>
    <duration>102</duration>
    <instrument id="P1-I1" />
    <voice>3</voice>
    <type>eighth</type>
    <accidental>flat</accidental>
    <time-modification>
     <actual-notes>5</actual-notes>
     <normal-notes>4</normal-notes>
     <normal-type>eighth</normal-type>
    </time-modification>
    <stem>up</stem>
    <staff>2</staff>
    <beam number="1">begin</beam>
    <notations>
     <tuplet type="start" bracket="no" number="1" default-y="-20" placement="above" />
    </notations>
   </note>
   <note color="#000000" default-x="71" default-y="-5">
    <pitch>
     <step>E</step>
     <octave>4</octave>
    </pitch>
    <duration>102</duration>
    <instrument id="P1-I1" />
    <voice>3</voice>
    <type>eighth</type>
    <accidental>natural</accidental>
    <time-modification>
     <actual-notes>5</actual-notes>
     <normal-notes>4</normal-notes>
     <normal-type>eighth</normal-type>
    </time-modification>
    <stem>up</stem>
    <staff>2</staff>
    <beam number="1">continue</beam>
   </note>
   <note color="#000000" default-x="116" default-y="-5">
    <pitch>
     <step>D</step>
     <alter>2</alter>
     <octave>4</octave>
    </pitch>
    <duration>103</duration>
    <instrument id="P1-I1" />
    <voice>3</voice>
    <type>eighth</type>
    <accidental>double-sharp</accidental>
    <time-modification>
     <actual-notes>5</actual-notes>
     <normal-notes>4</normal-notes>
     <normal-type>eighth</normal-type>
    </time-modification>
    <stem>up</stem>
    <staff>2</staff>
    <beam number="1">continue</beam>
   </note>
   <note color="#000000" default-x="155" default-y="-5">
    <pitch>
     <step>E</step>
     <alter>-1</alter>
     <octave>4</octave>
    </pitch>
    <duration>102</duration>
    <instrument id="P1-I1" />
    <voice>3</voice>
    <type>eighth</type>
    <accidental>flat</accidental>
    <time-modification>
     <actual-notes>5</actual-notes>
     <normal-notes>4</normal-notes>
     <normal-type>eighth</normal-type>
    </time-modification>
    <stem>up</stem>
    <staff>2</staff>
    <beam number="1">continue</beam>
   </note>
   <note color="#000000" default-x="200" default-y="-5">
    <pitch>
     <step>D</step>
     <alter>1</alter>
     <octave>4</octave>
    </pitch>
    <duration>103</duration>
    <instrument id="P1-I1" />
    <voice>3</voice>
    <type>eighth</type>
    <accidental>sharp</accidental>
    <time-modification>
     <actual-notes>5</actual-notes>
     <normal-notes>4</normal-notes>
     <normal-type>eighth</normal-type>
    </time-modification>
    <stem>up</stem>
    <staff>2</staff>
    <beam number="1">end</beam>
    <notations>
     <tuplet type="stop" bracket="no" number="1" default-y="-20" placement="above" />
    </notations>
   </note>
   <note color="#000000" default-x="238" default-y="-7">
    <pitch>
     <step>E</step>
     <alter>-2</alter>
     <octave>4</octave>
    </pitch>
    <duration>85</duration>
    <instrument id="P1-I1" />
    <voice>3</voice>
    <type>eighth</type>
    <accidental>flat-flat</accidental>
    <time-modification>
     <actual-notes>3</actual-notes>
     <normal-notes>2</normal-notes>
     <normal-type>eighth</normal-type>
    </time-modification>
    <stem>up</stem>
    <staff>2</staff>
    <beam number="1">begin</beam>
    <notations>
     <tuplet type="start" bracket="no" number="1" default-y="-20" placement="above" />
    </notations>
   </note>
   <note color="#000000" default-x="280" default-y="-7">
    <pitch>
     <step>D</step>
     <octave>4</octave>
    </pitch>
    <duration>85</duration>
    <instrument id="P1-I1" />
    <voice>3</voice>
    <type>eighth</type>
    <accidental>natural</accidental>
    <time-modification>
     <actual-notes>3</actual-notes>
     <normal-notes>2</normal-notes>
     <normal-type>eighth</normal-type>
    </time-modification>
    <stem>up</stem>
    <staff>2</staff>
    <beam number="1">continue</beam>
   </note>
   <note color="#000000" default-x="322" default-y="-7">
    <pitch>
     <step>C</step>
     <alter>2</alter>
     <octave>4</octave>
    </pitch>
    <duration>86</duration>
    <instrument id="P1-I1" />
    <voice>3</voice>
    <type>eighth</type>
    <accidental>double-sharp</accidental>
    <time-modification>
     <actual-notes>3</actual-notes>
     <normal-notes>2</normal-notes>
     <normal-type>eighth</normal-type>
    </time-modification>
    <stem>up</stem>
    <staff>2</staff>
    <beam number="1">end</beam>
    <notations>
     <tuplet type="stop" bracket="no" number="1" default-y="-20" placement="above" />
    </notations>
   </note>
   <note color="#000000" default-x="357" default-y="-10">
    <pitch>
     <step>D</step>
     <alter>-1</alter>
     <octave>4</octave>
    </pitch>
    <duration>85</duration>
    <instrument id="P1-I1" />
    <voice>3</voice>
    <type>eighth</type>
    <accidental>flat</accidental>
    <time-modification>
     <actual-notes>3</actual-notes>
     <normal-notes>2</normal-notes>
     <normal-type>eighth</normal-type>
    </time-modification>
    <stem>up</stem>
    <staff>2</staff>
    <beam number="1">begin</beam>
    <notations>
     <tuplet type="start" bracket="no" number="1" default-y="-20" placement="above" />
    </notations>
   </note>
   <note color="#000000" default-x="404" default-y="-10">
    <pitch>
     <step>C</step>
     <alter>1</alter>
     <octave>4</octave>
    </pitch>
    <duration>85</duration>
    <instrument id="P1-I1" />
    <voice>3</voice>
    <type>eighth</type>
    <accidental>sharp</accidental>
    <time-modification>
     <actual-notes>3</actual-notes>
     <normal-notes>2</normal-notes>
     <normal-type>eighth</normal-type>
    </time-modification>
    <stem>up</stem>
    <staff>2</staff>
    <beam number="1">continue</beam>
   </note>
   <note color="#000000" default-x="450" default-y="-10">
    <pitch>
     <step>D</step>
     <alter>-2</alter>
     <octave>4</octave>
    </pitch>
    <duration>86</duration>
    <instrument id="P1-I1" />
    <voice>3</voice>
    <type>eighth</type>
    <accidental>flat-flat</accidental>
    <time-modification>
     <actual-notes>3</actual-notes>
     <normal-notes>2</normal-notes>
     <normal-type>eighth</normal-type>
    </time-modification>
    <stem>up</stem>
    <staff>2</staff>
    <beam number="1">end</beam>
    <notations>
     <tuplet type="stop" bracket="no" number="1" default-y="-20" placement="above" />
    </notations>
   </note>
  </measure>
  <!--============== Part: P1, Measure: 10 ==============-->
  <measure number="10" width="1208">
   <print new-system="yes">
    <system-layout>
     <system-margins>
      <left-margin>22</left-margin>
      <right-margin>0</right-margin>
     </system-margins>
     <system-distance>157</system-distance>
    </system-layout>
    <staff-layout number="2">
     <staff-distance>80</staff-distance>
    </staff-layout>
   </print>
   <attributes>
    <staff-details number="1" print-object="yes" />
    <staff-details number="2" print-object="yes" />
   </attributes>
   <note color="#000000" default-x="66">
    <pitch>
     <step>C</step>
     <octave>6</octave>
    </pitch>
    <duration>1024</duration>
    <instrument id="P1-I1" />
    <voice>1</voice>
    <type>whole</type>
    <accidental>natural</accidental>
    <staff>1</staff>
   </note>
   <backup>
    <duration>512</duration>
   </backup>
   <attributes>
    <clef number="2" color="#000000">
     <sign>F</sign>
     <line>4</line>
    </clef>
   </attributes>
   <backup>
    <duration>512</duration>
   </backup>
   <note color="#000000" default-x="66" default-y="-30">
    <pitch>
     <step>G</step>
     <octave>5</octave>
    </pitch>
    <duration>256</duration>
    <instrument id="P1-I1" />
    <voice>2</voice>
    <type>quarter</type>
    <accidental>natural</accidental>
    <stem>down</stem>
    <staff>1</staff>
   </note>
   <note color="#000000" default-x="314" default-y="-25">
    <pitch>
     <step>A</step>
     <alter>-2</alter>
     <octave>5</octave>
    </pitch>
    <duration>256</duration>
    <instrument id="P1-I1" />
    <voice>2</voice>
    <type>quarter</type>
    <accidental>flat-flat</accidental>
    <stem>down</stem>
    <staff>1</staff>
   </note>
   <note color="#000000" default-x="568" default-y="-30">
    <pitch>
     <step>G</step>
     <alter>1</alter>
     <octave>5</octave>
    </pitch>
    <duration>256</duration>
    <instrument id="P1-I1" />
    <voice>2</voice>
    <type>quarter</type>
    <accidental>sharp</accidental>
    <stem>down</stem>
    <staff>1</staff>
   </note>
   <note color="#000000" default-x="890" default-y="-25">
    <pitch>
     <step>A</step>
     <alter>-1</alter>
     <octave>5</octave>
    </pitch>
    <duration>256</duration>
    <instrument id="P1-I1" />
    <voice>2</voice>
    <type>quarter</type>
    <accidental>flat</accidental>
    <stem>down</stem>
    <staff>1</staff>
   </note>
   <backup>
    <duration>1024</duration>
   </backup>
   <note color="#000000" default-x="66" default-y="-17">
    <pitch>
     <step>C</step>
     <octave>4</octave>
    </pitch>
    <duration>85</duration>
    <instrument id="P1-I1" />
    <voice>3</voice>
    <type>eighth</type>
    <accidental>natural</accidental>
    <time-modification>
     <actual-notes>3</actual-notes>
     <normal-notes>2</normal-notes>
     <normal-type>eighth</normal-type>
    </time-modification>
    <stem>up</stem>
    <staff>2</staff>
    <beam number="1">begin</beam>
    <notations>
     <tuplet type="start" bracket="no" number="1" default-y="-20" placement="above" />
    </notations>
   </note>
   <note color="#000000" default-x="147" default-y="-17">
    <pitch>
     <step>B</step>
     <alter>1</alter>
     <octave>3</octave>
    </pitch>
    <duration>85</duration>
    <instrument id="P1-I1" />
    <voice>3</voice>
    <type>eighth</type>
    <accidental>sharp</accidental>
    <time-modification>
     <actual-notes>3</actual-notes>
     <normal-notes>2</normal-notes>
     <normal-type>eighth</normal-type>
    </time-modification>
    <stem>up</stem>
    <staff>2</staff>
    <beam number="1">continue</beam>
   </note>
   <note color="#000000" default-x="234" default-y="-17">
    <pitch>
     <step>C</step>
     <alter>-1</alter>
     <octave>4</octave>
    </pitch>
    <duration>86</duration>
    <instrument id="P1-I1" />
    <voice>3</voice>
    <type>eighth</type>
    <accidental>flat</accidental>
    <time-modification>
     <actual-notes>3</actual-notes>
     <normal-notes>2</normal-notes>
     <normal-type>eighth</normal-type>
    </time-modification>
    <stem>up</stem>
    <staff>2</staff>
    <beam number="1">end</beam>
    <notations>
     <tuplet type="stop" bracket="no" number="1" default-y="-20" placement="above" />
    </notations>
   </note>
   <note color="#000000" default-x="314" default-y="-20">
    <pitch>
     <step>B</step>
     <octave>3</octave>
    </pitch>
    <duration>85</duration>
    <instrument id="P1-I1" />
    <voice>3</voice>
    <type>eighth</type>
    <accidental>natural</accidental>
    <time-modification>
     <actual-notes>3</actual-notes>
     <normal-notes>2</normal-notes>
     <normal-type>eighth</normal-type>
    </time-modification>
    <stem>up</stem>
    <staff>2</staff>
    <beam number="1">begin</beam>
    <notations>
     <tuplet type="start" bracket="no" number="1" default-y="-20" placement="above" />
    </notations>
   </note>
   <note color="#000000" default-x="401" default-y="-20">
    <pitch>
     <step>A</step>
     <alter>2</alter>
     <octave>3</octave>
    </pitch>
    <duration>85</duration>
    <instrument id="P1-I1" />
    <voice>3</voice>
    <type>eighth</type>
    <accidental>double-sharp</accidental>
    <time-modification>
     <actual-notes>3</actual-notes>
     <normal-notes>2</normal-notes>
     <normal-type>eighth</normal-type>
    </time-modification>
    <stem>up</stem>
    <staff>2</staff>
    <beam number="1">continue</beam>
   </note>
   <note color="#000000" default-x="488" default-y="-20">
    <pitch>
     <step>B</step>
     <alter>-1</alter>
     <octave>3</octave>
    </pitch>
    <duration>86</duration>
    <instrument id="P1-I1" />
    <voice>3</voice>
    <type>eighth</type>
    <accidental>flat</accidental>
    <time-modification>
     <actual-notes>3</actual-notes>
     <normal-notes>2</normal-notes>
     <normal-type>eighth</normal-type>
    </time-modification>
    <stem>up</stem>
    <staff>2</staff>
    <beam number="1">end</beam>
    <notations>
     <tuplet type="stop" bracket="no" number="1" default-y="-20" placement="above" />
    </notations>
   </note>
   <note color="#000000" default-x="568" default-y="-39">
    <pitch>
     <step>A</step>
     <alter>1</alter>
     <octave>3</octave>
    </pitch>
    <duration>64</duration>
    <instrument id="P1-I1" />
    <voice>3</voice>
    <type>16th</type>
    <accidental>sharp</accidental>
    <stem>down</stem>
    <staff>2</staff>
    <beam number="1">begin</beam>
    <beam number="2">begin</beam>
   </note>
   <note color="#000000" default-x="650" default-y="-39">
    <pitch>
     <step>B</step>
     <alter>-2</alter>
     <octave>3</octave>
    </pitch>
    <duration>64</duration>
    <instrument id="P1-I1" />
    <voice>3</voice>
    <type>16th</type>
    <accidental>flat-flat</accidental>
    <stem>down</stem>
    <staff>2</staff>
    <beam number="1">continue</beam>
    <beam number="2">continue</beam>
   </note>
   <note color="#000000" default-x="733" default-y="-39">
    <pitch>
     <step>A</step>
     <octave>3</octave>
    </pitch>
    <duration>64</duration>
    <instrument id="P1-I1" />
    <voice>3</voice>
    <type>16th</type>
    <accidental>natural</accidental>
    <stem>down</stem>
    <staff>2</staff>
    <beam number="1">continue</beam>
    <beam number="2">continue</beam>
   </note>
   <note color="#000000" default-x="815" default-y="-39">
    <pitch>
     <step>G</step>
     <alter>2</alter>
     <octave>3</octave>
    </pitch>
    <duration>64</duration>
    <instrument id="P1-I1" />
    <voice>3</voice>
    <type>16th</type>
    <accidental>double-sharp</accidental>
    <stem>down</stem>
    <staff>2</staff>
    <beam number="1">end</beam>
    <beam number="2">end</beam>
   </note>
   <note color="#000000" default-x="890" default-y="-39">
    <pitch>
     <step>A</step>
     <alter>-1</alter>
     <octave>3</octave>
    </pitch>
    <duration>64</duration>
    <instrument id="P1-I1" />
    <voice>3</voice>
    <type>16th</type>
    <accidental>flat</accidental>
    <stem>down</stem>
    <staff>2</staff>
    <beam number="1">begin</beam>
    <beam number="2">begin</beam>
   </note>
   <note color="#000000" default-x="969" default-y="-39">
    <pitch>
     <step>G</step>
     <alter>1</alter>
     <octave>3</octave>
    </pitch>
    <duration>64</duration>
    <instrument id="P1-I1" />
    <voice>3</voice>
    <type>16th</type>
    <accidental>sharp</accidental>
    <stem>down</stem>
    <staff>2</staff>
    <beam number="1">continue</beam>
    <beam number="2">continue</beam>
   </note>
   <note color="#000000" default-x="1051" default-y="-39">
    <pitch>
     <step>A</step>
     <alter>-2</alter>
     <octave>3</octave>
    </pitch>
    <duration>64</duration>
    <instrument id="P1-I1" />
    <voice>3</voice>
    <type>16th</type>
    <accidental>flat-flat</accidental>
    <stem>down</stem>
    <staff>2</staff>
    <beam number="1">continue</beam>
    <beam number="2">continue</beam>
   </note>
   <note color="#000000" default-x="1133" default-y="-39">
    <pitch>
     <step>G</step>
     <octave>3</octave>
    </pitch>
    <duration>64</duration>
    <instrument id="P1-I1" />
    <voice>3</voice>
    <type>16th</type>
    <accidental>natural</accidental>
    <stem>down</stem>
    <staff>2</staff>
    <beam number="1">end</beam>
    <beam number="2">end</beam>
   </note>
  </measure>
  <!--============== Part: P1, Measure: 11 ==============-->
  <measure number="11" width="1208">
   <print new-system="yes">
    <system-layout>
     <system-margins>
      <left-margin>22</left-margin>
      <right-margin>0</right-margin>
     </system-margins>
     <system-distance>158</system-distance>
    </system-layout>
    <staff-layout number="2">
     <staff-distance>80</staff-distance>
    </staff-layout>
   </print>
   <attributes>
    <staff-details number="1" print-object="yes" />
    <staff-details number="2" print-object="yes" />
   </attributes>
   <note color="#000000" default-x="67">
    <pitch>
     <step>C</step>
     <octave>6</octave>
    </pitch>
    <duration>1024</duration>
    <instrument id="P1-I1" />
    <voice>1</voice>
    <type>whole</type>
    <accidental>natural</accidental>
    <staff>1</staff>
   </note>
   <backup>
    <duration>1024</duration>
   </backup>
   <note color="#000000" default-x="67" default-y="-30">
    <pitch>
     <step>G</step>
     <alter>2</alter>
     <octave>5</octave>
    </pitch>
    <duration>256</duration>
    <instrument id="P1-I1" />
    <voice>2</voice>
    <type>quarter</type>
    <accidental>double-sharp</accidental>
    <stem>down</stem>
    <staff>1</staff>
   </note>
   <note color="#000000" default-x="289" default-y="-25">
    <pitch>
     <step>A</step>
     <octave>5</octave>
    </pitch>
    <duration>256</duration>
    <instrument id="P1-I1" />
    <voice>2</voice>
    <type>quarter</type>
    <accidental>natural</accidental>
    <stem>down</stem>
    <staff>1</staff>
   </note>
   <note color="#000000" default-x="553" default-y="-20">
    <pitch>
     <step>B</step>
     <alter>-2</alter>
     <octave>5</octave>
    </pitch>
    <duration>256</duration>
    <instrument id="P1-I1" />
    <voice>2</voice>
    <type>quarter</type>
    <accidental>flat-flat</accidental>
    <stem>down</stem>
    <staff>1</staff>
   </note>
   <note color="#000000" default-x="861" default-y="-25">
    <pitch>
     <step>A</step>
     <alter>1</alter>
     <octave>5</octave>
    </pitch>
    <duration>256</duration>
    <instrument id="P1-I1" />
    <voice>2</voice>
    <type>quarter</type>
    <accidental>sharp</accidental>
    <stem>down</stem>
    <staff>1</staff>
   </note>
   <backup>
    <duration>1024</duration>
   </backup>
   <note color="#000000" default-x="67" default-y="-42">
    <pitch>
     <step>F</step>
     <alter>2</alter>
     <octave>3</octave>
    </pitch>
    <duration>64</duration>
    <instrument id="P1-I1" />
    <voice>3</voice>
    <type>16th</type>
    <accidental>double-sharp</accidental>
    <stem>down</stem>
    <staff>2</staff>
    <beam number="1">begin</beam>
    <beam number="2">begin</beam>
   </note>
   <note color="#000000" default-x="119" default-y="-42">
    <pitch>
     <step>G</step>
     <alter>-1</alter>
     <octave>3</octave>
    </pitch>
    <duration>64</duration>
    <instrument id="P1-I1" />
    <voice>3</voice>
    <type>16th</type>
    <accidental>flat</accidental>
    <stem>down</stem>
    <staff>2</staff>
    <beam number="1">continue</beam>
    <beam number="2">continue</beam>
   </note>
   <note color="#000000" default-x="178" default-y="-42">
    <pitch>
     <step>F</step>
     <alter>1</alter>
     <octave>3</octave>
    </pitch>
    <duration>64</duration>
    <instrument id="P1-I1" />
    <voice>3</voice>
    <type>16th</type>
    <accidental>sharp</accidental>
    <stem>down</stem>
    <staff>2</staff>
    <beam number="1">continue</beam>
    <beam number="2">continue</beam>
   </note>
   <note color="#000000" default-x="237" default-y="-42">
    <pitch>
     <step>G</step>
     <alter>-2</alter>
     <octave>3</octave>
    </pitch>
    <duration>64</duration>
    <instrument id="P1-I1" />
    <voice>3</voice>
    <type>16th</type>
    <accidental>flat-flat</accidental>
    <stem>down</stem>
    <staff>2</staff>
    <beam number="1">end</beam>
    <beam number="2">end</beam>
   </note>
   <note color="#000000" default-x="289" default-y="-49">
    <pitch>
     <step>F</step>
     <octave>3</octave>
    </pitch>
    <duration>51</duration>
    <instrument id="P1-I1" />
    <voice>3</voice>
    <type>16th</type>
    <accidental>natural</accidental>
    <time-modification>
     <actual-notes>5</actual-notes>
     <normal-notes>4</normal-notes>
     <normal-type>16th</normal-type>
    </time-modification>
    <stem>down</stem>
    <staff>2</staff>
    <beam number="1">begin</beam>
    <beam number="2">begin</beam>
    <notations>
     <tuplet type="start" bracket="no" number="1" default-y="-20" placement="below" />
    </notations>
   </note>
   <note color="#000000" default-x="340" default-y="-49">
    <pitch>
     <step>E</step>
     <alter>1</alter>
     <octave>3</octave>
    </pitch>
    <duration>51</duration>
    <instrument id="P1-I1" />
    <voice>3</voice>
    <type>16th</type>
    <accidental>sharp</accidental>
    <time-modification>
     <actual-notes>5</actual-notes>
     <normal-notes>4</normal-notes>
     <normal-type>16th</normal-type>
    </time-modification>
    <stem>down</stem>
    <staff>2</staff>
    <beam number="1">continue</beam>
    <beam number="2">continue</beam>
   </note>
   <note color="#000000" default-x="395" default-y="-49">
    <pitch>
     <step>F</step>
     <alter>-1</alter>
     <octave>3</octave>
    </pitch>
    <duration>51</duration>
    <instrument id="P1-I1" />
    <voice>3</voice>
    <type>16th</type>
    <accidental>flat</accidental>
    <time-modification>
     <actual-notes>5</actual-notes>
     <normal-notes>4</normal-notes>
     <normal-type>16th</normal-type>
    </time-modification>
    <stem>down</stem>
    <staff>2</staff>
    <beam number="1">continue</beam>
    <beam number="2">continue</beam>
   </note>
   <note color="#000000" default-x="450" default-y="-49">
    <pitch>
     <step>E</step>
     <octave>3</octave>
    </pitch>
    <duration>51</duration>
    <instrument id="P1-I1" />
    <voice>3</voice>
    <type>16th</type>
    <accidental>natural</accidental>
    <time-modification>
     <actual-notes>5</actual-notes>
     <normal-notes>4</normal-notes>
     <normal-type>16th</normal-type>
    </time-modification>
    <stem>down</stem>
    <staff>2</staff>
    <beam number="1">continue</beam>
    <beam number="2">continue</beam>
   </note>
   <note color="#000000" default-x="505" default-y="-49">
    <pitch>
     <step>D</step>
     <alter>2</alter>
     <octave>3</octave>
    </pitch>
    <duration>52</duration>
    <instrument id="P1-I1" />
    <voice>3</voice>
    <type>16th</type>
    <accidental>double-sharp</accidental>
    <time-modification>
     <actual-notes>5</actual-notes>
     <normal-notes>4</normal-notes>
     <normal-type>16th</normal-type>
    </time-modification>
    <stem>down</stem>
    <staff>2</staff>
    <beam number="1">end</beam>
    <beam number="2">end</beam>
    <notations>
     <tuplet type="stop" bracket="no" number="1" default-y="-20" placement="below" />
    </notations>
   </note>
   <note color="#000000" default-x="553" default-y="-54">
    <pitch>
     <step>E</step>
     <alter>-1</alter>
     <octave>3</octave>
    </pitch>
    <duration>42</duration>
    <instrument id="P1-I1" />
    <voice>3</voice>
    <type>16th</type>
    <accidental>flat</accidental>
    <time-modification>
     <actual-notes>6</actual-notes>
     <normal-notes>4</normal-notes>
     <normal-type>16th</normal-type>
    </time-modification>
    <stem>down</stem>
    <staff>2</staff>
    <beam number="1">begin</beam>
    <beam number="2">begin</beam>
    <notations>
     <tuplet type="start" bracket="no" number="1" default-y="-20" placement="below" />
    </notations>
   </note>
   <note color="#000000" default-x="602" default-y="-54">
    <pitch>
     <step>D</step>
     <alter>1</alter>
     <octave>3</octave>
    </pitch>
    <duration>43</duration>
    <instrument id="P1-I1" />
    <voice>3</voice>
    <type>16th</type>
    <accidental>sharp</accidental>
    <time-modification>
     <actual-notes>6</actual-notes>
     <normal-notes>4</normal-notes>
     <normal-type>16th</normal-type>
    </time-modification>
    <stem>down</stem>
    <staff>2</staff>
    <beam number="1">continue</beam>
    <beam number="2">continue</beam>
   </note>
   <note color="#000000" default-x="656" default-y="-54">
    <pitch>
     <step>E</step>
     <alter>-2</alter>
     <octave>3</octave>
    </pitch>
    <duration>43</duration>
    <instrument id="P1-I1" />
    <voice>3</voice>
    <type>16th</type>
    <accidental>flat-flat</accidental>
    <time-modification>
     <actual-notes>6</actual-notes>
     <normal-notes>4</normal-notes>
     <normal-type>16th</normal-type>
    </time-modification>
    <stem>down</stem>
    <staff>2</staff>
    <beam number="1">continue</beam>
    <beam number="2">continue</beam>
   </note>
   <note color="#000000" default-x="709" default-y="-54">
    <pitch>
     <step>D</step>
     <octave>3</octave>
    </pitch>
    <duration>42</duration>
    <instrument id="P1-I1" />
    <voice>3</voice>
    <type>16th</type>
    <accidental>natural</accidental>
    <time-modification>
     <actual-notes>6</actual-notes>
     <normal-notes>4</normal-notes>
     <normal-type>16th</normal-type>
    </time-modification>
    <stem>down</stem>
    <staff>2</staff>
    <beam number="1">continue</beam>
    <beam number="2">continue</beam>
   </note>
   <note color="#000000" default-x="762" default-y="-54">
    <pitch>
     <step>C</step>
     <alter>2</alter>
     <octave>3</octave>
    </pitch>
    <duration>43</duration>
    <instrument id="P1-I1" />
    <voice>3</voice>
    <type>16th</type>
    <accidental>double-sharp</accidental>
    <time-modification>
     <actual-notes>6</actual-notes>
     <normal-notes>4</normal-notes>
     <normal-type>16th</normal-type>
    </time-modification>
    <stem>down</stem>
    <staff>2</staff>
    <beam number="1">continue</beam>
    <beam number="2">continue</beam>
   </note>
   <note color="#000000" default-x="815" default-y="-54">
    <pitch>
     <step>D</step>
     <alter>-1</alter>
     <octave>3</octave>
    </pitch>
    <duration>43</duration>
    <instrument id="P1-I1" />
    <voice>3</voice>
    <type>16th</type>
    <accidental>flat</accidental>
    <time-modification>
     <actual-notes>6</actual-notes>
     <normal-notes>4</normal-notes>
     <normal-type>16th</normal-type>
    </time-modification>
    <stem>down</stem>
    <staff>2</staff>
    <beam number="1">end</beam>
    <beam number="2">end</beam>
    <notations>
     <tuplet type="stop" bracket="no" number="1" default-y="-20" placement="below" />
    </notations>
   </note>
   <note color="#000000" default-x="861" default-y="12">
    <pitch>
     <step>C</step>
     <alter>1</alter>
     <octave>3</octave>
    </pitch>
    <duration>36</duration>
    <instrument id="P1-I1" />
    <voice>3</voice>
    <type>16th</type>
    <accidental>sharp</accidental>
    <time-modification>
     <actual-notes>7</actual-notes>
     <normal-notes>4</normal-notes>
     <normal-type>16th</normal-type>
    </time-modification>
    <stem>up</stem>
    <staff>2</staff>
    <beam number="1">begin</beam>
    <beam number="2">begin</beam>
    <notations>
     <tuplet type="start" bracket="no" number="1" default-y="-20" placement="above" />
    </notations>
   </note>
   <note color="#000000" default-x="906" default-y="12">
    <pitch>
     <step>D</step>
     <alter>-2</alter>
     <octave>3</octave>
    </pitch>
    <duration>37</duration>
    <instrument id="P1-I1" />
    <voice>3</voice>
    <type>16th</type>
    <accidental>flat-flat</accidental>
    <time-modification>
     <actual-notes>7</actual-notes>
     <normal-notes>4</normal-notes>
     <normal-type>16th</normal-type>
    </time-modification>
    <stem>up</stem>
    <staff>2</staff>
    <beam number="1">continue</beam>
    <beam number="2">continue</beam>
   </note>
   <note color="#000000" default-x="958" default-y="12">
    <pitch>
     <step>C</step>
     <octave>3</octave>
    </pitch>
    <duration>36</duration>
    <instrument id="P1-I1" />
    <voice>3</voice>
    <type>16th</type>
    <accidental>natural</accidental>
    <time-modification>
     <actual-notes>7</actual-notes>
     <normal-notes>4</normal-notes>
     <normal-type>16th</normal-type>
    </time-modification>
    <stem>up</stem>
    <staff>2</staff>
    <beam number="1">continue</beam>
    <beam number="2">continue</beam>
   </note>
   <note color="#000000" default-x="1009" default-y="12">
    <pitch>
     <step>B</step>
     <alter>1</alter>
     <octave>2</octave>
    </pitch>
    <duration>37</duration>
    <instrument id="P1-I1" />
    <voice>3</voice>
    <type>16th</type>
    <accidental>sharp</accidental>
    <time-modification>
     <actual-notes>7</actual-notes>
     <normal-notes>4</normal-notes>
     <normal-type>16th</normal-type>
    </time-modification>
    <stem>up</stem>
    <staff>2</staff>
    <beam number="1">continue</beam>
    <beam number="2">continue</beam>
   </note>
   <note color="#000000" default-x="1061" default-y="12">
    <pitch>
     <step>C</step>
     <alter>-1</alter>
     <octave>3</octave>
    </pitch>
    <duration>36</duration>
    <instrument id="P1-I1" />
    <voice>3</voice>
    <type>16th</type>
    <accidental>flat</accidental>
    <time-modification>
     <actual-notes>7</actual-notes>
     <normal-notes>4</normal-notes>
     <normal-type>16th</normal-type>
    </time-modification>
    <stem>up</stem>
    <staff>2</staff>
    <beam number="1">continue</beam>
    <beam number="2">continue</beam>
   </note>
   <note color="#000000" default-x="1112" default-y="12">
    <pitch>
     <step>B</step>
     <octave>2</octave>
    </pitch>
    <duration>37</duration>
    <instrument id="P1-I1" />
    <voice>3</voice>
    <type>16th</type>
    <accidental>natural</accidental>
    <time-modification>
     <actual-notes>7</actual-notes>
     <normal-notes>4</normal-notes>
     <normal-type>16th</normal-type>
    </time-modification>
    <stem>up</stem>
    <staff>2</staff>
    <beam number="1">continue</beam>
    <beam number="2">continue</beam>
   </note>
   <note color="#000000" default-x="1164" default-y="12">
    <pitch>
     <step>A</step>
     <alter>2</alter>
     <octave>2</octave>
    </pitch>
    <duration>37</duration>
    <instrument id="P1-I1" />
    <voice>3</voice>
    <type>16th</type>
    <accidental>double-sharp</accidental>
    <time-modification>
     <actual-notes>7</actual-notes>
     <normal-notes>4</normal-notes>
     <normal-type>16th</normal-type>
    </time-modification>
    <stem>up</stem>
    <staff>2</staff>
    <beam number="1">end</beam>
    <beam number="2">end</beam>
    <notations>
     <tuplet type="stop" bracket="no" number="1" default-y="-20" placement="above" />
    </notations>
   </note>
  </measure>
  <!--============== Part: P1, Measure: 12 ==============-->
  <measure number="12" width="1208">
   <print new-system="yes">
    <system-layout>
     <system-margins>
      <left-margin>22</left-margin>
      <right-margin>0</right-margin>
     </system-margins>
     <system-distance>157</system-distance>
    </system-layout>
    <staff-layout number="2">
     <staff-distance>80</staff-distance>
    </staff-layout>
   </print>
   <attributes>
    <staff-details number="1" print-object="yes" />
    <staff-details number="2" print-object="yes" />
   </attributes>
   <note color="#000000" default-x="68" default-y="47">
    <pitch>
     <step>C</step>
     <octave>6</octave>
    </pitch>
    <duration>512</duration>
    <instrument id="P1-I1" />
    <voice>1</voice>
    <type>half</type>
    <accidental>natural</accidental>
    <stem>up</stem>
    <staff>1</staff>
   </note>
   <note color="#000000" default-x="988" default-y="62">
    <pitch>
     <step>C</step>
     <octave>6</octave>
    </pitch>
    <duration>32</duration>
    <instrument id="P1-I1" />
    <voice>1</voice>
    <type>32nd</type>
    <accidental>natural</accidental>
    <stem>up</stem>
    <staff>1</staff>
   </note>
   <note default-x="1028">
    <rest />
    <duration>224</duration>
    <instrument id="P1-I1" />
    <voice>1</voice>
    <type>eighth</type>
    <dot />
    <dot />
    <staff>1</staff>
   </note>
   <note default-x="1107">
    <rest />
    <duration>256</duration>
    <instrument id="P1-I1" />
    <voice>1</voice>
    <type>quarter</type>
    <staff>1</staff>
   </note>
   <barline>
    <bar-style>light-heavy</bar-style>
   </barline>
   <backup>
    <duration>1024</duration>
   </backup>
   <note color="#000000" default-x="68" default-y="-20">
    <pitch>
     <step>B</step>
     <alter>-1</alter>
     <octave>5</octave>
    </pitch>
    <duration>256</duration>
    <instrument id="P1-I1" />
    <voice>2</voice>
    <type>quarter</type>
    <accidental>flat</accidental>
    <stem>down</stem>
    <staff>1</staff>
   </note>
   <note color="#000000" default-x="510" default-y="-25">
    <pitch>
     <step>A</step>
     <alter>2</alter>
     <octave>5</octave>
    </pitch>
    <duration>256</duration>
    <instrument id="P1-I1" />
    <voice>2</voice>
    <type>quarter</type>
    <accidental>double-sharp</accidental>
    <stem>down</stem>
    <staff>1</staff>
   </note>
   <note color="#000000" default-x="988" default-y="-27">
    <pitch>
     <step>B</step>
     <octave>5</octave>
    </pitch>
    <duration>32</duration>
    <instrument id="P1-I1" />
    <voice>2</voice>
    <type>32nd</type>
    <accidental>natural</accidental>
    <stem>down</stem>
    <staff>1</staff>
   </note>
   <note print-object="no" default-x="1028">
    <rest />
    <duration>224</duration>
    <instrument id="P1-I1" />
    <voice>2</voice>
    <type>eighth</type>
    <dot />
    <dot />
    <staff>1</staff>
   </note>
   <note print-object="no" default-x="1107">
    <rest />
    <duration>256</duration>
    <instrument id="P1-I1" />
    <voice>2</voice>
    <type>quarter</type>
    <staff>1</staff>
   </note>
   <backup>
    <duration>1024</duration>
   </backup>
   <note color="#000000" default-x="68" default-y="10">
    <pitch>
     <step>B</step>
     <alter>-1</alter>
     <octave>2</octave>
    </pitch>
    <duration>32</duration>
    <instrument id="P1-I1" />
    <voice>3</voice>
    <type>32nd</type>
    <accidental>flat</accidental>
    <stem>up</stem>
    <staff>2</staff>
    <beam number="1">begin</beam>
    <beam number="2">begin</beam>
    <beam number="3">begin</beam>
   </note>
   <note color="#000000" default-x="109" default-y="10">
    <pitch>
     <step>A</step>
     <alter>1</alter>
     <octave>2</octave>
    </pitch>
    <duration>32</duration>
    <instrument id="P1-I1" />
    <voice>3</voice>
    <type>32nd</type>
    <accidental>sharp</accidental>
    <stem>up</stem>
    <staff>2</staff>
    <beam number="1">continue</beam>
    <beam number="2">continue</beam>
    <beam number="3">continue</beam>
   </note>
   <note color="#000000" default-x="156" default-y="10">
    <pitch>
     <step>B</step>
     <alter>-2</alter>
     <octave>2</octave>
    </pitch>
    <duration>32</duration>
    <instrument id="P1-I1" />
    <voice>3</voice>
    <type>32nd</type>
    <accidental>flat-flat</accidental>
    <stem>up</stem>
    <staff>2</staff>
    <beam number="1">continue</beam>
    <beam number="2">continue</beam>
    <beam number="3">continue</beam>
   </note>
   <note color="#000000" default-x="203" default-y="10">
    <pitch>
     <step>A</step>
     <octave>2</octave>
    </pitch>
    <duration>32</duration>
    <instrument id="P1-I1" />
    <voice>3</voice>
    <type>32nd</type>
    <accidental>natural</accidental>
    <stem>up</stem>
    <staff>2</staff>
    <beam number="1">continue</beam>
    <beam number="2">end</beam>
    <beam number="3">end</beam>
   </note>
   <note color="#000000" default-x="250" default-y="10">
    <pitch>
     <step>G</step>
     <alter>2</alter>
     <octave>2</octave>
    </pitch>
    <duration>21</duration>
    <instrument id="P1-I1" />
    <voice>3</voice>
    <type>32nd</type>
    <accidental>double-sharp</accidental>
    <time-modification>
     <actual-notes>6</actual-notes>
     <normal-notes>4</normal-notes>
     <normal-type>32nd</normal-type>
    </time-modification>
    <stem>up</stem>
    <staff>2</staff>
    <beam number="1">continue</beam>
    <beam number="2">begin</beam>
    <beam number="3">begin</beam>
    <notations>
     <tuplet type="start" bracket="yes" number="1" default-y="-20" placement="above" />
    </notations>
   </note>
   <note color="#000000" default-x="295" default-y="10">
    <pitch>
     <step>A</step>
     <alter>-1</alter>
     <octave>2</octave>
    </pitch>
    <duration>21</duration>
    <instrument id="P1-I1" />
    <voice>3</voice>
    <type>32nd</type>
    <accidental>flat</accidental>
    <time-modification>
     <actual-notes>6</actual-notes>
     <normal-notes>4</normal-notes>
     <normal-type>32nd</normal-type>
    </time-modification>
    <stem>up</stem>
    <staff>2</staff>
    <beam number="1">continue</beam>
    <beam number="2">continue</beam>
    <beam number="3">continue</beam>
   </note>
   <note color="#000000" default-x="339" default-y="10">
    <pitch>
     <step>G</step>
     <alter>1</alter>
     <octave>2</octave>
    </pitch>
    <duration>22</duration>
    <instrument id="P1-I1" />
    <voice>3</voice>
    <type>32nd</type>
    <accidental>sharp</accidental>
    <time-modification>
     <actual-notes>6</actual-notes>
     <normal-notes>4</normal-notes>
     <normal-type>32nd</normal-type>
    </time-modification>
    <stem>up</stem>
    <staff>2</staff>
    <beam number="1">continue</beam>
    <beam number="2">continue</beam>
    <beam number="3">continue</beam>
   </note>
   <note color="#000000" default-x="383" default-y="10">
    <pitch>
     <step>A</step>
     <alter>-2</alter>
     <octave>2</octave>
    </pitch>
    <duration>21</duration>
    <instrument id="P1-I1" />
    <voice>3</voice>
    <type>32nd</type>
    <accidental>flat-flat</accidental>
    <time-modification>
     <actual-notes>6</actual-notes>
     <normal-notes>4</normal-notes>
     <normal-type>32nd</normal-type>
    </time-modification>
    <stem>up</stem>
    <staff>2</staff>
    <beam number="1">continue</beam>
    <beam number="2">continue</beam>
    <beam number="3">continue</beam>
   </note>
   <note color="#000000" default-x="428" default-y="10">
    <pitch>
     <step>G</step>
     <octave>2</octave>
    </pitch>
    <duration>21</duration>
    <instrument id="P1-I1" />
    <voice>3</voice>
    <type>32nd</type>
    <accidental>natural</accidental>
    <time-modification>
     <actual-notes>6</actual-notes>
     <normal-notes>4</normal-notes>
     <normal-type>32nd</normal-type>
    </time-modification>
    <stem>up</stem>
    <staff>2</staff>
    <beam number="1">continue</beam>
    <beam number="2">continue</beam>
    <beam number="3">continue</beam>
   </note>
   <note color="#000000" default-x="472" default-y="10">
    <pitch>
     <step>F</step>
     <alter>2</alter>
     <octave>2</octave>
    </pitch>
    <duration>22</duration>
    <instrument id="P1-I1" />
    <voice>3</voice>
    <type>32nd</type>
    <accidental>double-sharp</accidental>
    <time-modification>
     <actual-notes>6</actual-notes>
     <normal-notes>4</normal-notes>
     <normal-type>32nd</normal-type>
    </time-modification>
    <stem>up</stem>
    <staff>2</staff>
    <beam number="1">end</beam>
    <beam number="2">end</beam>
    <beam number="3">end</beam>
    <notations>
     <tuplet type="stop" bracket="yes" number="1" default-y="-20" placement="above" />
    </notations>
   </note>
   <note color="#000000" default-x="510">
    <pitch>
     <step>G</step>
     <alter>-1</alter>
     <octave>2</octave>
    </pitch>
    <duration>23</duration>
    <instrument id="P1-I1" />
    <voice>3</voice>
    <type>32nd</type>
    <accidental>flat</accidental>
    <time-modification>
     <actual-notes>11</actual-notes>
     <normal-notes>8</normal-notes>
     <normal-type>32nd</normal-type>
    </time-modification>
    <stem>up</stem>
    <staff>2</staff>
    <beam number="1">begin</beam>
    <beam number="2">begin</beam>
    <beam number="3">begin</beam>
    <notations>
     <tuplet type="start" bracket="no" number="1" default-y="-20" placement="above" />
    </notations>
   </note>
   <note color="#000000" default-x="547">
    <pitch>
     <step>F</step>
     <alter>1</alter>
     <octave>2</octave>
    </pitch>
    <duration>23</duration>
    <instrument id="P1-I1" />
    <voice>3</voice>
    <type>32nd</type>
    <accidental>sharp</accidental>
    <time-modification>
     <actual-notes>11</actual-notes>
     <normal-notes>8</normal-notes>
     <normal-type>32nd</normal-type>
    </time-modification>
    <stem>up</stem>
    <staff>2</staff>
    <beam number="1">continue</beam>
    <beam number="2">continue</beam>
    <beam number="3">continue</beam>
   </note>
   <note color="#000000" default-x="591">
    <pitch>
     <step>G</step>
     <alter>-2</alter>
     <octave>2</octave>
    </pitch>
    <duration>23</duration>
    <instrument id="P1-I1" />
    <voice>3</voice>
    <type>32nd</type>
    <accidental>flat-flat</accidental>
    <time-modification>
     <actual-notes>11</actual-notes>
     <normal-notes>8</normal-notes>
     <normal-type>32nd</normal-type>
    </time-modification>
    <stem>up</stem>
    <staff>2</staff>
    <beam number="1">continue</beam>
    <beam number="2">continue</beam>
    <beam number="3">continue</beam>
   </note>
   <note color="#000000" default-x="635">
    <pitch>
     <step>F</step>
     <octave>2</octave>
    </pitch>
    <duration>24</duration>
    <instrument id="P1-I1" />
    <voice>3</voice>
    <type>32nd</type>
    <accidental>natural</accidental>
    <time-modification>
     <actual-notes>11</actual-notes>
     <normal-notes>8</normal-notes>
     <normal-type>32nd</normal-type>
    </time-modification>
    <stem>up</stem>
    <staff>2</staff>
    <beam number="1">continue</beam>
    <beam number="2">continue</beam>
    <beam number="3">continue</beam>
   </note>
   <note color="#000000" default-x="681">
    <pitch>
     <step>E</step>
     <alter>1</alter>
     <octave>2</octave>
    </pitch>
    <duration>23</duration>
    <instrument id="P1-I1" />
    <voice>3</voice>
    <type>32nd</type>
    <accidental>sharp</accidental>
    <time-modification>
     <actual-notes>11</actual-notes>
     <normal-notes>8</normal-notes>
     <normal-type>32nd</normal-type>
    </time-modification>
    <stem>up</stem>
    <staff>2</staff>
    <beam number="1">continue</beam>
    <beam number="2">continue</beam>
    <beam number="3">continue</beam>
   </note>
   <note color="#000000" default-x="725">
    <pitch>
     <step>E</step>
     <octave>2</octave>
    </pitch>
    <duration>23</duration>
    <instrument id="P1-I1" />
    <voice>3</voice>
    <type>32nd</type>
    <accidental>natural</accidental>
    <time-modification>
     <actual-notes>11</actual-notes>
     <normal-notes>8</normal-notes>
     <normal-type>32nd</normal-type>
    </time-modification>
    <stem>up</stem>
    <staff>2</staff>
    <beam number="1">continue</beam>
    <beam number="2">continue</beam>
    <beam number="3">continue</beam>
   </note>
   <note color="#000000" default-x="770">
    <pitch>
     <step>E</step>
     <alter>-1</alter>
     <octave>2</octave>
    </pitch>
    <duration>23</duration>
    <instrument id="P1-I1" />
    <voice>3</voice>
    <type>32nd</type>
    <accidental>flat</accidental>
    <time-modification>
     <actual-notes>11</actual-notes>
     <normal-notes>8</normal-notes>
     <normal-type>32nd</normal-type>
    </time-modification>
    <stem>up</stem>
    <staff>2</staff>
    <beam number="1">continue</beam>
    <beam number="2">continue</beam>
    <beam number="3">continue</beam>
   </note>
   <note color="#000000" default-x="814">
    <pitch>
     <step>D</step>
     <alter>1</alter>
     <octave>2</octave>
    </pitch>
    <duration>24</duration>
    <instrument id="P1-I1" />
    <voice>3</voice>
    <type>32nd</type>
    <accidental>sharp</accidental>
    <time-modification>
     <actual-notes>11</actual-notes>
     <normal-notes>8</normal-notes>
     <normal-type>32nd</normal-type>
    </time-modification>
    <stem>up</stem>
    <staff>2</staff>
    <beam number="1">continue</beam>
    <beam number="2">continue</beam>
    <beam number="3">continue</beam>
   </note>
   <note color="#000000" default-x="860">
    <pitch>
     <step>D</step>
     <octave>2</octave>
    </pitch>
    <duration>23</duration>
    <instrument id="P1-I1" />
    <voice>3</voice>
    <type>32nd</type>
    <accidental>natural</accidental>
    <time-modification>
     <actual-notes>11</actual-notes>
     <normal-notes>8</normal-notes>
     <normal-type>32nd</normal-type>
    </time-modification>
    <stem>up</stem>
    <staff>2</staff>
    <beam number="1">continue</beam>
    <beam number="2">continue</beam>
    <beam number="3">continue</beam>
   </note>
   <note color="#000000" default-x="904">
    <pitch>
     <step>D</step>
     <alter>-1</alter>
     <octave>2</octave>
    </pitch>
    <duration>23</duration>
    <instrument id="P1-I1" />
    <voice>3</voice>
    <type>32nd</type>
    <accidental>flat</accidental>
    <time-modification>
     <actual-notes>11</actual-notes>
     <normal-notes>8</normal-notes>
     <normal-type>32nd</normal-type>
    </time-modification>
    <stem>up</stem>
    <staff>2</staff>
    <beam number="1">continue</beam>
    <beam number="2">continue</beam>
    <beam number="3">continue</beam>
   </note>
   <note color="#000000" default-x="949">
    <pitch>
     <step>C</step>
     <alter>1</alter>
     <octave>2</octave>
    </pitch>
    <duration>24</duration>
    <instrument id="P1-I1" />
    <voice>3</voice>
    <type>32nd</type>
    <accidental>sharp</accidental>
    <time-modification>
     <actual-notes>11</actual-notes>
     <normal-notes>8</normal-notes>
     <normal-type>32nd</normal-type>
    </time-modification>
    <stem>up</stem>
    <staff>2</staff>
    <beam number="1">end</beam>
    <beam number="2">end</beam>
    <beam number="3">end</beam>
    <notations>
     <tuplet type="stop" bracket="no" number="1" default-y="-20" placement="above" />
    </notations>
   </note>
   <note color="#000000" default-x="988" default-y="-17">
    <pitch>
     <step>C</step>
     <octave>2</octave>
    </pitch>
    <duration>32</duration>
    <instrument id="P1-I1" />
    <voice>3</voice>
    <type>32nd</type>
    <accidental>natural</accidental>
    <stem>up</stem>
    <staff>2</staff>
   </note>
   <note default-x="1028">
    <rest />
    <duration>224</duration>
    <instrument id="P1-I1" />
    <voice>3</voice>
    <type>eighth</type>
    <dot />
    <dot />
    <staff>2</staff>
   </note>
   <note default-x="1107">
    <rest />
    <duration>256</duration>
    <instrument id="P1-I1" />
    <voice>3</voice>
    <type>quarter</type>
    <staff>2</staff>
   </note>
  </measure>
 </part>
</score-partwise>
