<?xml version="1.0" encoding='UTF-8' standalone='no' ?>
<!DOCTYPE score-partwise PUBLIC "-//Recordare//DTD MusicXML 3.0 Partwise//EN" "http://www.musicxml.org/dtds/partwise.dtd">
<score-partwise version="3.0">
 <work>
  <work-title>Per non mi dir ch&apos;io moia (T41)</work-title>
 </work>
 <identification>
  <creator type="composer">Michelangelo Rossi</creator>
  <rights>Copyright © </rights>
  <encoding>
   <encoding-date>2020-11-16</encoding-date>
   <encoder>johke</encoder>
   <software>Sibelius 7.1.3</software>
   <software>Direct export, not from Dolet</software>
   <encoding-description>Sibelius / MusicXML 3.0</encoding-description>
   <supports element="print" type="yes" value="yes" attribute="new-system" />
   <supports element="print" type="yes" value="yes" attribute="new-page" />
   <supports element="accidental" type="yes" />
   <supports element="beam" type="yes" />
   <supports element="stem" type="yes" />
  </encoding>
 </identification>
 <defaults>
  <scaling>
   <millimeters>210</millimeters>
   <tenths>2400</tenths>
  </scaling>
  <page-layout>
   <page-height>3394</page-height>
   <page-width>2400</page-width>
   <page-margins type="both">
    <left-margin>145</left-margin>
    <right-margin>145</right-margin>
    <top-margin>145</top-margin>
    <bottom-margin>145</bottom-margin>
   </page-margins>
  </page-layout>
  <system-layout>
   <system-margins>
    <left-margin>71</left-margin>
    <right-margin>0</right-margin>
   </system-margins>
   <system-distance>120</system-distance>
  </system-layout>
  <appearance>
   <line-width type="stem">1.5625</line-width>
   <line-width type="beam">5</line-width>
   <line-width type="staff">0.9375</line-width>
   <line-width type="light barline">1.5625</line-width>
   <line-width type="heavy barline">5</line-width>
   <line-width type="leger">1.5625</line-width>
   <line-width type="ending">1.5625</line-width>
   <line-width type="wedge">1.25</line-width>
   <line-width type="enclosure">0.9375</line-width>
   <line-width type="tuplet bracket">1.25</line-width>
   <line-width type="bracket">5</line-width>
   <line-width type="dashes">1.5625</line-width>
   <line-width type="extend">0.9375</line-width>
   <line-width type="octave shift">1.5625</line-width>
   <line-width type="pedal">1.5625</line-width>
   <line-width type="slur middle">1.5625</line-width>
   <line-width type="slur tip">0.625</line-width>
   <line-width type="tie middle">1.5625</line-width>
   <line-width type="tie tip">0.625</line-width>
   <note-size type="cue">75</note-size>
   <note-size type="grace">60</note-size>
  </appearance>
  <music-font font-family="Opus Std" font-size="9.9213" />
  <lyric-font font-family="Times New Roman" font-size="5.9683" />
  <lyric-language xml:lang="en" />
 </defaults>
 <part-list>
  <part-group type="start" number="1">
   <group-symbol>brace</group-symbol>
  </part-group>
  <score-part id="P1">
   <part-name>Klavier</part-name>
   <part-name-display>
    <display-text>Klavier</display-text>
   </part-name-display>
   <part-abbreviation>Klav.</part-abbreviation>
   <part-abbreviation-display>
    <display-text>Klav.</display-text>
   </part-abbreviation-display>
   <score-instrument id="P1-I1">
    <instrument-name>Piano (2)</instrument-name>
    <instrument-sound>keyboard.piano.grand</instrument-sound>
    <solo />
    <virtual-instrument>
     <virtual-library>General MIDI</virtual-library>
     <virtual-name>Acoustic Piano</virtual-name>
    </virtual-instrument>
   </score-instrument>
  </score-part>
  <part-group type="stop" number="1" />
 </part-list>
 <part id="P1">
  <!--============== Part: P1, Measure: 1 ==============-->
  <measure number="1" width="575">
   <print new-page="yes">
    <system-layout>
     <system-margins>
      <left-margin>21</left-margin>
      <right-margin>0</right-margin>
     </system-margins>
     <top-system-distance>125</top-system-distance>
    </system-layout>
    <staff-layout number="5">
     <staff-distance>90</staff-distance>
    </staff-layout>
   </print>
   <attributes>
    <divisions>256</divisions>
    <key color="#000000">
     <fifths>0</fifths>
     <mode>none</mode>
    </key>
    <time color="#000000">
     <beats>4</beats>
     <beat-type>4</beat-type>
    </time>
    <staves>5</staves>
    <clef number="1" color="#000000">
     <sign>G</sign>
     <line>2</line>
    </clef>
    <clef number="2" color="#000000">
     <sign>G</sign>
     <line>2</line>
    </clef>
    <clef number="3" color="#000000">
     <sign>F</sign>
     <line>4</line>
    </clef>
    <clef number="4" color="#000000">
     <sign>F</sign>
     <line>4</line>
    </clef>
    <clef number="5" color="#000000">
     <sign>F</sign>
     <line>4</line>
    </clef>
    <staff-details number="1" print-object="yes" />
    <staff-details number="2" print-object="yes" />
    <staff-details number="3" print-object="yes" />
    <staff-details number="4" print-object="yes" />
    <staff-details number="5" print-object="yes" />
   </attributes>
   <direction>
    <direction-type>
     <words default-x="35" default-y="143" justify="left" valign="middle" font-family="Geneva" font-style="normal" font-size="5.9683" font-weight="normal">II.2 Ohimè se tanto amate, T. 1-3 / 9-11, brutale Phrasen.</words>
    </direction-type>
    <voice>1</voice>
    <staff>1</staff>
   </direction>
   <direction>
    <direction-type>
     <words default-x="55" default-y="100" justify="left" valign="middle" font-family="Times New Roman" font-style="normal" font-size="5.9683" font-weight="normal"> Ohimé T 1 - 3</words>
     <words justify="left" valign="middle" font-family="Times New Roman" font-style="normal" font-size="5.9683" font-weight="normal">1 Ton tiefer, ok</words>
    </direction-type>
    <voice>1</voice>
    <staff>1</staff>
   </direction>
   <direction>
    <direction-type>
     <metronome default-y="30" color="#000000" font-family="Opus Text Std" font-style="normal" font-size="8.9911" font-weight="normal">
      <beat-unit>quarter</beat-unit>
      <per-minute>100</per-minute>
     </metronome>
    </direction-type>
    <voice>1</voice>
    <staff>1</staff>
   </direction>
   <note color="#000000" default-x="61">
    <pitch>
     <step>A</step>
     <octave>4</octave>
    </pitch>
    <duration>1024</duration>
    <instrument id="P1-I1" />
    <voice>1</voice>
    <type>whole</type>
    <staff>1</staff>
    <lyric default-y="-80" number="part1verse1" color="#000000">
     <syllabic>begin</syllabic>
     <text>Ohi</text>
    </lyric>
   </note>
   <note color="#000000" default-x="283" default-y="5">
    <pitch>
     <step>G</step>
     <alter>1</alter>
     <octave>4</octave>
    </pitch>
    <duration>512</duration>
    <instrument id="P1-I1" />
    <voice>1</voice>
    <type>half</type>
    <accidental>sharp</accidental>
    <stem>up</stem>
    <staff>1</staff>
    <lyric default-y="-80" number="part1verse1" color="#000000">
     <syllabic>end</syllabic>
     <text>mè</text>
    </lyric>
   </note>
   <note default-x="417">
    <rest />
    <duration>256</duration>
    <instrument id="P1-I1" />
    <voice>1</voice>
    <type>quarter</type>
    <staff>1</staff>
   </note>
   <note color="#000000" default-x="495" default-y="10">
    <pitch>
     <step>A</step>
     <octave>4</octave>
    </pitch>
    <duration>256</duration>
    <instrument id="P1-I1" />
    <voice>1</voice>
    <type>quarter</type>
    <stem>up</stem>
    <staff>1</staff>
    <lyric default-y="-80" number="part1verse1" color="#000000">
     <syllabic>single</syllabic>
     <text>se</text>
    </lyric>
   </note>
   <backup>
    <duration>2048</duration>
   </backup>
   <note color="#000000" default-x="61">
    <pitch>
     <step>F</step>
     <alter>1</alter>
     <octave>4</octave>
    </pitch>
    <duration>1024</duration>
    <instrument id="P1-I1" />
    <voice>2</voice>
    <type>whole</type>
    <accidental>sharp</accidental>
    <staff>2</staff>
    <lyric default-y="-81" number="part2verse1" color="#000000">
     <syllabic>begin</syllabic>
     <text>Ohi</text>
    </lyric>
   </note>
   <note color="#000000" default-x="283" default-y="-5">
    <pitch>
     <step>E</step>
     <alter>1</alter>
     <octave>4</octave>
    </pitch>
    <duration>512</duration>
    <instrument id="P1-I1" />
    <voice>2</voice>
    <type>half</type>
    <accidental>sharp</accidental>
    <stem>up</stem>
    <staff>2</staff>
    <lyric default-y="-81" number="part2verse1" color="#000000">
     <syllabic>end</syllabic>
     <text>mè</text>
    </lyric>
   </note>
   <note default-x="417">
    <rest />
    <duration>256</duration>
    <instrument id="P1-I1" />
    <voice>2</voice>
    <type>quarter</type>
    <staff>2</staff>
   </note>
   <note color="#000000" default-x="495">
    <pitch>
     <step>F</step>
     <alter>1</alter>
     <octave>4</octave>
    </pitch>
    <duration>256</duration>
    <instrument id="P1-I1" />
    <voice>2</voice>
    <type>quarter</type>
    <accidental>sharp</accidental>
    <stem>up</stem>
    <staff>2</staff>
    <lyric default-y="-81" number="part2verse1" color="#000000">
     <syllabic>single</syllabic>
     <text>se</text>
    </lyric>
   </note>
   <backup>
    <duration>2048</duration>
   </backup>
   <note color="#000000" default-x="61" default-y="-25">
    <pitch>
     <step>C</step>
     <alter>1</alter>
     <octave>4</octave>
    </pitch>
    <duration>960</duration>
    <instrument id="P1-I1" />
    <voice>3</voice>
    <type>half</type>
    <dot />
    <dot />
    <dot />
    <accidental>sharp</accidental>
    <stem>down</stem>
    <staff>3</staff>
    <lyric default-y="-80" number="part3verse1" color="#000000">
     <syllabic>begin</syllabic>
     <text>Ohi</text>
    </lyric>
   </note>
   <note default-x="239">
    <rest />
    <duration>64</duration>
    <instrument id="P1-I1" />
    <voice>3</voice>
    <type>16th</type>
    <staff>3</staff>
   </note>
   <note color="#000000" default-x="283" default-y="-25">
    <pitch>
     <step>C</step>
     <alter>1</alter>
     <octave>4</octave>
    </pitch>
    <duration>512</duration>
    <instrument id="P1-I1" />
    <voice>3</voice>
    <type>half</type>
    <accidental>sharp</accidental>
    <stem>down</stem>
    <staff>3</staff>
    <lyric default-y="-80" number="part3verse1" color="#000000">
     <syllabic>end</syllabic>
     <text>mè</text>
    </lyric>
   </note>
   <note default-x="417">
    <rest />
    <duration>256</duration>
    <instrument id="P1-I1" />
    <voice>3</voice>
    <type>quarter</type>
    <staff>3</staff>
   </note>
   <note color="#000000" default-x="495" default-y="-25">
    <pitch>
     <step>C</step>
     <alter>1</alter>
     <octave>4</octave>
    </pitch>
    <duration>256</duration>
    <instrument id="P1-I1" />
    <voice>3</voice>
    <type>quarter</type>
    <accidental>sharp</accidental>
    <stem>down</stem>
    <staff>3</staff>
    <lyric default-y="-80" number="part3verse1" color="#000000">
     <syllabic>single</syllabic>
     <text>se</text>
    </lyric>
   </note>
   <backup>
    <duration>2048</duration>
   </backup>
   <note default-x="61">
    <rest />
    <duration>2048</duration>
    <instrument id="P1-I1" />
    <voice>4</voice>
    <type>whole</type>
    <staff>4</staff>
   </note>
   <backup>
    <duration>2048</duration>
   </backup>
   <note color="#000000" default-x="61">
    <pitch>
     <step>F</step>
     <alter>1</alter>
     <octave>3</octave>
    </pitch>
    <duration>1024</duration>
    <instrument id="P1-I1" />
    <voice>5</voice>
    <type>whole</type>
    <accidental>sharp</accidental>
    <staff>5</staff>
    <lyric default-y="-80" number="part5verse1" color="#000000">
     <syllabic>begin</syllabic>
     <text>Ohi</text>
    </lyric>
   </note>
   <note color="#000000" default-x="283" default-y="10">
    <pitch>
     <step>C</step>
     <alter>1</alter>
     <octave>3</octave>
    </pitch>
    <duration>512</duration>
    <instrument id="P1-I1" />
    <voice>5</voice>
    <type>half</type>
    <accidental>sharp</accidental>
    <stem>up</stem>
    <staff>5</staff>
    <lyric default-y="-80" number="part5verse1" color="#000000">
     <syllabic>end</syllabic>
     <text>mè</text>
    </lyric>
   </note>
   <note default-x="417">
    <rest />
    <duration>256</duration>
    <instrument id="P1-I1" />
    <voice>5</voice>
    <type>quarter</type>
    <staff>5</staff>
   </note>
   <note color="#000000" default-x="495" default-y="-45">
    <pitch>
     <step>F</step>
     <alter>1</alter>
     <octave>3</octave>
    </pitch>
    <duration>256</duration>
    <instrument id="P1-I1" />
    <voice>5</voice>
    <type>quarter</type>
    <accidental>sharp</accidental>
    <stem>down</stem>
    <staff>5</staff>
    <lyric default-y="-80" number="part5verse1" color="#000000">
     <syllabic>single</syllabic>
     <text>se</text>
    </lyric>
   </note>
  </measure>
  <!--============== Part: P1, Measure: 2 ==============-->
  <measure number="2" width="699">
   <attributes />
   <note color="#000000" default-x="15" default-y="-55">
    <pitch>
     <step>B</step>
     <octave>4</octave>
    </pitch>
    <duration>256</duration>
    <instrument id="P1-I1" />
    <voice>1</voice>
    <type>quarter</type>
    <stem>down</stem>
    <staff>1</staff>
    <lyric default-y="-80" number="part1verse1" color="#000000">
     <syllabic>begin</syllabic>
     <text>tan</text>
    </lyric>
   </note>
   <note color="#000000" default-x="129" default-y="-50">
    <pitch>
     <step>C</step>
     <octave>5</octave>
    </pitch>
    <duration>256</duration>
    <instrument id="P1-I1" />
    <voice>1</voice>
    <type>quarter</type>
    <stem>down</stem>
    <staff>1</staff>
    <lyric default-y="-80" number="part1verse1" color="#000000">
     <syllabic>middle</syllabic>
     <text>to&apos;a</text>
    </lyric>
   </note>
   <note color="#000000" default-x="208" default-y="10">
    <pitch>
     <step>A</step>
     <octave>4</octave>
    </pitch>
    <duration>512</duration>
    <instrument id="P1-I1" />
    <voice>1</voice>
    <type>half</type>
    <stem>up</stem>
    <staff>1</staff>
    <lyric default-y="-80" number="part1verse1" color="#000000">
     <syllabic>middle</syllabic>
     <text>man</text>
    </lyric>
   </note>
   <note color="#000000" default-x="372" default-y="-55">
    <pitch>
     <step>B</step>
     <alter>-1</alter>
     <octave>4</octave>
    </pitch>
    <duration>512</duration>
    <instrument id="P1-I1" />
    <voice>1</voice>
    <type>half</type>
    <accidental>flat</accidental>
    <stem>down</stem>
    <staff>1</staff>
    <lyric default-y="-80" number="part1verse1" color="#000000">
     <syllabic>end</syllabic>
     <text>te</text>
    </lyric>
   </note>
   <note color="#000000" default-x="506" default-y="5">
    <pitch>
     <step>G</step>
     <alter>-1</alter>
     <octave>4</octave>
    </pitch>
    <duration>256</duration>
    <instrument id="P1-I1" />
    <voice>1</voice>
    <type>quarter</type>
    <accidental>flat</accidental>
    <stem>up</stem>
    <staff>1</staff>
    <lyric default-y="-80" number="part1verse1" color="#000000">
     <syllabic>single</syllabic>
     <text>di</text>
    </lyric>
   </note>
   <note color="#000000" default-x="585" default-y="10">
    <pitch>
     <step>A</step>
     <alter>-1</alter>
     <octave>4</octave>
    </pitch>
    <duration>256</duration>
    <instrument id="P1-I1" />
    <voice>1</voice>
    <type>quarter</type>
    <accidental>flat</accidental>
    <stem>up</stem>
    <staff>1</staff>
    <lyric default-y="-80" number="part1verse1" color="#000000">
     <syllabic>begin</syllabic>
     <text>sen</text>
    </lyric>
   </note>
   <backup>
    <duration>2048</duration>
   </backup>
   <note color="#000000" default-x="15" default-y="-20">
    <pitch>
     <step>G</step>
     <octave>4</octave>
    </pitch>
    <duration>224</duration>
    <instrument id="P1-I1" />
    <voice>2</voice>
    <type>eighth</type>
    <dot />
    <dot />
    <stem>up</stem>
    <staff>2</staff>
    <lyric default-y="-81" number="part2verse1" color="#000000">
     <syllabic>begin</syllabic>
     <text>tan</text>
    </lyric>
   </note>
   <note default-x="91">
    <rest />
    <duration>32</duration>
    <instrument id="P1-I1" />
    <voice>2</voice>
    <type>32nd</type>
    <staff>2</staff>
   </note>
   <note color="#000000" default-x="129" default-y="5">
    <pitch>
     <step>G</step>
     <octave>4</octave>
    </pitch>
    <duration>256</duration>
    <instrument id="P1-I1" />
    <voice>2</voice>
    <type>quarter</type>
    <stem>up</stem>
    <staff>2</staff>
    <lyric default-y="-81" number="part2verse1" color="#000000">
     <syllabic>middle</syllabic>
     <text>to&apos;a</text>
    </lyric>
   </note>
   <note color="#000000" default-x="208">
    <pitch>
     <step>F</step>
     <octave>4</octave>
    </pitch>
    <duration>480</duration>
    <instrument id="P1-I1" />
    <voice>2</voice>
    <type>quarter</type>
    <dot />
    <dot />
    <dot />
    <stem>up</stem>
    <staff>2</staff>
    <lyric default-y="-81" number="part2verse1" color="#000000">
     <syllabic>middle</syllabic>
     <text>man</text>
    </lyric>
   </note>
   <note default-x="335">
    <rest />
    <duration>32</duration>
    <instrument id="P1-I1" />
    <voice>2</voice>
    <type>32nd</type>
    <staff>2</staff>
   </note>
   <note color="#000000" default-x="372">
    <pitch>
     <step>F</step>
     <octave>4</octave>
    </pitch>
    <duration>512</duration>
    <instrument id="P1-I1" />
    <voice>2</voice>
    <type>half</type>
    <stem>up</stem>
    <staff>2</staff>
    <lyric default-y="-81" number="part2verse1" color="#000000">
     <syllabic>end</syllabic>
     <text>te</text>
    </lyric>
   </note>
   <note color="#000000" default-x="506" default-y="-10">
    <pitch>
     <step>D</step>
     <alter>1</alter>
     <octave>4</octave>
    </pitch>
    <duration>256</duration>
    <instrument id="P1-I1" />
    <voice>2</voice>
    <type>quarter</type>
    <accidental>three-quarters-sharp</accidental>
    <stem>up</stem>
    <staff>2</staff>
    <lyric default-y="-81" number="part2verse1" color="#000000">
     <syllabic>single</syllabic>
     <text>di</text>
    </lyric>
   </note>
   <note color="#000000" default-x="585" default-y="-20">
    <pitch>
     <step>E</step>
     <alter>-1</alter>
     <octave>4</octave>
    </pitch>
    <duration>224</duration>
    <instrument id="P1-I1" />
    <voice>2</voice>
    <type>eighth</type>
    <dot />
    <dot />
    <accidental>flat</accidental>
    <stem>up</stem>
    <staff>2</staff>
    <lyric default-y="-81" number="part2verse1" color="#000000">
     <syllabic>begin</syllabic>
     <text>sen</text>
    </lyric>
   </note>
   <note default-x="662">
    <rest />
    <duration>32</duration>
    <instrument id="P1-I1" />
    <voice>2</voice>
    <type>32nd</type>
    <staff>2</staff>
   </note>
   <backup>
    <duration>2048</duration>
   </backup>
   <note color="#000000" default-x="15" default-y="-20">
    <pitch>
     <step>E</step>
     <octave>4</octave>
    </pitch>
    <duration>224</duration>
    <instrument id="P1-I1" />
    <voice>3</voice>
    <type>eighth</type>
    <dot />
    <dot />
    <stem>down</stem>
    <staff>3</staff>
    <lyric default-y="-80" number="part3verse1" color="#000000">
     <syllabic>begin</syllabic>
     <text>tan</text>
    </lyric>
   </note>
   <note default-x="91">
    <rest />
    <duration>32</duration>
    <instrument id="P1-I1" />
    <voice>3</voice>
    <type>32nd</type>
    <staff>3</staff>
   </note>
   <note color="#000000" default-x="129" default-y="-20">
    <pitch>
     <step>E</step>
     <octave>4</octave>
    </pitch>
    <duration>256</duration>
    <instrument id="P1-I1" />
    <voice>3</voice>
    <type>quarter</type>
    <stem>down</stem>
    <staff>3</staff>
    <lyric default-y="-80" number="part3verse1" color="#000000">
     <syllabic>middle</syllabic>
     <text>to&apos;a</text>
    </lyric>
   </note>
   <note color="#000000" default-x="208" default-y="-25">
    <pitch>
     <step>C</step>
     <octave>4</octave>
    </pitch>
    <duration>512</duration>
    <instrument id="P1-I1" />
    <voice>3</voice>
    <type>half</type>
    <stem>down</stem>
    <staff>3</staff>
    <lyric default-y="-80" number="part3verse1" color="#000000">
     <syllabic>middle</syllabic>
     <text>man</text>
    </lyric>
   </note>
   <note color="#000000" default-x="372" default-y="-20">
    <pitch>
     <step>D</step>
     <octave>4</octave>
    </pitch>
    <duration>512</duration>
    <instrument id="P1-I1" />
    <voice>3</voice>
    <type>half</type>
    <stem>down</stem>
    <staff>3</staff>
    <lyric default-y="-80" number="part3verse1" color="#000000">
     <syllabic>end</syllabic>
     <text>te</text>
    </lyric>
   </note>
   <note color="#000000" default-x="506" default-y="-30">
    <pitch>
     <step>B</step>
     <alter>-1</alter>
     <octave>3</octave>
    </pitch>
    <duration>256</duration>
    <instrument id="P1-I1" />
    <voice>3</voice>
    <type>quarter</type>
    <accidental>flat</accidental>
    <stem>down</stem>
    <staff>3</staff>
    <lyric default-y="-80" number="part3verse1" color="#000000">
     <syllabic>single</syllabic>
     <text>di</text>
    </lyric>
   </note>
   <note color="#000000" default-x="585" default-y="-20">
    <pitch>
     <step>C</step>
     <octave>4</octave>
    </pitch>
    <duration>224</duration>
    <instrument id="P1-I1" />
    <voice>3</voice>
    <type>eighth</type>
    <dot />
    <dot />
    <stem>down</stem>
    <staff>3</staff>
    <lyric default-y="-80" number="part3verse1" color="#000000">
     <syllabic>begin</syllabic>
     <text>sen</text>
    </lyric>
   </note>
   <note default-x="662">
    <rest />
    <duration>32</duration>
    <instrument id="P1-I1" />
    <voice>3</voice>
    <type>32nd</type>
    <staff>3</staff>
   </note>
   <backup>
    <duration>2048</duration>
   </backup>
   <note default-x="15">
    <rest />
    <duration>2048</duration>
    <instrument id="P1-I1" />
    <voice>4</voice>
    <type>whole</type>
    <staff>4</staff>
   </note>
   <backup>
    <duration>2048</duration>
   </backup>
   <note color="#000000" default-x="15" default-y="-50">
    <pitch>
     <step>E</step>
     <octave>3</octave>
    </pitch>
    <duration>256</duration>
    <instrument id="P1-I1" />
    <voice>5</voice>
    <type>quarter</type>
    <stem>down</stem>
    <staff>5</staff>
    <lyric default-y="-80" number="part5verse1" color="#000000">
     <syllabic>begin</syllabic>
     <text>tan</text>
    </lyric>
   </note>
   <note color="#000000" default-x="129" default-y="10">
    <pitch>
     <step>C</step>
     <octave>3</octave>
    </pitch>
    <duration>256</duration>
    <instrument id="P1-I1" />
    <voice>5</voice>
    <type>quarter</type>
    <stem>up</stem>
    <staff>5</staff>
    <lyric default-y="-80" number="part5verse1" color="#000000">
     <syllabic>middle</syllabic>
     <text>to&apos;a</text>
    </lyric>
   </note>
   <note color="#000000" default-x="208" default-y="-45">
    <pitch>
     <step>F</step>
     <octave>3</octave>
    </pitch>
    <duration>512</duration>
    <instrument id="P1-I1" />
    <voice>5</voice>
    <type>half</type>
    <stem>down</stem>
    <staff>5</staff>
    <lyric default-y="-80" number="part5verse1" color="#000000">
     <syllabic>middle</syllabic>
     <text>man</text>
    </lyric>
   </note>
   <note color="#000000" default-x="372" default-y="-55">
    <pitch>
     <step>D</step>
     <octave>3</octave>
    </pitch>
    <duration>512</duration>
    <instrument id="P1-I1" />
    <voice>5</voice>
    <type>half</type>
    <stem>down</stem>
    <staff>5</staff>
    <lyric default-y="-80" number="part5verse1" color="#000000">
     <syllabic>end</syllabic>
     <text>te</text>
    </lyric>
   </note>
   <note color="#000000" default-x="506" default-y="-55">
    <pitch>
     <step>D</step>
     <alter>1</alter>
     <octave>3</octave>
    </pitch>
    <duration>256</duration>
    <instrument id="P1-I1" />
    <voice>5</voice>
    <type>quarter</type>
    <accidental>three-quarters-sharp</accidental>
    <stem>down</stem>
    <staff>5</staff>
    <lyric default-y="-80" number="part5verse1" color="#000000">
     <syllabic>single</syllabic>
     <text>di</text>
    </lyric>
   </note>
   <note color="#000000" default-x="585" default-y="10">
    <pitch>
     <step>C</step>
     <octave>3</octave>
    </pitch>
    <duration>256</duration>
    <instrument id="P1-I1" />
    <voice>5</voice>
    <type>quarter</type>
    <stem>up</stem>
    <staff>5</staff>
    <lyric default-y="-80" number="part5verse1" color="#000000">
     <syllabic>begin</syllabic>
     <text>sen</text>
    </lyric>
   </note>
  </measure>
  <!--============== Part: P1, Measure: 3 ==============-->
  <measure number="3" width="542">
   <attributes />
   <note color="#000000" default-x="15">
    <pitch>
     <step>F</step>
     <octave>4</octave>
    </pitch>
    <duration>480</duration>
    <instrument id="P1-I1" />
    <voice>1</voice>
    <type>quarter</type>
    <dot />
    <dot />
    <dot />
    <stem>up</stem>
    <staff>1</staff>
    <lyric default-y="-80" number="part1verse1" color="#000000">
     <syllabic>end</syllabic>
     <text>tir</text>
    </lyric>
   </note>
   <note default-x="163">
    <rest />
    <duration>32</duration>
    <instrument id="P1-I1" />
    <voice>1</voice>
    <type>32nd</type>
    <staff>1</staff>
   </note>
   <note color="#000000" default-x="200">
    <pitch>
     <step>F</step>
     <octave>4</octave>
    </pitch>
    <duration>256</duration>
    <instrument id="P1-I1" />
    <voice>1</voice>
    <type>quarter</type>
    <stem>up</stem>
    <staff>1</staff>
    <lyric default-y="-80" number="part1verse1" color="#000000">
     <syllabic>single</syllabic>
     <text>dir</text>
    </lyric>
   </note>
   <note color="#000000" default-x="279" default-y="5">
    <pitch>
     <step>G</step>
     <octave>4</octave>
    </pitch>
    <duration>256</duration>
    <instrument id="P1-I1" />
    <voice>1</voice>
    <type>quarter</type>
    <stem>up</stem>
    <staff>1</staff>
    <lyric default-y="-80" number="part1verse1" color="#000000">
     <syllabic>begin</syllabic>
     <text>&quot;ohi</text>
    </lyric>
   </note>
   <note color="#000000" default-x="358">
    <pitch>
     <step>G</step>
     <alter>1</alter>
     <octave>4</octave>
    </pitch>
    <duration>1024</duration>
    <instrument id="P1-I1" />
    <voice>1</voice>
    <type>whole</type>
    <accidental>sharp</accidental>
    <staff>1</staff>
    <lyric default-y="-80" number="part1verse1" color="#000000">
     <syllabic>end</syllabic>
     <text>mè&quot;</text>
    </lyric>
   </note>
   <backup>
    <duration>2048</duration>
   </backup>
   <note color="#000000" default-x="15" default-y="-5">
    <pitch>
     <step>E</step>
     <alter>-1</alter>
     <octave>4</octave>
    </pitch>
    <duration>256</duration>
    <instrument id="P1-I1" />
    <voice>2</voice>
    <type>quarter</type>
    <accidental>flat</accidental>
    <stem>up</stem>
    <staff>2</staff>
    <lyric default-y="-81" number="part2verse1" color="#000000">
     <syllabic>end</syllabic>
     <text>tir</text>
    </lyric>
   </note>
   <note color="#000000" default-x="94" default-y="-10">
    <pitch>
     <step>D</step>
     <alter>1</alter>
     <octave>4</octave>
    </pitch>
    <duration>256</duration>
    <instrument id="P1-I1" />
    <voice>2</voice>
    <type>quarter</type>
    <accidental>sharp</accidental>
    <stem>up</stem>
    <staff>2</staff>
   </note>
   <note color="#000000" default-x="200" default-y="-10">
    <pitch>
     <step>D</step>
     <alter>-1</alter>
     <octave>4</octave>
    </pitch>
    <duration>256</duration>
    <instrument id="P1-I1" />
    <voice>2</voice>
    <type>quarter</type>
    <accidental>flat</accidental>
    <stem>up</stem>
    <staff>2</staff>
    <lyric default-y="-81" number="part2verse1" color="#000000">
     <syllabic>single</syllabic>
     <text>dir</text>
    </lyric>
   </note>
   <note color="#000000" default-x="279" default-y="-10">
    <pitch>
     <step>D</step>
     <alter>0</alter>
     <octave>4</octave>
    </pitch>
    <duration>256</duration>
    <instrument id="P1-I1" />
    <voice>2</voice>
    <type>quarter</type>
    <accidental>quarter-sharp</accidental>
    <stem>up</stem>
    <staff>2</staff>
    <lyric default-y="-81" number="part2verse1" color="#000000">
     <syllabic>begin</syllabic>
     <text>&quot;ohi</text>
    </lyric>
   </note>
   <note color="#000000" default-x="358">
    <pitch>
     <step>E</step>
     <octave>4</octave>
    </pitch>
    <duration>1024</duration>
    <instrument id="P1-I1" />
    <voice>2</voice>
    <type>whole</type>
    <accidental>natural</accidental>
    <staff>2</staff>
    <lyric default-y="-81" number="part2verse1" color="#000000">
     <syllabic>end</syllabic>
     <text>mè&quot;</text>
    </lyric>
   </note>
   <backup>
    <duration>2048</duration>
   </backup>
   <note color="#000000" default-x="15" default-y="-25">
    <pitch>
     <step>C</step>
     <octave>4</octave>
    </pitch>
    <duration>512</duration>
    <instrument id="P1-I1" />
    <voice>3</voice>
    <type>half</type>
    <stem>down</stem>
    <staff>3</staff>
    <lyric default-y="-80" number="part3verse1" color="#000000">
     <syllabic>end</syllabic>
     <text>tir</text>
    </lyric>
   </note>
   <note color="#000000" default-x="200" default-y="-30">
    <pitch>
     <step>B</step>
     <alter>-1</alter>
     <octave>3</octave>
    </pitch>
    <duration>256</duration>
    <instrument id="P1-I1" />
    <voice>3</voice>
    <type>quarter</type>
    <accidental>flat</accidental>
    <stem>down</stem>
    <staff>3</staff>
    <lyric default-y="-80" number="part3verse1" color="#000000">
     <syllabic>single</syllabic>
     <text>dir</text>
    </lyric>
   </note>
   <note color="#000000" default-x="279" default-y="-30">
    <pitch>
     <step>B</step>
     <octave>3</octave>
    </pitch>
    <duration>256</duration>
    <instrument id="P1-I1" />
    <voice>3</voice>
    <type>quarter</type>
    <accidental>natural</accidental>
    <stem>down</stem>
    <staff>3</staff>
    <lyric default-y="-80" number="part3verse1" color="#000000">
     <syllabic>begin</syllabic>
     <text>&quot;ohi</text>
    </lyric>
   </note>
   <note color="#000000" default-x="358">
    <pitch>
     <step>B</step>
     <octave>3</octave>
    </pitch>
    <duration>1024</duration>
    <instrument id="P1-I1" />
    <voice>3</voice>
    <type>whole</type>
    <accidental>natural</accidental>
    <staff>3</staff>
    <lyric default-y="-80" number="part3verse1" color="#000000">
     <syllabic>end</syllabic>
     <text>mè&quot;</text>
    </lyric>
   </note>
   <backup>
    <duration>2048</duration>
   </backup>
   <note default-x="15">
    <rest />
    <duration>2048</duration>
    <instrument id="P1-I1" />
    <voice>4</voice>
    <type>whole</type>
    <staff>4</staff>
   </note>
   <backup>
    <duration>2048</duration>
   </backup>
   <note color="#000000" default-x="15">
    <pitch>
     <step>A</step>
     <octave>2</octave>
    </pitch>
    <duration>512</duration>
    <instrument id="P1-I1" />
    <voice>5</voice>
    <type>half</type>
    <stem>up</stem>
    <staff>5</staff>
    <lyric default-y="-80" number="part5verse1" color="#000000">
     <syllabic>end</syllabic>
     <text>tir</text>
    </lyric>
   </note>
   <note color="#000000" default-x="200" default-y="5">
    <pitch>
     <step>B</step>
     <alter>-1</alter>
     <octave>2</octave>
    </pitch>
    <duration>256</duration>
    <instrument id="P1-I1" />
    <voice>5</voice>
    <type>quarter</type>
    <accidental>flat</accidental>
    <stem>up</stem>
    <staff>5</staff>
    <lyric default-y="-80" number="part5verse1" color="#000000">
     <syllabic>single</syllabic>
     <text>dir</text>
    </lyric>
   </note>
   <note color="#000000" default-x="279" default-y="-5">
    <pitch>
     <step>G</step>
     <octave>2</octave>
    </pitch>
    <duration>256</duration>
    <instrument id="P1-I1" />
    <voice>5</voice>
    <type>quarter</type>
    <stem>up</stem>
    <staff>5</staff>
    <lyric default-y="-80" number="part5verse1" color="#000000">
     <syllabic>begin</syllabic>
     <text>&quot;ohi</text>
    </lyric>
   </note>
   <note color="#000000" default-x="358">
    <pitch>
     <step>E</step>
     <octave>2</octave>
    </pitch>
    <duration>1024</duration>
    <instrument id="P1-I1" />
    <voice>5</voice>
    <type>whole</type>
    <staff>5</staff>
    <lyric default-y="-80" number="part5verse1" color="#000000">
     <syllabic>end</syllabic>
     <text>mè&quot;</text>
    </lyric>
   </note>
  </measure>
  <!--============== Part: P1, Measure: 4 ==============-->
  <measure number="4" width="270">
   <attributes />
   <note>
    <rest />
    <duration>1024</duration>
    <instrument id="P1-I1" />
    <voice>1</voice>
    <type>whole</type>
    <staff>1</staff>
   </note>
   <backup>
    <duration>1024</duration>
   </backup>
   <note>
    <rest />
    <duration>1024</duration>
    <instrument id="P1-I1" />
    <voice>2</voice>
    <type>whole</type>
    <staff>2</staff>
   </note>
   <backup>
    <duration>1024</duration>
   </backup>
   <note>
    <rest />
    <duration>1024</duration>
    <instrument id="P1-I1" />
    <voice>3</voice>
    <type>whole</type>
    <staff>3</staff>
   </note>
   <backup>
    <duration>1024</duration>
   </backup>
   <note>
    <rest />
    <duration>1024</duration>
    <instrument id="P1-I1" />
    <voice>4</voice>
    <type>whole</type>
    <staff>4</staff>
   </note>
   <backup>
    <duration>1024</duration>
   </backup>
   <note>
    <rest />
    <duration>1024</duration>
    <instrument id="P1-I1" />
    <voice>5</voice>
    <type>whole</type>
    <staff>5</staff>
   </note>
  </measure>
  <!--============== Part: P1, Measure: 5 ==============-->
  <measure number="5" width="573">
   <print new-system="yes">
    <system-layout>
     <system-margins>
      <left-margin>21</left-margin>
      <right-margin>0</right-margin>
     </system-margins>
     <system-distance>120</system-distance>
    </system-layout>
    <staff-layout number="5">
     <staff-distance>90</staff-distance>
    </staff-layout>
   </print>
   <attributes>
    <staff-details number="1" print-object="yes" />
    <staff-details number="2" print-object="yes" />
    <staff-details number="3" print-object="yes" />
    <staff-details number="4" print-object="yes" />
    <staff-details number="5" print-object="yes" />
   </attributes>
   <direction>
    <direction-type>
     <words default-x="56" default-y="116" justify="left" valign="middle" font-family="Times New Roman" font-style="normal" font-size="5.9683" font-weight="normal"> Ohimé T 9 - 11</words>
     <words justify="left" valign="middle" font-family="Times New Roman" font-style="normal" font-size="5.9683" font-weight="normal">ok</words>
    </direction-type>
    <voice>1</voice>
    <staff>1</staff>
   </direction>
   <direction>
    <direction-type>
     <metronome default-y="30" color="#000000" font-family="Opus Text Std" font-style="normal" font-size="8.9911" font-weight="normal">
      <beat-unit>quarter</beat-unit>
      <per-minute>100</per-minute>
     </metronome>
    </direction-type>
    <voice>1</voice>
    <staff>1</staff>
   </direction>
   <note color="#000000" default-x="62">
    <pitch>
     <step>C</step>
     <alter>1</alter>
     <octave>5</octave>
    </pitch>
    <duration>1024</duration>
    <instrument id="P1-I1" />
    <voice>1</voice>
    <type>whole</type>
    <accidental>sharp</accidental>
    <staff>1</staff>
    <lyric default-y="-80" number="part1verse1" color="#000000">
     <syllabic>begin</syllabic>
     <text>Ohi</text>
    </lyric>
   </note>
   <note color="#000000" default-x="247" default-y="-55">
    <pitch>
     <step>B</step>
     <alter>1</alter>
     <octave>4</octave>
    </pitch>
    <duration>512</duration>
    <instrument id="P1-I1" />
    <voice>1</voice>
    <type>half</type>
    <accidental>sharp</accidental>
    <stem>down</stem>
    <staff>1</staff>
    <lyric default-y="-80" number="part1verse1" color="#000000">
     <syllabic>end</syllabic>
     <text>mè</text>
    </lyric>
   </note>
   <note default-x="382">
    <rest />
    <duration>256</duration>
    <instrument id="P1-I1" />
    <voice>1</voice>
    <type>quarter</type>
    <staff>1</staff>
   </note>
   <note color="#000000" default-x="461" default-y="-20">
    <pitch>
     <step>C</step>
     <alter>1</alter>
     <octave>5</octave>
    </pitch>
    <duration>224</duration>
    <instrument id="P1-I1" />
    <voice>1</voice>
    <type>eighth</type>
    <dot />
    <dot />
    <accidental>sharp</accidental>
    <stem>down</stem>
    <staff>1</staff>
    <lyric default-y="-80" number="part1verse1" color="#000000">
     <syllabic>single</syllabic>
     <text>se</text>
    </lyric>
   </note>
   <note default-x="535">
    <rest />
    <duration>32</duration>
    <instrument id="P1-I1" />
    <voice>1</voice>
    <type>32nd</type>
    <staff>1</staff>
   </note>
   <backup>
    <duration>2048</duration>
   </backup>
   <note color="#000000" default-x="62">
    <pitch>
     <step>G</step>
     <alter>1</alter>
     <octave>4</octave>
    </pitch>
    <duration>1024</duration>
    <instrument id="P1-I1" />
    <voice>2</voice>
    <type>whole</type>
    <accidental>sharp</accidental>
    <staff>2</staff>
    <lyric default-y="-80" number="part2verse1" color="#000000">
     <syllabic>begin</syllabic>
     <text>Ohi</text>
    </lyric>
   </note>
   <note color="#000000" default-x="247" default-y="5">
    <pitch>
     <step>G</step>
     <alter>1</alter>
     <octave>4</octave>
    </pitch>
    <duration>512</duration>
    <instrument id="P1-I1" />
    <voice>2</voice>
    <type>half</type>
    <accidental>sharp</accidental>
    <stem>up</stem>
    <staff>2</staff>
    <lyric default-y="-80" number="part2verse1" color="#000000">
     <syllabic>end</syllabic>
     <text>mè</text>
    </lyric>
   </note>
   <note default-x="382">
    <rest />
    <duration>256</duration>
    <instrument id="P1-I1" />
    <voice>2</voice>
    <type>quarter</type>
    <staff>2</staff>
   </note>
   <note color="#000000" default-x="461" default-y="5">
    <pitch>
     <step>G</step>
     <alter>1</alter>
     <octave>4</octave>
    </pitch>
    <duration>256</duration>
    <instrument id="P1-I1" />
    <voice>2</voice>
    <type>quarter</type>
    <accidental>sharp</accidental>
    <stem>up</stem>
    <staff>2</staff>
    <lyric default-y="-80" number="part2verse1" color="#000000">
     <syllabic>single</syllabic>
     <text>se</text>
    </lyric>
   </note>
   <backup>
    <duration>2048</duration>
   </backup>
   <note color="#000000" default-x="62">
    <pitch>
     <step>E</step>
     <octave>4</octave>
    </pitch>
    <duration>1024</duration>
    <instrument id="P1-I1" />
    <voice>3</voice>
    <type>whole</type>
    <staff>3</staff>
    <lyric default-y="-80" number="part3verse1" color="#000000">
     <syllabic>begin</syllabic>
     <text>Ohi</text>
    </lyric>
   </note>
   <note color="#000000" default-x="247" default-y="-20">
    <pitch>
     <step>D</step>
     <alter>1</alter>
     <octave>4</octave>
    </pitch>
    <duration>512</duration>
    <instrument id="P1-I1" />
    <voice>3</voice>
    <type>half</type>
    <accidental>sharp</accidental>
    <stem>down</stem>
    <staff>3</staff>
    <lyric default-y="-80" number="part3verse1" color="#000000">
     <syllabic>end</syllabic>
     <text>mè</text>
    </lyric>
   </note>
   <note default-x="382">
    <rest />
    <duration>256</duration>
    <instrument id="P1-I1" />
    <voice>3</voice>
    <type>quarter</type>
    <staff>3</staff>
   </note>
   <note color="#000000" default-x="461" default-y="-20">
    <pitch>
     <step>E</step>
     <octave>4</octave>
    </pitch>
    <duration>224</duration>
    <instrument id="P1-I1" />
    <voice>3</voice>
    <type>eighth</type>
    <dot />
    <dot />
    <stem>down</stem>
    <staff>3</staff>
    <lyric default-y="-80" number="part3verse1" color="#000000">
     <syllabic>single</syllabic>
     <text>se</text>
    </lyric>
   </note>
   <note default-x="535">
    <rest />
    <duration>32</duration>
    <instrument id="P1-I1" />
    <voice>3</voice>
    <type>32nd</type>
    <staff>3</staff>
   </note>
   <backup>
    <duration>2048</duration>
   </backup>
   <note color="#000000" default-x="62">
    <pitch>
     <step>C</step>
     <alter>1</alter>
     <octave>4</octave>
    </pitch>
    <duration>1024</duration>
    <instrument id="P1-I1" />
    <voice>4</voice>
    <type>whole</type>
    <accidental>sharp</accidental>
    <staff>4</staff>
    <lyric default-y="-80" number="part4verse1" color="#000000">
     <syllabic>begin</syllabic>
     <text>Ohi</text>
    </lyric>
   </note>
   <note color="#000000" default-x="247" default-y="-40">
    <pitch>
     <step>G</step>
     <alter>1</alter>
     <octave>3</octave>
    </pitch>
    <duration>512</duration>
    <instrument id="P1-I1" />
    <voice>4</voice>
    <type>half</type>
    <accidental>sharp</accidental>
    <stem>down</stem>
    <staff>4</staff>
    <lyric default-y="-80" number="part4verse1" color="#000000">
     <syllabic>end</syllabic>
     <text>mè</text>
    </lyric>
   </note>
   <note default-x="382">
    <rest />
    <duration>256</duration>
    <instrument id="P1-I1" />
    <voice>4</voice>
    <type>quarter</type>
    <staff>4</staff>
   </note>
   <note color="#000000" default-x="461" default-y="-25">
    <pitch>
     <step>C</step>
     <alter>1</alter>
     <octave>4</octave>
    </pitch>
    <duration>256</duration>
    <instrument id="P1-I1" />
    <voice>4</voice>
    <type>quarter</type>
    <accidental>sharp</accidental>
    <stem>down</stem>
    <staff>4</staff>
    <lyric default-y="-80" number="part4verse1" color="#000000">
     <syllabic>single</syllabic>
     <text>se</text>
    </lyric>
   </note>
   <backup>
    <duration>2048</duration>
   </backup>
   <note default-x="62">
    <rest />
    <duration>2048</duration>
    <instrument id="P1-I1" />
    <voice>5</voice>
    <type>whole</type>
    <staff>5</staff>
   </note>
  </measure>
  <!--============== Part: P1, Measure: 6 ==============-->
  <measure number="6" width="634">
   <attributes />
   <note color="#000000" default-x="15" default-y="-50">
    <pitch>
     <step>C</step>
     <alter>1</alter>
     <octave>5</octave>
    </pitch>
    <duration>256</duration>
    <instrument id="P1-I1" />
    <voice>1</voice>
    <type>quarter</type>
    <accidental>sharp</accidental>
    <stem>down</stem>
    <staff>1</staff>
    <lyric default-y="-80" number="part1verse1" color="#000000">
     <syllabic>begin</syllabic>
     <text>tan</text>
    </lyric>
   </note>
   <direction>
    <direction-type>
     <words default-x="89" default-y="20" justify="left" valign="middle" font-family="Times New Roman" font-style="normal" font-size="5.9683" font-weight="normal">Rückung</words>
    </direction-type>
    <voice>1</voice>
    <staff>1</staff>
   </direction>
   <note color="#000000" default-x="95" default-y="-50">
    <pitch>
     <step>C</step>
     <alter>1</alter>
     <octave>5</octave>
    </pitch>
    <duration>256</duration>
    <instrument id="P1-I1" />
    <voice>1</voice>
    <type>quarter</type>
    <accidental>three-quarters-sharp</accidental>
    <stem>down</stem>
    <staff>1</staff>
    <lyric default-y="-80" number="part1verse1" color="#000000">
     <syllabic>middle</syllabic>
     <text>to&apos;a</text>
    </lyric>
   </note>
   <note color="#000000" default-x="174" default-y="-45">
    <pitch>
     <step>D</step>
     <alter>0</alter>
     <octave>5</octave>
    </pitch>
    <duration>512</duration>
    <instrument id="P1-I1" />
    <voice>1</voice>
    <type>half</type>
    <accidental>quarter-sharp</accidental>
    <stem>down</stem>
    <staff>1</staff>
    <lyric default-y="-80" number="part1verse1" color="#000000">
     <syllabic>middle</syllabic>
     <text>man</text>
    </lyric>
   </note>
   <note color="#000000" default-x="309" default-y="-55">
    <pitch>
     <step>B</step>
     <octave>4</octave>
    </pitch>
    <duration>512</duration>
    <instrument id="P1-I1" />
    <voice>1</voice>
    <type>half</type>
    <stem>down</stem>
    <staff>1</staff>
    <lyric default-y="-80" number="part1verse1" color="#000000">
     <syllabic>end</syllabic>
     <text>te</text>
    </lyric>
   </note>
   <note color="#000000" default-x="444" default-y="-50">
    <pitch>
     <step>C</step>
     <octave>5</octave>
    </pitch>
    <duration>256</duration>
    <instrument id="P1-I1" />
    <voice>1</voice>
    <type>quarter</type>
    <accidental>natural</accidental>
    <stem>down</stem>
    <staff>1</staff>
    <lyric default-y="-80" number="part1verse1" color="#000000">
     <syllabic>single</syllabic>
     <text>di</text>
    </lyric>
   </note>
   <note color="#000000" default-x="555" default-y="10">
    <pitch>
     <step>A</step>
     <octave>4</octave>
    </pitch>
    <duration>256</duration>
    <instrument id="P1-I1" />
    <voice>1</voice>
    <type>quarter</type>
    <stem>up</stem>
    <staff>1</staff>
    <lyric default-y="-80" number="part1verse1" color="#000000">
     <syllabic>begin</syllabic>
     <text>sen</text>
    </lyric>
   </note>
   <backup>
    <duration>2048</duration>
   </backup>
   <note color="#000000" default-x="15" default-y="10">
    <pitch>
     <step>A</step>
     <octave>4</octave>
    </pitch>
    <duration>256</duration>
    <instrument id="P1-I1" />
    <voice>2</voice>
    <type>quarter</type>
    <stem>up</stem>
    <staff>2</staff>
    <lyric default-y="-80" number="part2verse1" color="#000000">
     <syllabic>begin</syllabic>
     <text>tan</text>
    </lyric>
   </note>
   <note color="#000000" default-x="95" default-y="5">
    <pitch>
     <step>G</step>
     <alter>1</alter>
     <octave>4</octave>
    </pitch>
    <duration>256</duration>
    <instrument id="P1-I1" />
    <voice>2</voice>
    <type>quarter</type>
    <accidental>three-quarters-sharp</accidental>
    <stem>up</stem>
    <staff>2</staff>
    <lyric default-y="-80" number="part2verse1" color="#000000">
     <syllabic>middle</syllabic>
     <text>to&apos;a</text>
    </lyric>
   </note>
   <note color="#000000" default-x="174" default-y="10">
    <pitch>
     <step>A</step>
     <alter>0</alter>
     <octave>4</octave>
    </pitch>
    <duration>512</duration>
    <instrument id="P1-I1" />
    <voice>2</voice>
    <type>half</type>
    <accidental>quarter-sharp</accidental>
    <stem>up</stem>
    <staff>2</staff>
    <lyric default-y="-80" number="part2verse1" color="#000000">
     <syllabic>middle</syllabic>
     <text>man</text>
    </lyric>
   </note>
   <note color="#000000" default-x="309" default-y="5">
    <pitch>
     <step>G</step>
     <octave>4</octave>
    </pitch>
    <duration>512</duration>
    <instrument id="P1-I1" />
    <voice>2</voice>
    <type>half</type>
    <accidental>natural</accidental>
    <stem>up</stem>
    <staff>2</staff>
    <lyric default-y="-80" number="part2verse1" color="#000000">
     <syllabic>end</syllabic>
     <text>te</text>
    </lyric>
   </note>
   <note color="#000000" default-x="444">
    <pitch>
     <step>F</step>
     <octave>4</octave>
    </pitch>
    <duration>256</duration>
    <instrument id="P1-I1" />
    <voice>2</voice>
    <type>quarter</type>
    <stem>up</stem>
    <staff>2</staff>
    <lyric default-y="-80" number="part2verse1" color="#000000">
     <syllabic>single</syllabic>
     <text>di</text>
    </lyric>
   </note>
   <note color="#000000" default-x="555" default-y="-5">
    <pitch>
     <step>E</step>
     <octave>4</octave>
    </pitch>
    <duration>256</duration>
    <instrument id="P1-I1" />
    <voice>2</voice>
    <type>quarter</type>
    <stem>up</stem>
    <staff>2</staff>
    <lyric default-y="-80" number="part2verse1" color="#000000">
     <syllabic>begin</syllabic>
     <text>sen</text>
    </lyric>
   </note>
   <backup>
    <duration>2048</duration>
   </backup>
   <note color="#000000" default-x="15" default-y="-20">
    <pitch>
     <step>E</step>
     <octave>4</octave>
    </pitch>
    <duration>256</duration>
    <instrument id="P1-I1" />
    <voice>3</voice>
    <type>quarter</type>
    <stem>down</stem>
    <staff>3</staff>
    <lyric default-y="-80" number="part3verse1" color="#000000">
     <syllabic>begin</syllabic>
     <text>tan</text>
    </lyric>
   </note>
   <note color="#000000" default-x="95" default-y="-20">
    <pitch>
     <step>E</step>
     <alter>0</alter>
     <octave>4</octave>
    </pitch>
    <duration>256</duration>
    <instrument id="P1-I1" />
    <voice>3</voice>
    <type>quarter</type>
    <accidental>quarter-sharp</accidental>
    <stem>down</stem>
    <staff>3</staff>
    <lyric default-y="-80" number="part3verse1" color="#000000">
     <syllabic>middle</syllabic>
     <text>to&apos;a</text>
    </lyric>
   </note>
   <note color="#000000" default-x="174" default-y="-35">
    <pitch>
     <step>A</step>
     <alter>0</alter>
     <octave>3</octave>
    </pitch>
    <duration>512</duration>
    <instrument id="P1-I1" />
    <voice>3</voice>
    <type>half</type>
    <accidental>quarter-sharp</accidental>
    <stem>down</stem>
    <staff>3</staff>
    <lyric default-y="-80" number="part3verse1" color="#000000">
     <syllabic>middle</syllabic>
     <text>man</text>
    </lyric>
   </note>
   <note color="#000000" default-x="309" default-y="-20">
    <pitch>
     <step>E</step>
     <octave>4</octave>
    </pitch>
    <duration>512</duration>
    <instrument id="P1-I1" />
    <voice>3</voice>
    <type>half</type>
    <accidental>natural</accidental>
    <stem>down</stem>
    <staff>3</staff>
    <lyric default-y="-80" number="part3verse1" color="#000000">
     <syllabic>end</syllabic>
     <text>te</text>
    </lyric>
   </note>
   <note color="#000000" default-x="444" default-y="-20">
    <pitch>
     <step>C</step>
     <octave>4</octave>
    </pitch>
    <duration>224</duration>
    <instrument id="P1-I1" />
    <voice>3</voice>
    <type>eighth</type>
    <dot />
    <dot />
    <stem>down</stem>
    <staff>3</staff>
    <lyric default-y="-80" number="part3verse1" color="#000000">
     <syllabic>single</syllabic>
     <text>di</text>
    </lyric>
   </note>
   <note default-x="517">
    <rest />
    <duration>32</duration>
    <instrument id="P1-I1" />
    <voice>3</voice>
    <type>32nd</type>
    <staff>3</staff>
   </note>
   <note color="#000000" default-x="555" default-y="-25">
    <pitch>
     <step>C</step>
     <octave>4</octave>
    </pitch>
    <duration>256</duration>
    <instrument id="P1-I1" />
    <voice>3</voice>
    <type>quarter</type>
    <stem>down</stem>
    <staff>3</staff>
    <lyric default-y="-80" number="part3verse1" color="#000000">
     <syllabic>begin</syllabic>
     <text>sen</text>
    </lyric>
   </note>
   <backup>
    <duration>2048</duration>
   </backup>
   <note color="#000000" default-x="15" default-y="-35">
    <pitch>
     <step>A</step>
     <octave>3</octave>
    </pitch>
    <duration>256</duration>
    <instrument id="P1-I1" />
    <voice>4</voice>
    <type>quarter</type>
    <stem>down</stem>
    <staff>4</staff>
    <lyric default-y="-80" number="part4verse1" color="#000000">
     <syllabic>begin</syllabic>
     <text>tan</text>
    </lyric>
   </note>
   <note color="#000000" default-x="95" default-y="-50">
    <pitch>
     <step>E</step>
     <alter>0</alter>
     <octave>3</octave>
    </pitch>
    <duration>256</duration>
    <instrument id="P1-I1" />
    <voice>4</voice>
    <type>quarter</type>
    <accidental>quarter-sharp</accidental>
    <stem>down</stem>
    <staff>4</staff>
    <lyric default-y="-80" number="part4verse1" color="#000000">
     <syllabic>middle</syllabic>
     <text>to&apos;a</text>
    </lyric>
   </note>
   <note color="#000000" default-x="174" default-y="-45">
    <pitch>
     <step>F</step>
     <alter>0</alter>
     <octave>3</octave>
    </pitch>
    <duration>512</duration>
    <instrument id="P1-I1" />
    <voice>4</voice>
    <type>half</type>
    <accidental>quarter-sharp</accidental>
    <stem>down</stem>
    <staff>4</staff>
    <lyric default-y="-80" number="part4verse1" color="#000000">
     <syllabic>middle</syllabic>
     <text>man</text>
    </lyric>
   </note>
   <note color="#000000" default-x="309" default-y="-50">
    <pitch>
     <step>E</step>
     <octave>3</octave>
    </pitch>
    <duration>512</duration>
    <instrument id="P1-I1" />
    <voice>4</voice>
    <type>half</type>
    <accidental>natural</accidental>
    <stem>down</stem>
    <staff>4</staff>
    <lyric default-y="-80" number="part4verse1" color="#000000">
     <syllabic>end</syllabic>
     <text>te</text>
    </lyric>
   </note>
   <note color="#000000" default-x="444" default-y="-20">
    <pitch>
     <step>A</step>
     <octave>3</octave>
    </pitch>
    <duration>224</duration>
    <instrument id="P1-I1" />
    <voice>4</voice>
    <type>eighth</type>
    <dot />
    <dot />
    <stem>down</stem>
    <staff>4</staff>
    <lyric default-y="-80" number="part4verse1" color="#000000">
     <syllabic>single</syllabic>
     <text>di</text>
    </lyric>
   </note>
   <note default-x="517">
    <rest />
    <duration>32</duration>
    <instrument id="P1-I1" />
    <voice>4</voice>
    <type>32nd</type>
    <staff>4</staff>
   </note>
   <note color="#000000" default-x="555" default-y="-35">
    <pitch>
     <step>A</step>
     <octave>3</octave>
    </pitch>
    <duration>256</duration>
    <instrument id="P1-I1" />
    <voice>4</voice>
    <type>quarter</type>
    <stem>down</stem>
    <staff>4</staff>
    <lyric default-y="-80" number="part4verse1" color="#000000">
     <syllabic>begin</syllabic>
     <text>sen</text>
    </lyric>
   </note>
   <backup>
    <duration>2048</duration>
   </backup>
   <note default-x="15">
    <rest />
    <duration>2048</duration>
    <instrument id="P1-I1" />
    <voice>5</voice>
    <type>whole</type>
    <staff>5</staff>
   </note>
  </measure>
  <!--============== Part: P1, Measure: 7 ==============-->
  <measure number="7" width="608">
   <attributes />
   <direction>
    <direction-type>
     <words default-x="9" default-y="20" justify="left" valign="middle" font-family="Times New Roman" font-style="normal" font-size="5.9683" font-weight="normal">Rückung</words>
    </direction-type>
    <voice>1</voice>
    <staff>1</staff>
   </direction>
   <note color="#000000" default-x="15" default-y="10">
    <pitch>
     <step>A</step>
     <alter>0</alter>
     <octave>4</octave>
    </pitch>
    <duration>512</duration>
    <instrument id="P1-I1" />
    <voice>1</voice>
    <type>half</type>
    <accidental>quarter-flat</accidental>
    <stem>up</stem>
    <staff>1</staff>
    <lyric default-y="-80" number="part1verse1" color="#000000">
     <syllabic>end</syllabic>
     <text>tir</text>
    </lyric>
   </note>
   <note color="#000000" default-x="180" default-y="-55">
    <pitch>
     <step>B</step>
     <alter>0</alter>
     <octave>4</octave>
    </pitch>
    <duration>256</duration>
    <instrument id="P1-I1" />
    <voice>1</voice>
    <type>quarter</type>
    <accidental>quarter-flat</accidental>
    <stem>down</stem>
    <staff>1</staff>
    <lyric default-y="-80" number="part1verse1" color="#000000">
     <syllabic>single</syllabic>
     <text>dir</text>
    </lyric>
   </note>
   <note color="#000000" default-x="259" default-y="-50">
    <pitch>
     <step>C</step>
     <octave>5</octave>
    </pitch>
    <duration>256</duration>
    <instrument id="P1-I1" />
    <voice>1</voice>
    <type>quarter</type>
    <stem>down</stem>
    <staff>1</staff>
    <lyric default-y="-80" number="part1verse1" color="#000000">
     <syllabic>begin</syllabic>
     <text>&quot;ohi</text>
    </lyric>
   </note>
   <note color="#000000" default-x="338" default-y="-55">
    <pitch>
     <step>B</step>
     <octave>4</octave>
    </pitch>
    <duration>512</duration>
    <instrument id="P1-I1" />
    <voice>1</voice>
    <type>half</type>
    <accidental>natural</accidental>
    <stem>down</stem>
    <staff>1</staff>
    <lyric default-y="-80" number="part1verse1" color="#000000">
     <syllabic>end</syllabic>
     <text>mè&quot;</text>
    </lyric>
   </note>
   <note default-x="473">
    <rest />
    <duration>512</duration>
    <instrument id="P1-I1" />
    <voice>1</voice>
    <type>half</type>
    <staff>1</staff>
   </note>
   <backup>
    <duration>2048</duration>
   </backup>
   <note color="#000000" default-x="15">
    <pitch>
     <step>F</step>
     <alter>0</alter>
     <octave>4</octave>
    </pitch>
    <duration>480</duration>
    <instrument id="P1-I1" />
    <voice>2</voice>
    <type>quarter</type>
    <dot />
    <dot />
    <dot />
    <accidental>quarter-sharp</accidental>
    <stem>up</stem>
    <staff>2</staff>
    <lyric default-y="-80" number="part2verse1" color="#000000">
     <syllabic>end</syllabic>
     <text>tir</text>
    </lyric>
   </note>
   <note default-x="142">
    <rest />
    <duration>32</duration>
    <instrument id="P1-I1" />
    <voice>2</voice>
    <type>32nd</type>
    <staff>2</staff>
   </note>
   <note color="#000000" default-x="180">
    <pitch>
     <step>F</step>
     <alter>0</alter>
     <octave>4</octave>
    </pitch>
    <duration>256</duration>
    <instrument id="P1-I1" />
    <voice>2</voice>
    <type>quarter</type>
    <accidental>quarter-sharp</accidental>
    <stem>up</stem>
    <staff>2</staff>
    <lyric default-y="-80" number="part2verse1" color="#000000">
     <syllabic>single</syllabic>
     <text>dir</text>
    </lyric>
   </note>
   <note color="#000000" default-x="259" default-y="5">
    <pitch>
     <step>G</step>
     <octave>4</octave>
    </pitch>
    <duration>256</duration>
    <instrument id="P1-I1" />
    <voice>2</voice>
    <type>quarter</type>
    <stem>up</stem>
    <staff>2</staff>
    <lyric default-y="-80" number="part2verse1" color="#000000">
     <syllabic>begin</syllabic>
     <text>&quot;ohi</text>
    </lyric>
   </note>
   <note color="#000000" default-x="338" default-y="-5">
    <pitch>
     <step>E</step>
     <octave>4</octave>
    </pitch>
    <duration>512</duration>
    <instrument id="P1-I1" />
    <voice>2</voice>
    <type>half</type>
    <stem>up</stem>
    <staff>2</staff>
    <lyric default-y="-80" number="part2verse1" color="#000000">
     <syllabic>end</syllabic>
     <text>mè&quot;</text>
    </lyric>
   </note>
   <note default-x="473">
    <rest />
    <duration>512</duration>
    <instrument id="P1-I1" />
    <voice>2</voice>
    <type>half</type>
    <staff>2</staff>
   </note>
   <backup>
    <duration>2048</duration>
   </backup>
   <note color="#000000" default-x="15" default-y="-25">
    <pitch>
     <step>C</step>
     <alter>0</alter>
     <octave>4</octave>
    </pitch>
    <duration>512</duration>
    <instrument id="P1-I1" />
    <voice>3</voice>
    <type>half</type>
    <accidental>quarter-sharp</accidental>
    <stem>down</stem>
    <staff>3</staff>
    <lyric default-y="-80" number="part3verse1" color="#000000">
     <syllabic>end</syllabic>
     <text>tir</text>
    </lyric>
   </note>
   <note color="#000000" default-x="180" default-y="-20">
    <pitch>
     <step>D</step>
     <alter>0</alter>
     <octave>4</octave>
    </pitch>
    <duration>256</duration>
    <instrument id="P1-I1" />
    <voice>3</voice>
    <type>quarter</type>
    <accidental>quarter-sharp</accidental>
    <stem>down</stem>
    <staff>3</staff>
    <lyric default-y="-80" number="part3verse1" color="#000000">
     <syllabic>single</syllabic>
     <text>dir</text>
    </lyric>
   </note>
   <note color="#000000" default-x="259" default-y="-40">
    <pitch>
     <step>G</step>
     <octave>3</octave>
    </pitch>
    <duration>256</duration>
    <instrument id="P1-I1" />
    <voice>3</voice>
    <type>quarter</type>
    <stem>down</stem>
    <staff>3</staff>
    <lyric default-y="-80" number="part3verse1" color="#000000">
     <syllabic>begin</syllabic>
     <text>&quot;ohi</text>
    </lyric>
   </note>
   <note color="#000000" default-x="338" default-y="-40">
    <pitch>
     <step>G</step>
     <alter>1</alter>
     <octave>3</octave>
    </pitch>
    <duration>512</duration>
    <instrument id="P1-I1" />
    <voice>3</voice>
    <type>half</type>
    <accidental>sharp</accidental>
    <stem>down</stem>
    <staff>3</staff>
    <lyric default-y="-80" number="part3verse1" color="#000000">
     <syllabic>end</syllabic>
     <text>mè&quot;</text>
    </lyric>
   </note>
   <note default-x="473">
    <rest />
    <duration>512</duration>
    <instrument id="P1-I1" />
    <voice>3</voice>
    <type>half</type>
    <staff>3</staff>
   </note>
   <backup>
    <duration>2048</duration>
   </backup>
   <note color="#000000" default-x="15" default-y="-45">
    <pitch>
     <step>F</step>
     <alter>0</alter>
     <octave>3</octave>
    </pitch>
    <duration>512</duration>
    <instrument id="P1-I1" />
    <voice>4</voice>
    <type>half</type>
    <accidental>quarter-sharp</accidental>
    <stem>down</stem>
    <staff>4</staff>
    <lyric default-y="-80" number="part4verse1" color="#000000">
     <syllabic>end</syllabic>
     <text>tir</text>
    </lyric>
   </note>
   <note color="#000000" default-x="180" default-y="-55">
    <pitch>
     <step>D</step>
     <alter>0</alter>
     <octave>3</octave>
    </pitch>
    <duration>256</duration>
    <instrument id="P1-I1" />
    <voice>4</voice>
    <type>quarter</type>
    <accidental>quarter-sharp</accidental>
    <stem>down</stem>
    <staff>4</staff>
    <lyric default-y="-80" number="part4verse1" color="#000000">
     <syllabic>single</syllabic>
     <text>dir</text>
    </lyric>
   </note>
   <note color="#000000" default-x="259" default-y="-50">
    <pitch>
     <step>E</step>
     <alter>-1</alter>
     <octave>3</octave>
    </pitch>
    <duration>256</duration>
    <instrument id="P1-I1" />
    <voice>4</voice>
    <type>quarter</type>
    <accidental>flat</accidental>
    <stem>down</stem>
    <staff>4</staff>
    <lyric default-y="-80" number="part4verse1" color="#000000">
     <syllabic>begin</syllabic>
     <text>&quot;ohi</text>
    </lyric>
   </note>
   <note color="#000000" default-x="338" default-y="-50">
    <pitch>
     <step>E</step>
     <octave>3</octave>
    </pitch>
    <duration>512</duration>
    <instrument id="P1-I1" />
    <voice>4</voice>
    <type>half</type>
    <accidental>natural</accidental>
    <stem>down</stem>
    <staff>4</staff>
    <lyric default-y="-80" number="part4verse1" color="#000000">
     <syllabic>end</syllabic>
     <text>mè&quot;</text>
    </lyric>
   </note>
   <note default-x="473">
    <rest />
    <duration>512</duration>
    <instrument id="P1-I1" />
    <voice>4</voice>
    <type>half</type>
    <staff>4</staff>
   </note>
   <backup>
    <duration>2048</duration>
   </backup>
   <note default-x="15">
    <rest />
    <duration>2048</duration>
    <instrument id="P1-I1" />
    <voice>5</voice>
    <type>whole</type>
    <staff>5</staff>
   </note>
  </measure>
  <!--============== Part: P1, Measure: 8 ==============-->
  <measure number="8" width="272">
   <attributes />
   <note>
    <rest />
    <duration>1024</duration>
    <instrument id="P1-I1" />
    <voice>1</voice>
    <type>whole</type>
    <staff>1</staff>
   </note>
   <backup>
    <duration>1024</duration>
   </backup>
   <note>
    <rest />
    <duration>1024</duration>
    <instrument id="P1-I1" />
    <voice>2</voice>
    <type>whole</type>
    <staff>2</staff>
   </note>
   <backup>
    <duration>1024</duration>
   </backup>
   <note>
    <rest />
    <duration>1024</duration>
    <instrument id="P1-I1" />
    <voice>3</voice>
    <type>whole</type>
    <staff>3</staff>
   </note>
   <backup>
    <duration>1024</duration>
   </backup>
   <note>
    <rest />
    <duration>1024</duration>
    <instrument id="P1-I1" />
    <voice>4</voice>
    <type>whole</type>
    <staff>4</staff>
   </note>
   <backup>
    <duration>1024</duration>
   </backup>
   <note>
    <rest />
    <duration>1024</duration>
    <instrument id="P1-I1" />
    <voice>5</voice>
    <type>whole</type>
    <staff>5</staff>
   </note>
  </measure>
  <!--============== Part: P1, Measure: 9 ==============-->
  <measure number="9" width="306">
   <print new-system="yes">
    <system-layout>
     <system-margins>
      <left-margin>21</left-margin>
      <right-margin>0</right-margin>
     </system-margins>
     <system-distance>120</system-distance>
    </system-layout>
    <staff-layout number="5">
     <staff-distance>90</staff-distance>
    </staff-layout>
   </print>
   <attributes>
    <time color="#000000">
     <beats>2</beats>
     <beat-type>2</beat-type>
    </time>
    <staff-details number="1" print-object="yes" />
    <staff-details number="2" print-object="yes" />
    <staff-details number="3" print-object="yes" />
    <staff-details number="4" print-object="yes" />
    <staff-details number="5" print-object="yes" />
   </attributes>
   <direction>
    <direction-type>
     <words default-x="69" default-y="108" justify="left" valign="middle" font-family="Times New Roman" font-style="normal" font-size="5.9683" font-weight="normal"> </words>
     <words justify="left" valign="middle" font-family="Geneva" font-style="normal" font-size="5.9683" font-weight="normal">II.2 Ohimè se tanto amate, T. 19-22, enge Modulation mit Quintenspanne h#-db., </words>
     <words justify="left" valign="middle" font-family="Times New Roman" font-style="normal" font-size="5.9683" font-weight="normal">Ohimé T 19 - 22</words>
     <words justify="left" valign="middle" font-family="Times New Roman" font-style="normal" font-size="5.9683" font-weight="normal">1 kl Terz höher, ok</words>
    </direction-type>
    <voice>1</voice>
    <staff>1</staff>
   </direction>
   <direction>
    <direction-type>
     <metronome default-y="30" color="#000000" font-family="Opus Text Std" font-style="normal" font-size="8.9911" font-weight="normal">
      <beat-unit>quarter</beat-unit>
      <per-minute>100</per-minute>
     </metronome>
    </direction-type>
    <voice>1</voice>
    <staff>1</staff>
   </direction>
   <note default-x="75">
    <rest />
    <duration>1024</duration>
    <instrument id="P1-I1" />
    <voice>1</voice>
    <type>whole</type>
    <staff>1</staff>
   </note>
   <backup>
    <duration>1024</duration>
   </backup>
   <note default-x="75">
    <rest />
    <duration>512</duration>
    <instrument id="P1-I1" />
    <voice>2</voice>
    <type>half</type>
    <staff>2</staff>
   </note>
   <note color="#000000" default-x="191">
    <pitch>
     <step>F</step>
     <alter>0</alter>
     <octave>4</octave>
    </pitch>
    <duration>512</duration>
    <instrument id="P1-I1" />
    <voice>2</voice>
    <type>half</type>
    <accidental>quarter-sharp</accidental>
    <stem>up</stem>
    <staff>2</staff>
    <lyric default-y="-80" number="part2verse1" color="#000000">
     <syllabic>single</syllabic>
     <text>S&apos;io</text>
    </lyric>
   </note>
   <backup>
    <duration>1024</duration>
   </backup>
   <note default-x="75">
    <rest />
    <duration>512</duration>
    <instrument id="P1-I1" />
    <voice>3</voice>
    <type>half</type>
    <staff>3</staff>
   </note>
   <note color="#000000" default-x="191" default-y="-20">
    <pitch>
     <step>D</step>
     <alter>0</alter>
     <octave>4</octave>
    </pitch>
    <duration>512</duration>
    <instrument id="P1-I1" />
    <voice>3</voice>
    <type>half</type>
    <accidental>quarter-sharp</accidental>
    <stem>down</stem>
    <staff>3</staff>
    <lyric default-y="-80" number="part3verse1" color="#000000">
     <syllabic>single</syllabic>
     <text>S&apos;io</text>
    </lyric>
   </note>
   <backup>
    <duration>1024</duration>
   </backup>
   <note default-x="75">
    <rest />
    <duration>512</duration>
    <instrument id="P1-I1" />
    <voice>4</voice>
    <type>half</type>
    <staff>4</staff>
   </note>
   <note color="#000000" default-x="191" default-y="-35">
    <pitch>
     <step>A</step>
     <alter>0</alter>
     <octave>3</octave>
    </pitch>
    <duration>512</duration>
    <instrument id="P1-I1" />
    <voice>4</voice>
    <type>half</type>
    <accidental>quarter-sharp</accidental>
    <stem>down</stem>
    <staff>4</staff>
    <lyric default-y="-80" number="part4verse1" color="#000000">
     <syllabic>single</syllabic>
     <text>S&apos;io</text>
    </lyric>
   </note>
   <backup>
    <duration>1024</duration>
   </backup>
   <note default-x="75">
    <rest />
    <duration>512</duration>
    <instrument id="P1-I1" />
    <voice>5</voice>
    <type>half</type>
    <staff>5</staff>
   </note>
   <note color="#000000" default-x="191" default-y="-55">
    <pitch>
     <step>D</step>
     <alter>0</alter>
     <octave>3</octave>
    </pitch>
    <duration>512</duration>
    <instrument id="P1-I1" />
    <voice>5</voice>
    <type>half</type>
    <accidental>quarter-sharp</accidental>
    <stem>down</stem>
    <staff>5</staff>
    <lyric default-y="-80" number="part5verse1" color="#000000">
     <syllabic>single</syllabic>
     <text>S&apos;io</text>
    </lyric>
   </note>
  </measure>
  <!--============== Part: P1, Measure: 10 ==============-->
  <measure number="10" width="488">
   <attributes>
    <time color="#000000">
     <beats>4</beats>
     <beat-type>2</beat-type>
    </time>
   </attributes>
   <note default-x="39">
    <rest />
    <duration>2048</duration>
    <instrument id="P1-I1" />
    <voice>1</voice>
    <type>whole</type>
    <staff>1</staff>
   </note>
   <backup>
    <duration>2048</duration>
   </backup>
   <note color="#000000" default-x="39">
    <pitch>
     <step>F</step>
     <alter>1</alter>
     <octave>4</octave>
    </pitch>
    <duration>1024</duration>
    <instrument id="P1-I1" />
    <voice>2</voice>
    <type>whole</type>
    <accidental>three-quarters-sharp</accidental>
    <staff>2</staff>
    <lyric default-y="-80" number="part2verse1" color="#000000">
     <syllabic>begin</syllabic>
     <text>mo</text>
    </lyric>
   </note>
   <note color="#000000" default-x="231" default-y="5">
    <pitch>
     <step>G</step>
     <alter>1</alter>
     <octave>4</octave>
    </pitch>
    <duration>512</duration>
    <instrument id="P1-I1" />
    <voice>2</voice>
    <type>half</type>
    <accidental>sharp</accidental>
    <stem>up</stem>
    <staff>2</staff>
    <lyric default-y="-80" number="part2verse1" color="#000000">
     <syllabic>end</syllabic>
     <text>ro,</text>
    </lyric>
   </note>
   <note color="#000000" default-x="373" default-y="10">
    <pitch>
     <step>A</step>
     <octave>4</octave>
    </pitch>
    <duration>512</duration>
    <instrument id="P1-I1" />
    <voice>2</voice>
    <type>half</type>
    <stem>up</stem>
    <staff>2</staff>
    <lyric default-y="-80" number="part2verse1" color="#000000">
     <syllabic>single</syllabic>
     <text>s&apos;io</text>
    </lyric>
   </note>
   <backup>
    <duration>2048</duration>
   </backup>
   <note color="#000000" default-x="39">
    <pitch>
     <step>D</step>
     <alter>1</alter>
     <octave>4</octave>
    </pitch>
    <duration>1024</duration>
    <instrument id="P1-I1" />
    <voice>3</voice>
    <type>whole</type>
    <accidental>sharp</accidental>
    <staff>3</staff>
    <lyric default-y="-80" number="part3verse1" color="#000000">
     <syllabic>begin</syllabic>
     <text>mo</text>
    </lyric>
   </note>
   <note color="#000000" default-x="231" default-y="-20">
    <pitch>
     <step>E</step>
     <octave>4</octave>
    </pitch>
    <duration>480</duration>
    <instrument id="P1-I1" />
    <voice>3</voice>
    <type>quarter</type>
    <dot />
    <dot />
    <dot />
    <stem>down</stem>
    <staff>3</staff>
    <lyric default-y="-80" number="part3verse1" color="#000000">
     <syllabic>end</syllabic>
     <text>ro,</text>
    </lyric>
   </note>
   <note default-x="340">
    <rest />
    <duration>32</duration>
    <instrument id="P1-I1" />
    <voice>3</voice>
    <type>32nd</type>
    <staff>3</staff>
   </note>
   <note color="#000000" default-x="373" default-y="-20">
    <pitch>
     <step>E</step>
     <octave>4</octave>
    </pitch>
    <duration>512</duration>
    <instrument id="P1-I1" />
    <voice>3</voice>
    <type>half</type>
    <stem>down</stem>
    <staff>3</staff>
    <lyric default-y="-80" number="part3verse1" color="#000000">
     <syllabic>single</syllabic>
     <text>s&apos;io</text>
    </lyric>
   </note>
   <backup>
    <duration>2048</duration>
   </backup>
   <note color="#000000" default-x="39" default-y="-30">
    <pitch>
     <step>B</step>
     <octave>3</octave>
    </pitch>
    <duration>960</duration>
    <instrument id="P1-I1" />
    <voice>4</voice>
    <type>half</type>
    <dot />
    <dot />
    <dot />
    <stem>down</stem>
    <staff>4</staff>
    <lyric default-y="-80" number="part4verse1" color="#000000">
     <syllabic>begin</syllabic>
     <text>mo</text>
    </lyric>
   </note>
   <note default-x="193">
    <rest />
    <duration>64</duration>
    <instrument id="P1-I1" />
    <voice>4</voice>
    <type>16th</type>
    <staff>4</staff>
   </note>
   <note color="#000000" default-x="231" default-y="-30">
    <pitch>
     <step>B</step>
     <octave>3</octave>
    </pitch>
    <duration>512</duration>
    <instrument id="P1-I1" />
    <voice>4</voice>
    <type>half</type>
    <stem>down</stem>
    <staff>4</staff>
    <lyric default-y="-80" number="part4verse1" color="#000000">
     <syllabic>end</syllabic>
     <text>ro,</text>
    </lyric>
   </note>
   <note color="#000000" default-x="373" default-y="-25">
    <pitch>
     <step>C</step>
     <octave>4</octave>
    </pitch>
    <duration>512</duration>
    <instrument id="P1-I1" />
    <voice>4</voice>
    <type>half</type>
    <stem>down</stem>
    <staff>4</staff>
    <lyric default-y="-80" number="part4verse1" color="#000000">
     <syllabic>single</syllabic>
     <text>s&apos;io</text>
    </lyric>
   </note>
   <backup>
    <duration>2048</duration>
   </backup>
   <note color="#000000" default-x="39">
    <pitch>
     <step>B</step>
     <octave>2</octave>
    </pitch>
    <duration>1024</duration>
    <instrument id="P1-I1" />
    <voice>5</voice>
    <type>whole</type>
    <staff>5</staff>
    <lyric default-y="-80" number="part5verse1" color="#000000">
     <syllabic>begin</syllabic>
     <text>mo</text>
    </lyric>
   </note>
   <note color="#000000" default-x="231" default-y="-50">
    <pitch>
     <step>E</step>
     <octave>3</octave>
    </pitch>
    <duration>512</duration>
    <instrument id="P1-I1" />
    <voice>5</voice>
    <type>half</type>
    <accidental>natural</accidental>
    <stem>down</stem>
    <staff>5</staff>
    <lyric default-y="-80" number="part5verse1" color="#000000">
     <syllabic>end</syllabic>
     <text>ro,</text>
    </lyric>
   </note>
   <note color="#000000" default-x="373" default-y="10">
    <pitch>
     <step>C</step>
     <octave>3</octave>
    </pitch>
    <duration>512</duration>
    <instrument id="P1-I1" />
    <voice>5</voice>
    <type>half</type>
    <stem>up</stem>
    <staff>5</staff>
    <lyric default-y="-80" number="part5verse1" color="#000000">
     <syllabic>single</syllabic>
     <text>s&apos;io</text>
    </lyric>
   </note>
  </measure>
  <!--============== Part: P1, Measure: 11 ==============-->
  <measure number="11" width="845">
   <attributes>
    <time color="#000000">
     <beats>6</beats>
     <beat-type>2</beat-type>
    </time>
   </attributes>
   <note default-x="33">
    <rest />
    <duration>1024</duration>
    <instrument id="P1-I1" />
    <voice>1</voice>
    <type>whole</type>
    <staff>1</staff>
   </note>
   <note default-x="192">
    <rest />
    <duration>512</duration>
    <instrument id="P1-I1" />
    <voice>1</voice>
    <type>half</type>
    <staff>1</staff>
   </note>
   <note color="#000000" default-x="341" default-y="-45">
    <pitch>
     <step>D</step>
     <alter>1</alter>
     <octave>5</octave>
    </pitch>
    <duration>512</duration>
    <instrument id="P1-I1" />
    <voice>1</voice>
    <type>half</type>
    <accidental>three-quarters-sharp</accidental>
    <stem>down</stem>
    <staff>1</staff>
    <lyric default-y="-80" number="part1verse1" color="#000000">
     <syllabic>single</syllabic>
     <text>un</text>
    </lyric>
   </note>
   <note color="#000000" default-x="497" default-y="-20">
    <pitch>
     <step>E</step>
     <alter>0</alter>
     <octave>5</octave>
    </pitch>
    <duration>224</duration>
    <instrument id="P1-I1" />
    <voice>1</voice>
    <type>eighth</type>
    <dot />
    <dot />
    <accidental>quarter-sharp</accidental>
    <stem>down</stem>
    <staff>1</staff>
    <lyric default-y="-80" number="part1verse1" color="#000000">
     <syllabic>single</syllabic>
     <text>sol</text>
    </lyric>
   </note>
   <note default-x="560">
    <rest />
    <duration>32</duration>
    <instrument id="P1-I1" />
    <voice>1</voice>
    <type>32nd</type>
    <staff>1</staff>
   </note>
   <note color="#000000" default-x="600" default-y="-20">
    <pitch>
     <step>E</step>
     <alter>0</alter>
     <octave>5</octave>
    </pitch>
    <duration>224</duration>
    <instrument id="P1-I1" />
    <voice>1</voice>
    <type>eighth</type>
    <dot />
    <dot />
    <accidental>quarter-sharp</accidental>
    <stem>down</stem>
    <staff>1</staff>
    <lyric default-y="-80" number="part1verse1" color="#000000">
     <syllabic>begin</syllabic>
     <text>po</text>
    </lyric>
   </note>
   <note default-x="663">
    <rest />
    <duration>32</duration>
    <instrument id="P1-I1" />
    <voice>1</voice>
    <type>32nd</type>
    <staff>1</staff>
   </note>
   <note color="#000000" default-x="703" default-y="-40">
    <pitch>
     <step>E</step>
     <alter>0</alter>
     <octave>5</octave>
    </pitch>
    <duration>512</duration>
    <instrument id="P1-I1" />
    <voice>1</voice>
    <type>half</type>
    <accidental>quarter-sharp</accidental>
    <stem>down</stem>
    <staff>1</staff>
    <lyric default-y="-80" number="part1verse1" color="#000000">
     <syllabic>middle</syllabic>
     <text>tre</text>
    </lyric>
   </note>
   <backup>
    <duration>3072</duration>
   </backup>
   <note color="#000000" default-x="33">
    <pitch>
     <step>B</step>
     <alter>-1</alter>
     <octave>4</octave>
    </pitch>
    <duration>1024</duration>
    <instrument id="P1-I1" />
    <voice>2</voice>
    <type>whole</type>
    <accidental>flat</accidental>
    <staff>2</staff>
    <lyric default-y="-80" number="part2verse1" color="#000000">
     <syllabic>begin</syllabic>
     <text>mo</text>
    </lyric>
   </note>
   <direction>
    <direction-type>
     <words default-x="186" default-y="20" justify="left" valign="middle" font-family="Times New Roman" font-style="normal" font-size="5.9683" font-weight="normal">als Terz von dis+ stimmen!</words>
    </direction-type>
    <voice>2</voice>
    <staff>2</staff>
   </direction>
   <note color="#000000" default-x="192" default-y="5">
    <pitch>
     <step>G</step>
     <octave>4</octave>
    </pitch>
    <duration>512</duration>
    <instrument id="P1-I1" />
    <voice>2</voice>
    <type>half</type>
    <stem>up</stem>
    <staff>2</staff>
    <lyric default-y="-80" number="part2verse1" color="#000000">
     <syllabic>end</syllabic>
     <text>ro</text>
    </lyric>
   </note>
   <note color="#000000" default-x="341" default-y="5">
    <pitch>
     <step>G</step>
     <alter>1</alter>
     <octave>4</octave>
    </pitch>
    <duration>512</duration>
    <instrument id="P1-I1" />
    <voice>2</voice>
    <type>half</type>
    <accidental>three-quarters-sharp</accidental>
    <stem>up</stem>
    <staff>2</staff>
    <lyric default-y="-80" number="part2verse1" color="#000000">
     <syllabic>single</syllabic>
     <text>un</text>
    </lyric>
   </note>
   <note color="#000000" default-x="497" default-y="-20">
    <pitch>
     <step>G</step>
     <alter>1</alter>
     <octave>4</octave>
    </pitch>
    <duration>224</duration>
    <instrument id="P1-I1" />
    <voice>2</voice>
    <type>eighth</type>
    <dot />
    <dot />
    <accidental>three-quarters-sharp</accidental>
    <stem>up</stem>
    <staff>2</staff>
    <lyric default-y="-80" number="part2verse1" color="#000000">
     <syllabic>single</syllabic>
     <text>sol</text>
    </lyric>
   </note>
   <note default-x="560">
    <rest />
    <duration>32</duration>
    <instrument id="P1-I1" />
    <voice>2</voice>
    <type>32nd</type>
    <staff>2</staff>
   </note>
   <note color="#000000" default-x="600" default-y="-20">
    <pitch>
     <step>G</step>
     <alter>1</alter>
     <octave>4</octave>
    </pitch>
    <duration>224</duration>
    <instrument id="P1-I1" />
    <voice>2</voice>
    <type>eighth</type>
    <dot />
    <dot />
    <accidental>three-quarters-sharp</accidental>
    <stem>up</stem>
    <staff>2</staff>
    <lyric default-y="-80" number="part2verse1" color="#000000">
     <syllabic>begin</syllabic>
     <text>po</text>
    </lyric>
   </note>
   <note default-x="663">
    <rest />
    <duration>32</duration>
    <instrument id="P1-I1" />
    <voice>2</voice>
    <type>32nd</type>
    <staff>2</staff>
   </note>
   <note color="#000000" default-x="703" default-y="5">
    <pitch>
     <step>G</step>
     <alter>1</alter>
     <octave>4</octave>
    </pitch>
    <duration>512</duration>
    <instrument id="P1-I1" />
    <voice>2</voice>
    <type>half</type>
    <accidental>three-quarters-sharp</accidental>
    <stem>up</stem>
    <staff>2</staff>
    <lyric default-y="-80" number="part2verse1" color="#000000">
     <syllabic>middle</syllabic>
     <text>tre</text>
    </lyric>
   </note>
   <backup>
    <duration>3072</duration>
   </backup>
   <note color="#000000" default-x="33">
    <pitch>
     <step>F</step>
     <octave>4</octave>
    </pitch>
    <duration>1024</duration>
    <instrument id="P1-I1" />
    <voice>3</voice>
    <type>whole</type>
    <staff>3</staff>
    <lyric default-y="-80" number="part3verse1" color="#000000">
     <syllabic>begin</syllabic>
     <text>mo</text>
    </lyric>
   </note>
   <note color="#000000" default-x="192" default-y="-20">
    <pitch>
     <step>D</step>
     <alter>1</alter>
     <octave>4</octave>
    </pitch>
    <duration>480</duration>
    <instrument id="P1-I1" />
    <voice>3</voice>
    <type>quarter</type>
    <dot />
    <dot />
    <dot />
    <accidental>three-quarters-sharp</accidental>
    <stem>down</stem>
    <staff>3</staff>
    <lyric default-y="-80" number="part3verse1" color="#000000">
     <syllabic>end</syllabic>
     <text>ro</text>
    </lyric>
   </note>
   <note default-x="301">
    <rest />
    <duration>32</duration>
    <instrument id="P1-I1" />
    <voice>3</voice>
    <type>32nd</type>
    <staff>3</staff>
   </note>
   <note color="#000000" default-x="341" default-y="-20">
    <pitch>
     <step>D</step>
     <alter>1</alter>
     <octave>4</octave>
    </pitch>
    <duration>512</duration>
    <instrument id="P1-I1" />
    <voice>3</voice>
    <type>half</type>
    <accidental>three-quarters-sharp</accidental>
    <stem>down</stem>
    <staff>3</staff>
    <lyric default-y="-80" number="part3verse1" color="#000000">
     <syllabic>single</syllabic>
     <text>un</text>
    </lyric>
   </note>
   <note color="#000000" default-x="497" default-y="-20">
    <pitch>
     <step>C</step>
     <alter>1</alter>
     <octave>4</octave>
    </pitch>
    <duration>224</duration>
    <instrument id="P1-I1" />
    <voice>3</voice>
    <type>eighth</type>
    <dot />
    <dot />
    <accidental>three-quarters-sharp</accidental>
    <stem>down</stem>
    <staff>3</staff>
    <lyric default-y="-80" number="part3verse1" color="#000000">
     <syllabic>single</syllabic>
     <text>sol</text>
    </lyric>
   </note>
   <note default-x="560">
    <rest />
    <duration>32</duration>
    <instrument id="P1-I1" />
    <voice>3</voice>
    <type>32nd</type>
    <staff>3</staff>
   </note>
   <note color="#000000" default-x="600" default-y="-20">
    <pitch>
     <step>C</step>
     <alter>1</alter>
     <octave>4</octave>
    </pitch>
    <duration>224</duration>
    <instrument id="P1-I1" />
    <voice>3</voice>
    <type>eighth</type>
    <dot />
    <dot />
    <accidental>three-quarters-sharp</accidental>
    <stem>down</stem>
    <staff>3</staff>
    <lyric default-y="-80" number="part3verse1" color="#000000">
     <syllabic>begin</syllabic>
     <text>po</text>
    </lyric>
   </note>
   <note default-x="663">
    <rest />
    <duration>32</duration>
    <instrument id="P1-I1" />
    <voice>3</voice>
    <type>32nd</type>
    <staff>3</staff>
   </note>
   <note color="#000000" default-x="703" default-y="-25">
    <pitch>
     <step>C</step>
     <alter>1</alter>
     <octave>4</octave>
    </pitch>
    <duration>480</duration>
    <instrument id="P1-I1" />
    <voice>3</voice>
    <type>quarter</type>
    <dot />
    <dot />
    <dot />
    <accidental>three-quarters-sharp</accidental>
    <stem>down</stem>
    <staff>3</staff>
    <lyric default-y="-80" number="part3verse1" color="#000000">
     <syllabic>middle</syllabic>
     <text>tre</text>
    </lyric>
   </note>
   <note default-x="812">
    <rest />
    <duration>32</duration>
    <instrument id="P1-I1" />
    <voice>3</voice>
    <type>32nd</type>
    <staff>3</staff>
   </note>
   <backup>
    <duration>3072</duration>
   </backup>
   <note color="#000000" default-x="33">
    <pitch>
     <step>F</step>
     <octave>3</octave>
    </pitch>
    <duration>1024</duration>
    <instrument id="P1-I1" />
    <voice>4</voice>
    <type>whole</type>
    <staff>4</staff>
    <lyric default-y="-80" number="part4verse1" color="#000000">
     <syllabic>begin</syllabic>
     <text>mo</text>
    </lyric>
   </note>
   <note color="#000000" default-x="192" default-y="-30">
    <pitch>
     <step>B</step>
     <alter>-1</alter>
     <octave>3</octave>
    </pitch>
    <duration>512</duration>
    <instrument id="P1-I1" />
    <voice>4</voice>
    <type>half</type>
    <accidental>flat</accidental>
    <stem>down</stem>
    <staff>4</staff>
    <lyric default-y="-80" number="part4verse1" color="#000000">
     <syllabic>end</syllabic>
     <text>ro</text>
    </lyric>
   </note>
   <note color="#000000" default-x="341" default-y="-25">
    <pitch>
     <step>C</step>
     <octave>4</octave>
    </pitch>
    <duration>512</duration>
    <instrument id="P1-I1" />
    <voice>4</voice>
    <type>half</type>
    <stem>down</stem>
    <staff>4</staff>
    <lyric default-y="-80" number="part4verse1" color="#000000">
     <syllabic>single</syllabic>
     <text>un</text>
    </lyric>
   </note>
   <note color="#000000" default-x="497" default-y="-20">
    <pitch>
     <step>G</step>
     <alter>1</alter>
     <octave>3</octave>
    </pitch>
    <duration>224</duration>
    <instrument id="P1-I1" />
    <voice>4</voice>
    <type>eighth</type>
    <dot />
    <dot />
    <accidental>three-quarters-sharp</accidental>
    <stem>down</stem>
    <staff>4</staff>
    <lyric default-y="-80" number="part4verse1" color="#000000">
     <syllabic>single</syllabic>
     <text>sol</text>
    </lyric>
   </note>
   <note default-x="560">
    <rest />
    <duration>32</duration>
    <instrument id="P1-I1" />
    <voice>4</voice>
    <type>32nd</type>
    <staff>4</staff>
   </note>
   <note color="#000000" default-x="600" default-y="-20">
    <pitch>
     <step>G</step>
     <alter>1</alter>
     <octave>3</octave>
    </pitch>
    <duration>224</duration>
    <instrument id="P1-I1" />
    <voice>4</voice>
    <type>eighth</type>
    <dot />
    <dot />
    <accidental>three-quarters-sharp</accidental>
    <stem>down</stem>
    <staff>4</staff>
    <lyric default-y="-80" number="part4verse1" color="#000000">
     <syllabic>begin</syllabic>
     <text>po</text>
    </lyric>
   </note>
   <note default-x="663">
    <rest />
    <duration>32</duration>
    <instrument id="P1-I1" />
    <voice>4</voice>
    <type>32nd</type>
    <staff>4</staff>
   </note>
   <note color="#000000" default-x="703" default-y="-40">
    <pitch>
     <step>G</step>
     <alter>1</alter>
     <octave>3</octave>
    </pitch>
    <duration>512</duration>
    <instrument id="P1-I1" />
    <voice>4</voice>
    <type>half</type>
    <accidental>three-quarters-sharp</accidental>
    <stem>down</stem>
    <staff>4</staff>
    <lyric default-y="-80" number="part4verse1" color="#000000">
     <syllabic>middle</syllabic>
     <text>tre</text>
    </lyric>
   </note>
   <backup>
    <duration>3072</duration>
   </backup>
   <note color="#000000" default-x="33">
    <pitch>
     <step>D</step>
     <alter>-1</alter>
     <octave>3</octave>
    </pitch>
    <duration>1024</duration>
    <instrument id="P1-I1" />
    <voice>5</voice>
    <type>whole</type>
    <accidental>flat</accidental>
    <staff>5</staff>
    <lyric default-y="-80" number="part5verse1" color="#000000">
     <syllabic>begin</syllabic>
     <text>mo</text>
    </lyric>
   </note>
   <note color="#000000" default-x="192" default-y="-55">
    <pitch>
     <step>D</step>
     <alter>1</alter>
     <octave>3</octave>
    </pitch>
    <duration>512</duration>
    <instrument id="P1-I1" />
    <voice>5</voice>
    <type>half</type>
    <accidental>three-quarters-sharp</accidental>
    <stem>down</stem>
    <staff>5</staff>
    <lyric default-y="-80" number="part5verse1" color="#000000">
     <syllabic>end</syllabic>
     <text>ro</text>
    </lyric>
   </note>
   <note color="#000000" default-x="341" default-y="-40">
    <pitch>
     <step>G</step>
     <alter>1</alter>
     <octave>3</octave>
    </pitch>
    <duration>480</duration>
    <instrument id="P1-I1" />
    <voice>5</voice>
    <type>quarter</type>
    <dot />
    <dot />
    <dot />
    <accidental>three-quarters-sharp</accidental>
    <stem>down</stem>
    <staff>5</staff>
    <lyric default-y="-80" number="part5verse1" color="#000000">
     <syllabic>single</syllabic>
     <text>un</text>
    </lyric>
   </note>
   <note default-x="460">
    <rest />
    <duration>32</duration>
    <instrument id="P1-I1" />
    <voice>5</voice>
    <type>32nd</type>
    <staff>5</staff>
   </note>
   <note color="#000000" default-x="497" default-y="-20">
    <pitch>
     <step>C</step>
     <alter>1</alter>
     <octave>3</octave>
    </pitch>
    <duration>224</duration>
    <instrument id="P1-I1" />
    <voice>5</voice>
    <type>eighth</type>
    <dot />
    <dot />
    <accidental>three-quarters-sharp</accidental>
    <stem>up</stem>
    <staff>5</staff>
    <lyric default-y="-80" number="part5verse1" color="#000000">
     <syllabic>single</syllabic>
     <text>sol</text>
    </lyric>
   </note>
   <note default-x="560">
    <rest />
    <duration>32</duration>
    <instrument id="P1-I1" />
    <voice>5</voice>
    <type>32nd</type>
    <staff>5</staff>
   </note>
   <note color="#000000" default-x="600" default-y="-20">
    <pitch>
     <step>C</step>
     <alter>1</alter>
     <octave>3</octave>
    </pitch>
    <duration>224</duration>
    <instrument id="P1-I1" />
    <voice>5</voice>
    <type>eighth</type>
    <dot />
    <dot />
    <accidental>three-quarters-sharp</accidental>
    <stem>up</stem>
    <staff>5</staff>
    <lyric default-y="-80" number="part5verse1" color="#000000">
     <syllabic>begin</syllabic>
     <text>po</text>
    </lyric>
   </note>
   <note default-x="663">
    <rest />
    <duration>32</duration>
    <instrument id="P1-I1" />
    <voice>5</voice>
    <type>32nd</type>
    <staff>5</staff>
   </note>
   <note color="#000000" default-x="703" default-y="10">
    <pitch>
     <step>C</step>
     <alter>1</alter>
     <octave>3</octave>
    </pitch>
    <duration>512</duration>
    <instrument id="P1-I1" />
    <voice>5</voice>
    <type>half</type>
    <accidental>three-quarters-sharp</accidental>
    <stem>up</stem>
    <staff>5</staff>
    <lyric default-y="-80" number="part5verse1" color="#000000">
     <syllabic>middle</syllabic>
     <text>tre</text>
    </lyric>
   </note>
  </measure>
  <!--============== Part: P1, Measure: 12 ==============-->
  <measure number="12" width="448">
   <attributes>
    <time color="#000000">
     <beats>4</beats>
     <beat-type>2</beat-type>
    </time>
   </attributes>
   <note color="#000000" default-x="42" default-y="-50">
    <pitch>
     <step>C</step>
     <alter>1</alter>
     <octave>5</octave>
    </pitch>
    <duration>512</duration>
    <instrument id="P1-I1" />
    <voice>1</voice>
    <type>half</type>
    <accidental>three-quarters-sharp</accidental>
    <stem>down</stem>
    <staff>1</staff>
    <lyric default-y="-80" number="part1verse1" color="#000000">
     <syllabic>end</syllabic>
     <text>te</text>
    </lyric>
   </note>
   <note default-x="157">
    <rest />
    <duration>512</duration>
    <instrument id="P1-I1" />
    <voice>1</voice>
    <type>half</type>
    <staff>1</staff>
   </note>
   <note default-x="273">
    <rest />
    <duration>1024</duration>
    <instrument id="P1-I1" />
    <voice>1</voice>
    <type>whole</type>
    <staff>1</staff>
   </note>
   <barline>
    <bar-style>light-heavy</bar-style>
   </barline>
   <backup>
    <duration>2048</duration>
   </backup>
   <note color="#000000" default-x="42">
    <pitch>
     <step>F</step>
     <alter>1</alter>
     <octave>4</octave>
    </pitch>
    <duration>512</duration>
    <instrument id="P1-I1" />
    <voice>2</voice>
    <type>half</type>
    <accidental>three-quarters-sharp</accidental>
    <stem>up</stem>
    <staff>2</staff>
    <lyric default-y="-80" number="part2verse1" color="#000000">
     <syllabic>end</syllabic>
     <text>te</text>
    </lyric>
   </note>
   <note default-x="157">
    <rest />
    <duration>512</duration>
    <instrument id="P1-I1" />
    <voice>2</voice>
    <type>half</type>
    <staff>2</staff>
   </note>
   <note default-x="273">
    <rest />
    <duration>1024</duration>
    <instrument id="P1-I1" />
    <voice>2</voice>
    <type>whole</type>
    <staff>2</staff>
   </note>
   <backup>
    <duration>2048</duration>
   </backup>
   <note color="#000000" default-x="42" default-y="-25">
    <pitch>
     <step>C</step>
     <alter>1</alter>
     <octave>4</octave>
    </pitch>
    <duration>512</duration>
    <instrument id="P1-I1" />
    <voice>3</voice>
    <type>half</type>
    <accidental>three-quarters-sharp</accidental>
    <stem>down</stem>
    <staff>3</staff>
    <lyric default-y="-80" number="part3verse1" color="#000000">
     <syllabic>end</syllabic>
     <text>te</text>
    </lyric>
   </note>
   <note default-x="157">
    <rest />
    <duration>512</duration>
    <instrument id="P1-I1" />
    <voice>3</voice>
    <type>half</type>
    <staff>3</staff>
   </note>
   <note default-x="273">
    <rest />
    <duration>1024</duration>
    <instrument id="P1-I1" />
    <voice>3</voice>
    <type>whole</type>
    <staff>3</staff>
   </note>
   <backup>
    <duration>2048</duration>
   </backup>
   <note color="#000000" default-x="42" default-y="-35">
    <pitch>
     <step>A</step>
     <alter>1</alter>
     <octave>3</octave>
    </pitch>
    <duration>512</duration>
    <instrument id="P1-I1" />
    <voice>4</voice>
    <type>half</type>
    <accidental>three-quarters-sharp</accidental>
    <stem>down</stem>
    <staff>4</staff>
    <lyric default-y="-80" number="part4verse1" color="#000000">
     <syllabic>end</syllabic>
     <text>te</text>
    </lyric>
   </note>
   <note default-x="157">
    <rest />
    <duration>512</duration>
    <instrument id="P1-I1" />
    <voice>4</voice>
    <type>half</type>
    <staff>4</staff>
   </note>
   <note default-x="273">
    <rest />
    <duration>1024</duration>
    <instrument id="P1-I1" />
    <voice>4</voice>
    <type>whole</type>
    <staff>4</staff>
   </note>
   <backup>
    <duration>2048</duration>
   </backup>
   <note color="#000000" default-x="42" default-y="-45">
    <pitch>
     <step>F</step>
     <alter>1</alter>
     <octave>3</octave>
    </pitch>
    <duration>512</duration>
    <instrument id="P1-I1" />
    <voice>5</voice>
    <type>half</type>
    <accidental>three-quarters-sharp</accidental>
    <stem>down</stem>
    <staff>5</staff>
    <lyric default-y="-80" number="part5verse1" color="#000000">
     <syllabic>end</syllabic>
     <text>te</text>
    </lyric>
   </note>
   <note default-x="157">
    <rest />
    <duration>512</duration>
    <instrument id="P1-I1" />
    <voice>5</voice>
    <type>half</type>
    <staff>5</staff>
   </note>
   <note default-x="273">
    <rest />
    <duration>1024</duration>
    <instrument id="P1-I1" />
    <voice>5</voice>
    <type>whole</type>
    <staff>5</staff>
   </note>
  </measure>
 </part>
</score-partwise>
