<?xml version="1.0" encoding='UTF-8' standalone='no' ?>
<!DOCTYPE score-partwise PUBLIC "-//Recordare//DTD MusicXML 3.0 Partwise//EN" "http://www.musicxml.org/dtds/partwise.dtd">
<score-partwise version="3.0">
 <work>
  <work-title>Per non mi dir ch&apos;io moia (T41)</work-title>
 </work>
 <identification>
  <creator type="composer">Michelangelo Rossi</creator>
  <rights>Copyright © </rights>
  <encoding>
   <encoding-date>2020-11-16</encoding-date>
   <encoder>johke</encoder>
   <software>Sibelius 7.1.3</software>
   <software>Direct export, not from Dolet</software>
   <encoding-description>Sibelius / MusicXML 3.0</encoding-description>
   <supports element="print" type="yes" value="yes" attribute="new-system" />
   <supports element="print" type="yes" value="yes" attribute="new-page" />
   <supports element="accidental" type="yes" />
   <supports element="beam" type="yes" />
   <supports element="stem" type="yes" />
  </encoding>
 </identification>
 <defaults>
  <scaling>
   <millimeters>210</millimeters>
   <tenths>1866</tenths>
  </scaling>
  <page-layout>
   <page-height>2640</page-height>
   <page-width>1866</page-width>
   <page-margins type="both">
    <left-margin>112</left-margin>
    <right-margin>112</right-margin>
    <top-margin>112</top-margin>
    <bottom-margin>112</bottom-margin>
   </page-margins>
  </page-layout>
  <system-layout>
   <system-margins>
    <left-margin>59</left-margin>
    <right-margin>0</right-margin>
   </system-margins>
   <system-distance>120</system-distance>
  </system-layout>
  <appearance>
   <line-width type="stem">1.5625</line-width>
   <line-width type="beam">5</line-width>
   <line-width type="staff">0.9375</line-width>
   <line-width type="light barline">1.5625</line-width>
   <line-width type="heavy barline">5</line-width>
   <line-width type="leger">1.5625</line-width>
   <line-width type="ending">1.5625</line-width>
   <line-width type="wedge">1.25</line-width>
   <line-width type="enclosure">0.9375</line-width>
   <line-width type="tuplet bracket">1.25</line-width>
   <line-width type="bracket">5</line-width>
   <line-width type="dashes">1.5625</line-width>
   <line-width type="extend">0.9375</line-width>
   <line-width type="octave shift">1.5625</line-width>
   <line-width type="pedal">1.5625</line-width>
   <line-width type="slur middle">1.5625</line-width>
   <line-width type="slur tip">0.625</line-width>
   <line-width type="tie middle">1.5625</line-width>
   <line-width type="tie tip">0.625</line-width>
   <note-size type="cue">75</note-size>
   <note-size type="grace">60</note-size>
  </appearance>
  <music-font font-family="Opus Std" font-size="12.7559" />
  <lyric-font font-family="Times New Roman" font-size="7.6735" />
  <lyric-language xml:lang="en" />
 </defaults>
 <part-list>
  <part-group type="start" number="1">
   <group-symbol>bracket</group-symbol>
  </part-group>
  <score-part id="P1">
   <part-name>Sopran</part-name>
   <part-name-display>
    <display-text>Sopran</display-text>
   </part-name-display>
   <part-abbreviation>S.</part-abbreviation>
   <part-abbreviation-display>
    <display-text>S.</display-text>
   </part-abbreviation-display>
   <score-instrument id="P1-I1">
    <instrument-name>Soprano</instrument-name>
    <virtual-instrument>
     <virtual-library>General MIDI</virtual-library>
     <virtual-name>Soprano Ensemble</virtual-name>
    </virtual-instrument>
   </score-instrument>
  </score-part>
  <score-part id="P2">
   <part-name>Alt</part-name>
   <part-name-display>
    <display-text>Alt</display-text>
   </part-name-display>
   <part-abbreviation>A.</part-abbreviation>
   <part-abbreviation-display>
    <display-text>A.</display-text>
   </part-abbreviation-display>
   <score-instrument id="P2-I1">
    <instrument-name>Alto</instrument-name>
    <virtual-instrument>
     <virtual-library>General MIDI</virtual-library>
     <virtual-name>Alto Ensemble</virtual-name>
    </virtual-instrument>
   </score-instrument>
  </score-part>
  <score-part id="P3">
   <part-name>Bariton</part-name>
   <part-name-display>
    <display-text>Bariton</display-text>
   </part-name-display>
   <part-abbreviation>Bar.</part-abbreviation>
   <part-abbreviation-display>
    <display-text>Bar.</display-text>
   </part-abbreviation-display>
   <score-instrument id="P3-I1">
    <instrument-name>Baritone</instrument-name>
    <virtual-instrument>
     <virtual-library>General MIDI</virtual-library>
     <virtual-name>Bass Ensemble</virtual-name>
    </virtual-instrument>
   </score-instrument>
  </score-part>
  <score-part id="P4">
   <part-name>Bariton</part-name>
   <part-name-display>
    <display-text>Bariton</display-text>
   </part-name-display>
   <part-abbreviation>Bar.</part-abbreviation>
   <part-abbreviation-display>
    <display-text>Bar.</display-text>
   </part-abbreviation-display>
   <score-instrument id="P4-I1">
    <instrument-name>Baritone</instrument-name>
    <virtual-instrument>
     <virtual-library>General MIDI</virtual-library>
     <virtual-name>Bass Ensemble</virtual-name>
    </virtual-instrument>
   </score-instrument>
  </score-part>
  <score-part id="P5">
   <part-name>Bass</part-name>
   <part-name-display>
    <display-text>Bass</display-text>
   </part-name-display>
   <part-abbreviation>B.</part-abbreviation>
   <part-abbreviation-display>
    <display-text>B.</display-text>
   </part-abbreviation-display>
   <score-instrument id="P5-I1">
    <instrument-name>Bass (2)</instrument-name>
    <virtual-instrument>
     <virtual-library>General MIDI</virtual-library>
     <virtual-name>Bass Ensemble</virtual-name>
    </virtual-instrument>
   </score-instrument>
  </score-part>
  <part-group type="stop" number="1" />
 </part-list>
 <part id="P1">
  <!--============== Part: P1, Measure: 1 ==============-->
  <measure number="1" width="359">
   <print new-page="yes">
    <system-layout>
     <system-margins>
      <left-margin>22</left-margin>
      <right-margin>0</right-margin>
     </system-margins>
     <top-system-distance>125</top-system-distance>
    </system-layout>
   </print>
   <attributes>
    <divisions>256</divisions>
    <key color="#000000">
     <fifths>0</fifths>
     <mode>none</mode>
    </key>
    <time color="#000000">
     <beats>4</beats>
     <beat-type>4</beat-type>
    </time>
    <staves>1</staves>
    <clef number="1" color="#000000">
     <sign>G</sign>
     <line>2</line>
    </clef>
    <staff-details number="1" print-object="yes" />
   </attributes>
   <direction>
    <direction-type>
     <words default-x="51" default-y="80" justify="left" valign="middle" font-family="Times New Roman" font-style="normal" font-size="7.6735" font-weight="normal">O Miseria T 16 - 19</words>
     <words justify="left" valign="middle" font-family="Times New Roman" font-style="normal" font-size="7.6735" font-weight="normal">1 Ton tiefer, ok</words>
    </direction-type>
    <voice>1</voice>
    <staff>1</staff>
   </direction>
   <direction>
    <direction-type>
     <words default-x="54" default-y="135" justify="left" valign="middle" font-family="Geneva" font-style="normal" font-size="7.6735" font-weight="normal">I.10 O miseria d&apos;amante, praktisch das ganze Stück. V.a. T. 16-19. Kollisionsakkord in T.</words>
     <words justify="left" valign="middle" font-family="Geneva" font-style="normal" font-size="7.6735" font-weight="normal">33. T. 58-Ende, sehr enge Modulationskurven.</words>
    </direction-type>
    <voice>1</voice>
    <staff>1</staff>
   </direction>
   <direction>
    <direction-type>
     <metronome default-y="10" color="#000000" font-family="Opus Text Std" font-style="normal" font-size="11.56" font-weight="normal">
      <beat-unit>quarter</beat-unit>
      <per-minute>100</per-minute>
     </metronome>
    </direction-type>
    <voice>1</voice>
    <staff>1</staff>
   </direction>
   <note default-x="57">
    <rest />
    <duration>2048</duration>
    <instrument id="P1-I1" />
    <voice>1</voice>
    <type>whole</type>
    <staff>1</staff>
   </note>
  </measure>
  <!--============== Part: P1, Measure: 2 ==============-->
  <measure number="2" width="467">
   <note default-x="23">
    <rest />
    <duration>256</duration>
    <instrument id="P1-I1" />
    <voice>1</voice>
    <type>quarter</type>
    <staff>1</staff>
   </note>
   <note default-x="76">
    <rest />
    <duration>256</duration>
    <instrument id="P1-I1" />
    <voice>1</voice>
    <type>quarter</type>
    <staff>1</staff>
   </note>
   <note color="#000000" default-x="165">
    <pitch>
     <step>F</step>
     <alter>1</alter>
     <octave>4</octave>
    </pitch>
    <duration>480</duration>
    <instrument id="P1-I1" />
    <voice>1</voice>
    <type>quarter</type>
    <dot />
    <dot />
    <dot />
    <accidental>three-quarters-sharp</accidental>
    <stem>up</stem>
    <staff>1</staff>
    <lyric default-y="-80" number="part1verse1" color="#000000">
     <syllabic>single</syllabic>
     <text>Io</text>
    </lyric>
   </note>
   <note default-x="249">
    <rest />
    <duration>32</duration>
    <instrument id="P1-I1" />
    <voice>1</voice>
    <type>32nd</type>
    <staff>1</staff>
   </note>
   <note color="#000000" default-x="289">
    <pitch>
     <step>F</step>
     <alter>1</alter>
     <octave>4</octave>
    </pitch>
    <duration>1024</duration>
    <instrument id="P1-I1" />
    <voice>1</voice>
    <type>whole</type>
    <accidental>three-quarters-sharp</accidental>
    <staff>1</staff>
    <lyric default-y="-80" number="part1verse1" color="#000000">
     <syllabic>begin</syllabic>
     <text>mo</text>
    </lyric>
   </note>
  </measure>
  <!--============== Part: P1, Measure: 3 ==============-->
  <measure number="3" width="276">
   <attributes>
    <time color="#000000">
     <beats>2</beats>
     <beat-type>2</beat-type>
    </time>
   </attributes>
   <note color="#000000" default-x="33" default-y="-5">
    <pitch>
     <step>E</step>
     <octave>4</octave>
    </pitch>
    <duration>512</duration>
    <instrument id="P1-I1" />
    <voice>1</voice>
    <type>half</type>
    <stem>up</stem>
    <staff>1</staff>
    <lyric default-y="-80" number="part1verse1" color="#000000">
     <syllabic>end</syllabic>
     <text>ro,</text>
    </lyric>
   </note>
   <note color="#000000" default-x="166" default-y="-5">
    <pitch>
     <step>E</step>
     <alter>-1</alter>
     <octave>4</octave>
    </pitch>
    <duration>512</duration>
    <instrument id="P1-I1" />
    <voice>1</voice>
    <type>half</type>
    <accidental>flat</accidental>
    <stem>up</stem>
    <staff>1</staff>
    <lyric default-y="-80" number="part1verse1" color="#000000">
     <syllabic>single</syllabic>
     <text>io</text>
    </lyric>
   </note>
  </measure>
  <!--============== Part: P1, Measure: 4 ==============-->
  <measure number="4" width="335">
   <attributes>
    <time color="#000000">
     <beats>4</beats>
     <beat-type>2</beat-type>
    </time>
   </attributes>
   <note color="#000000" default-x="33">
    <pitch>
     <step>F</step>
     <octave>4</octave>
    </pitch>
    <duration>1024</duration>
    <instrument id="P1-I1" />
    <voice>1</voice>
    <type>whole</type>
    <staff>1</staff>
    <lyric default-y="-80" number="part1verse1" color="#000000">
     <syllabic>begin</syllabic>
     <text>mo</text>
    </lyric>
   </note>
   <note color="#000000" default-x="156" default-y="-10">
    <pitch>
     <step>D</step>
     <alter>0</alter>
     <octave>4</octave>
    </pitch>
    <duration>512</duration>
    <instrument id="P1-I1" />
    <voice>1</voice>
    <type>half</type>
    <accidental>quarter-sharp</accidental>
    <stem>up</stem>
    <staff>1</staff>
    <lyric default-y="-80" number="part1verse1" color="#000000">
     <syllabic>end</syllabic>
     <text>ro</text>
    </lyric>
   </note>
   <note default-x="245">
    <rest />
    <duration>512</duration>
    <instrument id="P1-I1" />
    <voice>1</voice>
    <type>half</type>
    <staff>1</staff>
   </note>
  </measure>
  <!--============== Part: P1, Measure: 5 ==============-->
  <measure number="5" width="180">
   <note>
    <rest />
    <duration>2048</duration>
    <instrument id="P1-I1" />
    <voice>1</voice>
    <type>whole</type>
    <staff>1</staff>
   </note>
  </measure>
  <!--============== Part: P1, Measure: 6 ==============-->
  <measure number="6" width="678">
   <print new-system="yes">
    <system-layout>
     <system-margins>
      <left-margin>22</left-margin>
      <right-margin>0</right-margin>
     </system-margins>
     <system-distance>120</system-distance>
    </system-layout>
   </print>
   <attributes>
    <staff-details number="1" print-object="yes" />
   </attributes>
   <direction>
    <direction-type>
     <words default-x="51" default-y="58" justify="left" valign="middle" font-family="Times New Roman" font-style="normal" font-size="7.6735" font-weight="normal">O Miseria T 33 - 35, ok</words>
    </direction-type>
    <voice>1</voice>
    <staff>1</staff>
   </direction>
   <direction>
    <direction-type>
     <metronome default-y="13" color="#000000" font-family="Opus Text Std" font-style="normal" font-size="11.56" font-weight="normal">
      <beat-unit>quarter</beat-unit>
      <per-minute>100</per-minute>
     </metronome>
    </direction-type>
    <voice>1</voice>
    <staff>1</staff>
   </direction>
   <note color="#000000" default-x="57">
    <pitch>
     <step>C</step>
     <alter>0</alter>
     <octave>5</octave>
    </pitch>
    <duration>2048</duration>
    <instrument id="P1-I1" />
    <voice>1</voice>
    <type>breve</type>
    <accidental>quarter-sharp</accidental>
    <staff>1</staff>
    <lyric default-y="-80" number="part1verse1" color="#000000">
     <syllabic>begin</syllabic>
     <text>ma</text>
    </lyric>
   </note>
  </measure>
  <!--============== Part: P1, Measure: 7 ==============-->
  <measure number="7" width="516">
   <note color="#000000" default-x="20">
    <pitch>
     <step>C</step>
     <alter>1</alter>
     <octave>5</octave>
    </pitch>
    <duration>1024</duration>
    <instrument id="P1-I1" />
    <voice>1</voice>
    <type>whole</type>
    <accidental>three-quarters-sharp</accidental>
    <staff>1</staff>
    <lyric default-y="-80" number="part1verse1" color="#000000">
     <syllabic>end</syllabic>
     <text>le,</text>
    </lyric>
   </note>
   <note color="#000000" default-x="181" default-y="-45">
    <pitch>
     <step>D</step>
     <alter>0</alter>
     <octave>5</octave>
    </pitch>
    <duration>480</duration>
    <instrument id="P1-I1" />
    <voice>1</voice>
    <type>quarter</type>
    <dot />
    <dot />
    <dot />
    <accidental>quarter-sharp</accidental>
    <stem>down</stem>
    <staff>1</staff>
    <lyric default-y="-80" number="part1verse1" color="#000000">
     <syllabic>single</syllabic>
     <text>più</text>
    </lyric>
   </note>
   <note default-x="291">
    <rest />
    <duration>32</duration>
    <instrument id="P1-I1" />
    <voice>1</voice>
    <type>32nd</type>
    <staff>1</staff>
   </note>
   <note color="#000000" default-x="324" default-y="-20">
    <pitch>
     <step>D</step>
     <alter>0</alter>
     <octave>5</octave>
    </pitch>
    <duration>224</duration>
    <instrument id="P1-I1" />
    <voice>1</voice>
    <type>eighth</type>
    <dot />
    <dot />
    <accidental>quarter-sharp</accidental>
    <stem>down</stem>
    <staff>1</staff>
    <lyric default-y="-80" number="part1verse1" color="#000000">
     <syllabic>single</syllabic>
     <text>de</text>
    </lyric>
   </note>
   <note default-x="387">
    <rest />
    <duration>32</duration>
    <instrument id="P1-I1" />
    <voice>1</voice>
    <type>32nd</type>
    <staff>1</staff>
   </note>
   <note color="#000000" default-x="420" default-y="-45">
    <pitch>
     <step>D</step>
     <alter>0</alter>
     <octave>5</octave>
    </pitch>
    <duration>256</duration>
    <instrument id="P1-I1" />
    <voice>1</voice>
    <type>quarter</type>
    <accidental>quarter-sharp</accidental>
    <stem>down</stem>
    <staff>1</staff>
    <lyric default-y="-80" number="part1verse1" color="#000000">
     <syllabic>single</syllabic>
     <text>la</text>
    </lyric>
   </note>
  </measure>
  <!--============== Part: P1, Measure: 8 ==============-->
  <measure number="8" width="423">
   <note color="#000000" default-x="15" default-y="-45">
    <pitch>
     <step>D</step>
     <alter>0</alter>
     <octave>5</octave>
    </pitch>
    <duration>512</duration>
    <instrument id="P1-I1" />
    <voice>1</voice>
    <type>half</type>
    <accidental>quarter-sharp</accidental>
    <stem>down</stem>
    <staff>1</staff>
    <lyric default-y="-80" number="part1verse1" color="#000000">
     <syllabic>begin</syllabic>
     <text>mor</text>
    </lyric>
   </note>
   <note color="#000000" default-x="131" default-y="-40">
    <pitch>
     <step>E</step>
     <alter>-1</alter>
     <octave>5</octave>
    </pitch>
    <duration>512</duration>
    <instrument id="P1-I1" />
    <voice>1</voice>
    <type>half</type>
    <accidental>flat</accidental>
    <stem>down</stem>
    <staff>1</staff>
    <lyric default-y="-80" number="part1verse1" color="#000000">
     <syllabic>end</syllabic>
     <text>te</text>
    </lyric>
   </note>
   <note default-x="247">
    <rest />
    <duration>1024</duration>
    <instrument id="P1-I1" />
    <voice>1</voice>
    <type>whole</type>
    <staff>1</staff>
   </note>
   <barline>
    <bar-style>light-heavy</bar-style>
   </barline>
  </measure>
 </part>
 <part id="P2">
  <!--============== Part: P2, Measure: 1 ==============-->
  <measure number="1" width="359">
   <print new-page="yes">
    <system-layout>
     <system-margins>
      <left-margin>22</left-margin>
      <right-margin>0</right-margin>
     </system-margins>
    </system-layout>
    <staff-layout number="1">
     <staff-distance>90</staff-distance>
    </staff-layout>
   </print>
   <attributes>
    <divisions>256</divisions>
    <key color="#000000">
     <fifths>0</fifths>
     <mode>none</mode>
    </key>
    <time color="#000000">
     <beats>4</beats>
     <beat-type>4</beat-type>
    </time>
    <staves>1</staves>
    <clef number="1" color="#000000">
     <sign>G</sign>
     <line>2</line>
    </clef>
    <staff-details number="1" print-object="yes" />
   </attributes>
   <note default-x="57">
    <rest />
    <duration>512</duration>
    <instrument id="P2-I1" />
    <voice>1</voice>
    <type>half</type>
    <staff>1</staff>
   </note>
   <note color="#000000" default-x="146" default-y="-20">
    <pitch>
     <step>B</step>
     <alter>0</alter>
     <octave>3</octave>
    </pitch>
    <duration>512</duration>
    <instrument id="P2-I1" />
    <voice>1</voice>
    <type>half</type>
    <accidental>quarter-flat</accidental>
    <stem>up</stem>
    <staff>1</staff>
    <lyric default-y="-85" number="part2verse1" color="#000000">
     <syllabic>single</syllabic>
     <text>Io</text>
    </lyric>
   </note>
   <note color="#000000" default-x="235">
    <pitch>
     <step>B</step>
     <octave>3</octave>
    </pitch>
    <duration>1024</duration>
    <instrument id="P2-I1" />
    <voice>1</voice>
    <type>whole</type>
    <accidental>natural</accidental>
    <staff>1</staff>
    <lyric default-y="-85" number="part2verse1" color="#000000">
     <syllabic>begin</syllabic>
     <text>mo</text>
    </lyric>
   </note>
  </measure>
  <!--============== Part: P2, Measure: 2 ==============-->
  <measure number="2" width="467">
   <note color="#000000" default-x="23" default-y="-15">
    <pitch>
     <step>C</step>
     <alter>1</alter>
     <octave>4</octave>
    </pitch>
    <duration>480</duration>
    <instrument id="P2-I1" />
    <voice>1</voice>
    <type>quarter</type>
    <dot />
    <dot />
    <dot />
    <accidental>three-quarters-sharp</accidental>
    <stem>up</stem>
    <staff>1</staff>
    <lyric default-y="-85" number="part2verse1" color="#000000">
     <syllabic>end</syllabic>
     <text>ro,</text>
    </lyric>
   </note>
   <note default-x="125">
    <rest />
    <duration>32</duration>
    <instrument id="P2-I1" />
    <voice>1</voice>
    <type>32nd</type>
    <staff>1</staff>
   </note>
   <note color="#000000" default-x="165" default-y="-15">
    <pitch>
     <step>C</step>
     <alter>1</alter>
     <octave>4</octave>
    </pitch>
    <duration>480</duration>
    <instrument id="P2-I1" />
    <voice>1</voice>
    <type>quarter</type>
    <dot />
    <dot />
    <dot />
    <accidental>three-quarters-sharp</accidental>
    <stem>up</stem>
    <staff>1</staff>
    <lyric default-y="-85" number="part2verse1" color="#000000">
     <syllabic>single</syllabic>
     <text>io</text>
    </lyric>
   </note>
   <note default-x="249">
    <rest />
    <duration>32</duration>
    <instrument id="P2-I1" />
    <voice>1</voice>
    <type>32nd</type>
    <staff>1</staff>
   </note>
   <note color="#000000" default-x="289" default-y="-15">
    <pitch>
     <step>C</step>
     <alter>1</alter>
     <octave>4</octave>
    </pitch>
    <duration>512</duration>
    <instrument id="P2-I1" />
    <voice>1</voice>
    <type>half</type>
    <accidental>three-quarters-sharp</accidental>
    <stem>up</stem>
    <staff>1</staff>
    <lyric default-y="-85" number="part2verse1" color="#000000">
     <syllabic>begin</syllabic>
     <text>mo</text>
    </lyric>
   </note>
   <note color="#000000" default-x="378" default-y="-20">
    <pitch>
     <step>B</step>
     <octave>3</octave>
    </pitch>
    <duration>512</duration>
    <instrument id="P2-I1" />
    <voice>1</voice>
    <type>half</type>
    <stem>up</stem>
    <staff>1</staff>
   </note>
  </measure>
  <!--============== Part: P2, Measure: 3 ==============-->
  <measure number="3" width="276">
   <attributes>
    <time color="#000000">
     <beats>2</beats>
     <beat-type>2</beat-type>
    </time>
   </attributes>
   <note color="#000000" default-x="33" default-y="-15">
    <pitch>
     <step>C</step>
     <octave>4</octave>
    </pitch>
    <duration>480</duration>
    <instrument id="P2-I1" />
    <voice>1</voice>
    <type>quarter</type>
    <dot />
    <dot />
    <dot />
    <stem>up</stem>
    <staff>1</staff>
    <lyric default-y="-85" number="part2verse1" color="#000000">
     <syllabic>end</syllabic>
     <text>ro,ss</text>
    </lyric>
   </note>
   <note default-x="142">
    <rest />
    <duration>32</duration>
    <instrument id="P2-I1" />
    <voice>1</voice>
    <type>32nd</type>
    <staff>1</staff>
   </note>
   <note color="#000000" default-x="166" default-y="-15">
    <pitch>
     <step>C</step>
     <octave>4</octave>
    </pitch>
    <duration>480</duration>
    <instrument id="P2-I1" />
    <voice>1</voice>
    <type>quarter</type>
    <dot />
    <dot />
    <dot />
    <stem>up</stem>
    <staff>1</staff>
    <lyric default-y="-85" number="part2verse1" color="#000000">
     <syllabic>single</syllabic>
     <text>Io</text>
    </lyric>
   </note>
   <note default-x="251">
    <rest />
    <duration>32</duration>
    <instrument id="P2-I1" />
    <voice>1</voice>
    <type>32nd</type>
    <staff>1</staff>
   </note>
  </measure>
  <!--============== Part: P2, Measure: 4 ==============-->
  <measure number="4" width="335">
   <attributes>
    <time color="#000000">
     <beats>4</beats>
     <beat-type>2</beat-type>
    </time>
   </attributes>
   <note color="#000000" default-x="33">
    <pitch>
     <step>C</step>
     <octave>4</octave>
    </pitch>
    <duration>1024</duration>
    <instrument id="P2-I1" />
    <voice>1</voice>
    <type>whole</type>
    <staff>1</staff>
    <lyric default-y="-85" number="part2verse1" color="#000000">
     <syllabic>begin</syllabic>
     <text>mo</text>
    </lyric>
   </note>
   <note color="#000000" default-x="156">
    <pitch>
     <step>B</step>
     <octave>3</octave>
    </pitch>
    <duration>1024</duration>
    <instrument id="P2-I1" />
    <voice>1</voice>
    <type>whole</type>
    <staff>1</staff>
    <lyric default-y="-85" number="part2verse1" color="#000000">
     <syllabic>end</syllabic>
     <text>ro,</text>
    </lyric>
   </note>
  </measure>
  <!--============== Part: P2, Measure: 5 ==============-->
  <measure number="5" width="180">
   <note>
    <rest />
    <duration>2048</duration>
    <instrument id="P2-I1" />
    <voice>1</voice>
    <type>whole</type>
    <staff>1</staff>
   </note>
  </measure>
  <!--============== Part: P2, Measure: 6 ==============-->
  <measure number="6" width="678">
   <print new-system="yes">
    <system-layout>
     <system-margins>
      <left-margin>22</left-margin>
      <right-margin>0</right-margin>
     </system-margins>
    </system-layout>
    <staff-layout number="1">
     <staff-distance>90</staff-distance>
    </staff-layout>
   </print>
   <attributes>
    <staff-details number="1" print-object="yes" />
   </attributes>
   <note color="#000000" default-x="57">
    <pitch>
     <step>F</step>
     <alter>0</alter>
     <octave>4</octave>
    </pitch>
    <duration>480</duration>
    <instrument id="P2-I1" />
    <voice>1</voice>
    <type>quarter</type>
    <dot />
    <dot />
    <dot />
    <accidental>quarter-sharp</accidental>
    <stem>up</stem>
    <staff>1</staff>
    <lyric default-y="-80" number="part2verse1" color="#000000">
     <syllabic>single</syllabic>
     <text>del</text>
    </lyric>
   </note>
   <note default-x="168">
    <rest />
    <duration>32</duration>
    <instrument id="P2-I1" />
    <voice>1</voice>
    <type>32nd</type>
    <staff>1</staff>
   </note>
   <note color="#000000" default-x="200">
    <pitch>
     <step>F</step>
     <alter>0</alter>
     <octave>4</octave>
    </pitch>
    <duration>512</duration>
    <instrument id="P2-I1" />
    <voice>1</voice>
    <type>half</type>
    <accidental>quarter-sharp</accidental>
    <stem>up</stem>
    <staff>1</staff>
    <lyric default-y="-80" number="part2verse1" color="#000000">
     <syllabic>single</syllabic>
     <text>mio</text>
    </lyric>
   </note>
   <note color="#000000" default-x="393" default-y="5">
    <pitch>
     <step>G</step>
     <alter>0</alter>
     <octave>4</octave>
    </pitch>
    <duration>512</duration>
    <instrument id="P2-I1" />
    <voice>1</voice>
    <type>half</type>
    <accidental>quarter-sharp</accidental>
    <stem>up</stem>
    <staff>1</staff>
    <lyric default-y="-80" number="part2verse1" color="#000000">
     <syllabic>begin</syllabic>
     <text>ma</text>
    </lyric>
   </note>
   <note color="#000000" default-x="562" default-y="5">
    <pitch>
     <step>G</step>
     <alter>1</alter>
     <octave>4</octave>
    </pitch>
    <duration>512</duration>
    <instrument id="P2-I1" />
    <voice>1</voice>
    <type>half</type>
    <accidental>three-quarters-sharp</accidental>
    <stem>up</stem>
    <staff>1</staff>
   </note>
  </measure>
  <!--============== Part: P2, Measure: 7 ==============-->
  <measure number="7" width="516">
   <note color="#000000" default-x="20">
    <pitch>
     <step>A</step>
     <alter>0</alter>
     <octave>4</octave>
    </pitch>
    <duration>1024</duration>
    <instrument id="P2-I1" />
    <voice>1</voice>
    <type>whole</type>
    <accidental>quarter-sharp</accidental>
    <staff>1</staff>
    <lyric default-y="-80" number="part2verse1" color="#000000">
     <syllabic>end</syllabic>
     <text>le,</text>
    </lyric>
   </note>
   <note color="#000000" default-x="181" default-y="5">
    <pitch>
     <step>G</step>
     <octave>4</octave>
    </pitch>
    <duration>480</duration>
    <instrument id="P2-I1" />
    <voice>1</voice>
    <type>quarter</type>
    <dot />
    <dot />
    <dot />
    <stem>up</stem>
    <staff>1</staff>
    <lyric default-y="-80" number="part2verse1" color="#000000">
     <syllabic>single</syllabic>
     <text>più</text>
    </lyric>
   </note>
   <note default-x="291">
    <rest />
    <duration>32</duration>
    <instrument id="P2-I1" />
    <voice>1</voice>
    <type>32nd</type>
    <staff>1</staff>
   </note>
   <note color="#000000" default-x="324" default-y="-20">
    <pitch>
     <step>G</step>
     <octave>4</octave>
    </pitch>
    <duration>224</duration>
    <instrument id="P2-I1" />
    <voice>1</voice>
    <type>eighth</type>
    <dot />
    <dot />
    <stem>up</stem>
    <staff>1</staff>
    <lyric default-y="-80" number="part2verse1" color="#000000">
     <syllabic>single</syllabic>
     <text>de</text>
    </lyric>
   </note>
   <note default-x="387">
    <rest />
    <duration>32</duration>
    <instrument id="P2-I1" />
    <voice>1</voice>
    <type>32nd</type>
    <staff>1</staff>
   </note>
   <note color="#000000" default-x="420" default-y="-20">
    <pitch>
     <step>G</step>
     <octave>4</octave>
    </pitch>
    <duration>224</duration>
    <instrument id="P2-I1" />
    <voice>1</voice>
    <type>eighth</type>
    <dot />
    <dot />
    <stem>up</stem>
    <staff>1</staff>
    <lyric default-y="-80" number="part2verse1" color="#000000">
     <syllabic>single</syllabic>
     <text>la</text>
    </lyric>
   </note>
   <note default-x="484">
    <rest />
    <duration>32</duration>
    <instrument id="P2-I1" />
    <voice>1</voice>
    <type>32nd</type>
    <staff>1</staff>
   </note>
  </measure>
  <!--============== Part: P2, Measure: 8 ==============-->
  <measure number="8" width="423">
   <note color="#000000" default-x="15" default-y="10">
    <pitch>
     <step>A</step>
     <alter>-1</alter>
     <octave>4</octave>
    </pitch>
    <duration>512</duration>
    <instrument id="P2-I1" />
    <voice>1</voice>
    <type>half</type>
    <accidental>flat</accidental>
    <stem>up</stem>
    <staff>1</staff>
    <lyric default-y="-80" number="part2verse1" color="#000000">
     <syllabic>begin</syllabic>
     <text>mor</text>
    </lyric>
   </note>
   <note color="#000000" default-x="131" default-y="5">
    <pitch>
     <step>G</step>
     <octave>4</octave>
    </pitch>
    <duration>512</duration>
    <instrument id="P2-I1" />
    <voice>1</voice>
    <type>half</type>
    <stem>up</stem>
    <staff>1</staff>
    <lyric default-y="-80" number="part2verse1" color="#000000">
     <syllabic>end</syllabic>
     <text>te</text>
    </lyric>
   </note>
   <note default-x="247">
    <rest />
    <duration>1024</duration>
    <instrument id="P2-I1" />
    <voice>1</voice>
    <type>whole</type>
    <staff>1</staff>
   </note>
   <barline>
    <bar-style>light-heavy</bar-style>
   </barline>
  </measure>
 </part>
 <part id="P3">
  <!--============== Part: P3, Measure: 1 ==============-->
  <measure number="1" width="359">
   <print new-page="yes">
    <system-layout>
     <system-margins>
      <left-margin>22</left-margin>
      <right-margin>0</right-margin>
     </system-margins>
    </system-layout>
    <staff-layout number="1">
     <staff-distance>90</staff-distance>
    </staff-layout>
   </print>
   <attributes>
    <divisions>256</divisions>
    <key color="#000000">
     <fifths>0</fifths>
     <mode>none</mode>
    </key>
    <time color="#000000">
     <beats>4</beats>
     <beat-type>4</beat-type>
    </time>
    <staves>1</staves>
    <clef number="1" color="#000000">
     <sign>F</sign>
     <line>4</line>
    </clef>
    <staff-details number="1" print-object="yes" />
   </attributes>
   <note default-x="57">
    <rest />
    <duration>512</duration>
    <instrument id="P3-I1" />
    <voice>1</voice>
    <type>half</type>
    <staff>1</staff>
   </note>
   <note color="#000000" default-x="146" default-y="-45">
    <pitch>
     <step>F</step>
     <alter>0</alter>
     <octave>3</octave>
    </pitch>
    <duration>512</duration>
    <instrument id="P3-I1" />
    <voice>1</voice>
    <type>half</type>
    <accidental>quarter-sharp</accidental>
    <stem>down</stem>
    <staff>1</staff>
    <lyric default-y="-80" number="part3verse1" color="#000000">
     <syllabic>single</syllabic>
     <text>Io</text>
    </lyric>
   </note>
   <note color="#000000" default-x="235">
    <pitch>
     <step>G</step>
     <octave>3</octave>
    </pitch>
    <duration>1024</duration>
    <instrument id="P3-I1" />
    <voice>1</voice>
    <type>whole</type>
    <staff>1</staff>
    <lyric default-y="-80" number="part3verse1" color="#000000">
     <syllabic>begin</syllabic>
     <text>mo</text>
    </lyric>
   </note>
  </measure>
  <!--============== Part: P3, Measure: 2 ==============-->
  <measure number="2" width="467">
   <note color="#000000" default-x="23" default-y="-35">
    <pitch>
     <step>A</step>
     <alter>1</alter>
     <octave>3</octave>
    </pitch>
    <duration>512</duration>
    <instrument id="P3-I1" />
    <voice>1</voice>
    <type>half</type>
    <accidental>three-quarters-sharp</accidental>
    <stem>down</stem>
    <staff>1</staff>
    <lyric default-y="-80" number="part3verse1" color="#000000">
     <syllabic>end</syllabic>
     <text>ro,</text>
    </lyric>
   </note>
   <note default-x="165">
    <rest />
    <duration>512</duration>
    <instrument id="P3-I1" />
    <voice>1</voice>
    <type>half</type>
    <staff>1</staff>
   </note>
   <note default-x="289">
    <rest />
    <duration>1024</duration>
    <instrument id="P3-I1" />
    <voice>1</voice>
    <type>whole</type>
    <staff>1</staff>
   </note>
  </measure>
  <!--============== Part: P3, Measure: 3 ==============-->
  <measure number="3" width="276">
   <attributes>
    <time color="#000000">
     <beats>2</beats>
     <beat-type>2</beat-type>
    </time>
   </attributes>
   <note default-x="33">
    <rest />
    <duration>256</duration>
    <instrument id="P3-I1" />
    <voice>1</voice>
    <type>quarter</type>
    <staff>1</staff>
   </note>
   <note default-x="85">
    <rest />
    <duration>256</duration>
    <instrument id="P3-I1" />
    <voice>1</voice>
    <type>quarter</type>
    <staff>1</staff>
   </note>
   <note color="#000000" default-x="166" default-y="-40">
    <pitch>
     <step>G</step>
     <octave>3</octave>
    </pitch>
    <duration>512</duration>
    <instrument id="P3-I1" />
    <voice>1</voice>
    <type>half</type>
    <stem>down</stem>
    <staff>1</staff>
    <lyric default-y="-80" number="part3verse1" color="#000000">
     <syllabic>single</syllabic>
     <text>Io</text>
    </lyric>
   </note>
  </measure>
  <!--============== Part: P3, Measure: 4 ==============-->
  <measure number="4" width="335">
   <attributes>
    <time color="#000000">
     <beats>4</beats>
     <beat-type>2</beat-type>
    </time>
   </attributes>
   <note color="#000000" default-x="33">
    <pitch>
     <step>F</step>
     <octave>3</octave>
    </pitch>
    <duration>1024</duration>
    <instrument id="P3-I1" />
    <voice>1</voice>
    <type>whole</type>
    <staff>1</staff>
    <lyric default-y="-80" number="part3verse1" color="#000000">
     <syllabic>begin</syllabic>
     <text>mo</text>
    </lyric>
   </note>
   <note color="#000000" default-x="156">
    <pitch>
     <step>G</step>
     <octave>3</octave>
    </pitch>
    <duration>1024</duration>
    <instrument id="P3-I1" />
    <voice>1</voice>
    <type>whole</type>
    <staff>1</staff>
    <lyric default-y="-80" number="part3verse1" color="#000000">
     <syllabic>end</syllabic>
     <text>ro,</text>
    </lyric>
   </note>
  </measure>
  <!--============== Part: P3, Measure: 5 ==============-->
  <measure number="5" width="180">
   <note>
    <rest />
    <duration>2048</duration>
    <instrument id="P3-I1" />
    <voice>1</voice>
    <type>whole</type>
    <staff>1</staff>
   </note>
  </measure>
  <!--============== Part: P3, Measure: 6 ==============-->
  <measure number="6" width="678">
   <print new-system="yes">
    <system-layout>
     <system-margins>
      <left-margin>22</left-margin>
      <right-margin>0</right-margin>
     </system-margins>
    </system-layout>
    <staff-layout number="1">
     <staff-distance>90</staff-distance>
    </staff-layout>
   </print>
   <attributes>
    <staff-details number="1" print-object="yes" />
   </attributes>
   <note color="#000000" default-x="57" default-y="-35">
    <pitch>
     <step>A</step>
     <alter>-1</alter>
     <octave>3</octave>
    </pitch>
    <duration>512</duration>
    <instrument id="P3-I1" />
    <voice>1</voice>
    <type>half</type>
    <accidental>flat</accidental>
    <stem>down</stem>
    <staff>1</staff>
    <lyric default-y="-80" number="part3verse1" color="#000000">
     <syllabic>single</syllabic>
     <text>tà</text>
    </lyric>
   </note>
   <note color="#000000" default-x="200" default-y="-20">
    <pitch>
     <step>A</step>
     <alter>0</alter>
     <octave>3</octave>
    </pitch>
    <duration>224</duration>
    <instrument id="P3-I1" />
    <voice>1</voice>
    <type>eighth</type>
    <dot />
    <dot />
    <accidental>quarter-sharp</accidental>
    <stem>down</stem>
    <staff>1</staff>
    <lyric default-y="-80" number="part3verse1" color="#000000">
     <syllabic>single</syllabic>
     <text>del</text>
    </lyric>
   </note>
   <note default-x="268">
    <rest />
    <duration>32</duration>
    <instrument id="P3-I1" />
    <voice>1</voice>
    <type>32nd</type>
    <staff>1</staff>
   </note>
   <note color="#000000" default-x="300" default-y="-35">
    <pitch>
     <step>A</step>
     <alter>0</alter>
     <octave>3</octave>
    </pitch>
    <duration>256</duration>
    <instrument id="P3-I1" />
    <voice>1</voice>
    <type>quarter</type>
    <accidental>quarter-sharp</accidental>
    <stem>down</stem>
    <staff>1</staff>
    <lyric default-y="-80" number="part3verse1" color="#000000">
     <syllabic>single</syllabic>
     <text>mio</text>
    </lyric>
   </note>
   <note color="#000000" default-x="393" default-y="-25">
    <pitch>
     <step>C</step>
     <alter>0</alter>
     <octave>4</octave>
    </pitch>
    <duration>512</duration>
    <instrument id="P3-I1" />
    <voice>1</voice>
    <type>half</type>
    <accidental>quarter-sharp</accidental>
    <stem>down</stem>
    <staff>1</staff>
    <lyric default-y="-80" number="part3verse1" color="#000000">
     <syllabic>begin</syllabic>
     <text>ma</text>
    </lyric>
   </note>
   <note color="#000000" default-x="562" default-y="-20">
    <pitch>
     <step>D</step>
     <alter>0</alter>
     <octave>4</octave>
    </pitch>
    <duration>512</duration>
    <instrument id="P3-I1" />
    <voice>1</voice>
    <type>half</type>
    <accidental>quarter-sharp</accidental>
    <stem>down</stem>
    <staff>1</staff>
   </note>
  </measure>
  <!--============== Part: P3, Measure: 7 ==============-->
  <measure number="7" width="516">
   <note color="#000000" default-x="20">
    <pitch>
     <step>E</step>
     <alter>0</alter>
     <octave>4</octave>
    </pitch>
    <duration>1024</duration>
    <instrument id="P3-I1" />
    <voice>1</voice>
    <type>whole</type>
    <accidental>quarter-sharp</accidental>
    <staff>1</staff>
    <lyric default-y="-80" number="part3verse1" color="#000000">
     <syllabic>end</syllabic>
     <text>le,</text>
    </lyric>
   </note>
   <note color="#000000" default-x="181" default-y="-20">
    <pitch>
     <step>D</step>
     <alter>0</alter>
     <octave>4</octave>
    </pitch>
    <duration>480</duration>
    <instrument id="P3-I1" />
    <voice>1</voice>
    <type>quarter</type>
    <dot />
    <dot />
    <dot />
    <accidental>quarter-sharp</accidental>
    <stem>down</stem>
    <staff>1</staff>
    <lyric default-y="-80" number="part3verse1" color="#000000">
     <syllabic>single</syllabic>
     <text>più</text>
    </lyric>
   </note>
   <note default-x="291">
    <rest />
    <duration>32</duration>
    <instrument id="P3-I1" />
    <voice>1</voice>
    <type>32nd</type>
    <staff>1</staff>
   </note>
   <note color="#000000" default-x="324" default-y="-20">
    <pitch>
     <step>D</step>
     <alter>0</alter>
     <octave>4</octave>
    </pitch>
    <duration>224</duration>
    <instrument id="P3-I1" />
    <voice>1</voice>
    <type>eighth</type>
    <dot />
    <dot />
    <accidental>quarter-sharp</accidental>
    <stem>down</stem>
    <staff>1</staff>
    <lyric default-y="-80" number="part3verse1" color="#000000">
     <syllabic>single</syllabic>
     <text>de</text>
    </lyric>
   </note>
   <note default-x="387">
    <rest />
    <duration>32</duration>
    <instrument id="P3-I1" />
    <voice>1</voice>
    <type>32nd</type>
    <staff>1</staff>
   </note>
   <note color="#000000" default-x="420" default-y="-20">
    <pitch>
     <step>D</step>
     <alter>0</alter>
     <octave>4</octave>
    </pitch>
    <duration>224</duration>
    <instrument id="P3-I1" />
    <voice>1</voice>
    <type>eighth</type>
    <dot />
    <dot />
    <accidental>quarter-sharp</accidental>
    <stem>down</stem>
    <staff>1</staff>
    <lyric default-y="-80" number="part3verse1" color="#000000">
     <syllabic>single</syllabic>
     <text>la</text>
    </lyric>
   </note>
   <note default-x="484">
    <rest />
    <duration>32</duration>
    <instrument id="P3-I1" />
    <voice>1</voice>
    <type>32nd</type>
    <staff>1</staff>
   </note>
  </measure>
  <!--============== Part: P3, Measure: 8 ==============-->
  <measure number="8" width="423">
   <note color="#000000" default-x="15" default-y="-20">
    <pitch>
     <step>D</step>
     <alter>0</alter>
     <octave>4</octave>
    </pitch>
    <duration>512</duration>
    <instrument id="P3-I1" />
    <voice>1</voice>
    <type>half</type>
    <accidental>quarter-sharp</accidental>
    <stem>down</stem>
    <staff>1</staff>
    <lyric default-y="-80" number="part3verse1" color="#000000">
     <syllabic>begin</syllabic>
     <text>mor</text>
    </lyric>
   </note>
   <note color="#000000" default-x="131" default-y="-40">
    <pitch>
     <step>G</step>
     <octave>3</octave>
    </pitch>
    <duration>512</duration>
    <instrument id="P3-I1" />
    <voice>1</voice>
    <type>half</type>
    <stem>down</stem>
    <staff>1</staff>
    <lyric default-y="-80" number="part3verse1" color="#000000">
     <syllabic>end</syllabic>
     <text>te</text>
    </lyric>
   </note>
   <note default-x="247">
    <rest />
    <duration>1024</duration>
    <instrument id="P3-I1" />
    <voice>1</voice>
    <type>whole</type>
    <staff>1</staff>
   </note>
   <barline>
    <bar-style>light-heavy</bar-style>
   </barline>
  </measure>
 </part>
 <part id="P4">
  <!--============== Part: P4, Measure: 1 ==============-->
  <measure number="1" width="359">
   <print new-page="yes">
    <system-layout>
     <system-margins>
      <left-margin>22</left-margin>
      <right-margin>0</right-margin>
     </system-margins>
    </system-layout>
    <staff-layout number="1">
     <staff-distance>90</staff-distance>
    </staff-layout>
   </print>
   <attributes>
    <divisions>256</divisions>
    <key color="#000000">
     <fifths>0</fifths>
     <mode>none</mode>
    </key>
    <time color="#000000">
     <beats>4</beats>
     <beat-type>4</beat-type>
    </time>
    <staves>1</staves>
    <clef number="1" color="#000000">
     <sign>F</sign>
     <line>4</line>
    </clef>
    <staff-details number="1" print-object="yes" />
   </attributes>
   <note default-x="57">
    <rest />
    <duration>512</duration>
    <instrument id="P4-I1" />
    <voice>1</voice>
    <type>half</type>
    <staff>1</staff>
   </note>
   <note color="#000000" default-x="146" default-y="15">
    <pitch>
     <step>D</step>
     <alter>0</alter>
     <octave>3</octave>
    </pitch>
    <duration>512</duration>
    <instrument id="P4-I1" />
    <voice>1</voice>
    <type>half</type>
    <accidental>quarter-flat</accidental>
    <stem>up</stem>
    <staff>1</staff>
    <lyric default-y="-80" number="part4verse1" color="#000000">
     <syllabic>single</syllabic>
     <text>Io</text>
    </lyric>
   </note>
   <note color="#000000" default-x="235">
    <pitch>
     <step>D</step>
     <alter>0</alter>
     <octave>3</octave>
    </pitch>
    <duration>1024</duration>
    <instrument id="P4-I1" />
    <voice>1</voice>
    <type>whole</type>
    <accidental>quarter-sharp</accidental>
    <staff>1</staff>
    <lyric default-y="-80" number="part4verse1" color="#000000">
     <syllabic>begin</syllabic>
     <text>mo</text>
    </lyric>
   </note>
  </measure>
  <!--============== Part: P4, Measure: 2 ==============-->
  <measure number="2" width="467">
   <note color="#000000" default-x="23" default-y="-45">
    <pitch>
     <step>F</step>
     <alter>1</alter>
     <octave>3</octave>
    </pitch>
    <duration>512</duration>
    <instrument id="P4-I1" />
    <voice>1</voice>
    <type>half</type>
    <accidental>three-quarters-sharp</accidental>
    <stem>down</stem>
    <staff>1</staff>
    <lyric default-y="-80" number="part4verse1" color="#000000">
     <syllabic>end</syllabic>
     <text>ro,</text>
    </lyric>
   </note>
   <note color="#000000" default-x="165" default-y="-35">
    <pitch>
     <step>A</step>
     <alter>0</alter>
     <octave>3</octave>
    </pitch>
    <duration>512</duration>
    <instrument id="P4-I1" />
    <voice>1</voice>
    <type>half</type>
    <accidental>quarter-sharp</accidental>
    <stem>down</stem>
    <staff>1</staff>
    <lyric default-y="-80" number="part4verse1" color="#000000">
     <syllabic>single</syllabic>
     <text>Io</text>
    </lyric>
   </note>
   <note color="#000000" default-x="289">
    <pitch>
     <step>F</step>
     <alter>1</alter>
     <octave>3</octave>
    </pitch>
    <duration>1024</duration>
    <instrument id="P4-I1" />
    <voice>1</voice>
    <type>whole</type>
    <accidental>three-quarters-sharp</accidental>
    <staff>1</staff>
    <lyric default-y="-80" number="part4verse1" color="#000000">
     <syllabic>begin</syllabic>
     <text>mo</text>
    </lyric>
   </note>
  </measure>
  <!--============== Part: P4, Measure: 3 ==============-->
  <measure number="3" width="276">
   <attributes>
    <time color="#000000">
     <beats>2</beats>
     <beat-type>2</beat-type>
    </time>
   </attributes>
   <note color="#000000" default-x="33" default-y="-40">
    <pitch>
     <step>G</step>
     <octave>3</octave>
    </pitch>
    <duration>512</duration>
    <instrument id="P4-I1" />
    <voice>1</voice>
    <type>half</type>
    <stem>down</stem>
    <staff>1</staff>
    <lyric default-y="-80" number="part4verse1" color="#000000">
     <syllabic>end</syllabic>
     <text>ro,</text>
    </lyric>
   </note>
   <note default-x="166">
    <rest />
    <duration>512</duration>
    <instrument id="P4-I1" />
    <voice>1</voice>
    <type>half</type>
    <staff>1</staff>
   </note>
  </measure>
  <!--============== Part: P4, Measure: 4 ==============-->
  <measure number="4" width="335">
   <attributes>
    <time color="#000000">
     <beats>4</beats>
     <beat-type>2</beat-type>
    </time>
   </attributes>
   <note default-x="33">
    <rest />
    <duration>2048</duration>
    <instrument id="P4-I1" />
    <voice>1</voice>
    <type>whole</type>
    <staff>1</staff>
   </note>
  </measure>
  <!--============== Part: P4, Measure: 5 ==============-->
  <measure number="5" width="180">
   <note>
    <rest />
    <duration>2048</duration>
    <instrument id="P4-I1" />
    <voice>1</voice>
    <type>whole</type>
    <staff>1</staff>
   </note>
  </measure>
  <!--============== Part: P4, Measure: 6 ==============-->
  <measure number="6" width="678">
   <print new-system="yes">
    <system-layout>
     <system-margins>
      <left-margin>22</left-margin>
      <right-margin>0</right-margin>
     </system-margins>
    </system-layout>
    <staff-layout number="1">
     <staff-distance>90</staff-distance>
    </staff-layout>
   </print>
   <attributes>
    <staff-details number="1" print-object="yes" />
   </attributes>
   <note color="#000000" default-x="57">
    <pitch>
     <step>C</step>
     <alter>0</alter>
     <octave>4</octave>
    </pitch>
    <duration>1024</duration>
    <instrument id="P4-I1" />
    <voice>1</voice>
    <type>whole</type>
    <accidental>quarter-sharp</accidental>
    <staff>1</staff>
    <lyric default-y="-80" number="part4verse1" color="#000000">
     <syllabic>begin</syllabic>
     <text>ma</text>
    </lyric>
   </note>
   <note color="#000000" default-x="393">
    <pitch>
     <step>E</step>
     <alter>0</alter>
     <octave>3</octave>
    </pitch>
    <duration>1024</duration>
    <instrument id="P4-I1" />
    <voice>1</voice>
    <type>whole</type>
    <accidental>quarter-flat</accidental>
    <staff>1</staff>
   </note>
  </measure>
  <!--============== Part: P4, Measure: 7 ==============-->
  <measure number="7" width="516">
   <note color="#000000" default-x="20">
    <pitch>
     <step>E</step>
     <alter>0</alter>
     <octave>3</octave>
    </pitch>
    <duration>1024</duration>
    <instrument id="P4-I1" />
    <voice>1</voice>
    <type>whole</type>
    <accidental>quarter-sharp</accidental>
    <staff>1</staff>
    <lyric default-y="-80" number="part4verse1" color="#000000">
     <syllabic>end</syllabic>
     <text>le,</text>
    </lyric>
   </note>
   <note color="#000000" default-x="181" default-y="-30">
    <pitch>
     <step>B</step>
     <alter>0</alter>
     <octave>3</octave>
    </pitch>
    <duration>480</duration>
    <instrument id="P4-I1" />
    <voice>1</voice>
    <type>quarter</type>
    <dot />
    <dot />
    <dot />
    <accidental>quarter-flat</accidental>
    <stem>down</stem>
    <staff>1</staff>
    <lyric default-y="-80" number="part4verse1" color="#000000">
     <syllabic>single</syllabic>
     <text>più</text>
    </lyric>
   </note>
   <note default-x="291">
    <rest />
    <duration>32</duration>
    <instrument id="P4-I1" />
    <voice>1</voice>
    <type>32nd</type>
    <staff>1</staff>
   </note>
   <note color="#000000" default-x="324" default-y="-20">
    <pitch>
     <step>B</step>
     <alter>0</alter>
     <octave>3</octave>
    </pitch>
    <duration>224</duration>
    <instrument id="P4-I1" />
    <voice>1</voice>
    <type>eighth</type>
    <dot />
    <dot />
    <accidental>quarter-flat</accidental>
    <stem>down</stem>
    <staff>1</staff>
    <lyric default-y="-80" number="part4verse1" color="#000000">
     <syllabic>single</syllabic>
     <text>de</text>
    </lyric>
   </note>
   <note default-x="387">
    <rest />
    <duration>32</duration>
    <instrument id="P4-I1" />
    <voice>1</voice>
    <type>32nd</type>
    <staff>1</staff>
   </note>
   <note color="#000000" default-x="420" default-y="-30">
    <pitch>
     <step>B</step>
     <alter>0</alter>
     <octave>3</octave>
    </pitch>
    <duration>256</duration>
    <instrument id="P4-I1" />
    <voice>1</voice>
    <type>quarter</type>
    <accidental>quarter-flat</accidental>
    <stem>down</stem>
    <staff>1</staff>
    <lyric default-y="-80" number="part4verse1" color="#000000">
     <syllabic>single</syllabic>
     <text>la</text>
    </lyric>
   </note>
  </measure>
  <!--============== Part: P4, Measure: 8 ==============-->
  <measure number="8" width="423">
   <note color="#000000" default-x="15" default-y="-35">
    <pitch>
     <step>A</step>
     <alter>-1</alter>
     <octave>3</octave>
    </pitch>
    <duration>512</duration>
    <instrument id="P4-I1" />
    <voice>1</voice>
    <type>half</type>
    <accidental>flat</accidental>
    <stem>down</stem>
    <staff>1</staff>
    <lyric default-y="-80" number="part4verse1" color="#000000">
     <syllabic>begin</syllabic>
     <text>mor</text>
    </lyric>
   </note>
   <note color="#000000" default-x="131" default-y="-30">
    <pitch>
     <step>B</step>
     <alter>0</alter>
     <octave>3</octave>
    </pitch>
    <duration>512</duration>
    <instrument id="P4-I1" />
    <voice>1</voice>
    <type>half</type>
    <accidental>quarter-flat</accidental>
    <stem>down</stem>
    <staff>1</staff>
    <lyric default-y="-80" number="part4verse1" color="#000000">
     <syllabic>end</syllabic>
     <text>te</text>
    </lyric>
   </note>
   <note default-x="247">
    <rest />
    <duration>1024</duration>
    <instrument id="P4-I1" />
    <voice>1</voice>
    <type>whole</type>
    <staff>1</staff>
   </note>
   <barline>
    <bar-style>light-heavy</bar-style>
   </barline>
  </measure>
 </part>
 <part id="P5">
  <!--============== Part: P5, Measure: 1 ==============-->
  <measure number="1" width="359">
   <print new-page="yes">
    <system-layout>
     <system-margins>
      <left-margin>22</left-margin>
      <right-margin>0</right-margin>
     </system-margins>
    </system-layout>
    <staff-layout number="1">
     <staff-distance>90</staff-distance>
    </staff-layout>
   </print>
   <attributes>
    <divisions>256</divisions>
    <key color="#000000">
     <fifths>0</fifths>
     <mode>none</mode>
    </key>
    <time color="#000000">
     <beats>4</beats>
     <beat-type>4</beat-type>
    </time>
    <staves>1</staves>
    <clef number="1" color="#000000">
     <sign>F</sign>
     <line>4</line>
    </clef>
    <staff-details number="1" print-object="yes" />
   </attributes>
   <note default-x="57">
    <rest />
    <duration>512</duration>
    <instrument id="P5-I1" />
    <voice>1</voice>
    <type>half</type>
    <staff>1</staff>
   </note>
   <note color="#000000" default-x="146" default-y="5">
    <pitch>
     <step>B</step>
     <alter>0</alter>
     <octave>2</octave>
    </pitch>
    <duration>512</duration>
    <instrument id="P5-I1" />
    <voice>1</voice>
    <type>half</type>
    <accidental>quarter-flat</accidental>
    <stem>up</stem>
    <staff>1</staff>
    <lyric default-y="-80" number="part5verse1" color="#000000">
     <syllabic>single</syllabic>
     <text>Io</text>
    </lyric>
   </note>
   <note color="#000000" default-x="235">
    <pitch>
     <step>G</step>
     <octave>2</octave>
    </pitch>
    <duration>1024</duration>
    <instrument id="P5-I1" />
    <voice>1</voice>
    <type>whole</type>
    <staff>1</staff>
    <lyric default-y="-80" number="part5verse1" color="#000000">
     <syllabic>begin</syllabic>
     <text>mo</text>
    </lyric>
   </note>
  </measure>
  <!--============== Part: P5, Measure: 2 ==============-->
  <measure number="2" width="467">
   <note color="#000000" default-x="23" default-y="-10">
    <pitch>
     <step>F</step>
     <alter>1</alter>
     <octave>2</octave>
    </pitch>
    <duration>512</duration>
    <instrument id="P5-I1" />
    <voice>1</voice>
    <type>half</type>
    <accidental>three-quarters-sharp</accidental>
    <stem>up</stem>
    <staff>1</staff>
    <lyric default-y="-80" number="part5verse1" color="#000000">
     <syllabic>end</syllabic>
     <text>ro,</text>
    </lyric>
   </note>
   <note color="#000000" default-x="165" default-y="-45">
    <pitch>
     <step>F</step>
     <alter>1</alter>
     <octave>3</octave>
    </pitch>
    <duration>512</duration>
    <instrument id="P5-I1" />
    <voice>1</voice>
    <type>half</type>
    <accidental>three-quarters-sharp</accidental>
    <stem>down</stem>
    <staff>1</staff>
    <lyric default-y="-80" number="part5verse1" color="#000000">
     <syllabic>single</syllabic>
     <text>Io</text>
    </lyric>
   </note>
   <note color="#000000" default-x="289">
    <pitch>
     <step>D</step>
     <alter>0</alter>
     <octave>3</octave>
    </pitch>
    <duration>1024</duration>
    <instrument id="P5-I1" />
    <voice>1</voice>
    <type>whole</type>
    <accidental>quarter-sharp</accidental>
    <staff>1</staff>
    <lyric default-y="-80" number="part5verse1" color="#000000">
     <syllabic>begin</syllabic>
     <text>mo</text>
    </lyric>
   </note>
  </measure>
  <!--============== Part: P5, Measure: 3 ==============-->
  <measure number="3" width="276">
   <attributes>
    <time color="#000000">
     <beats>2</beats>
     <beat-type>2</beat-type>
    </time>
   </attributes>
   <note color="#000000" default-x="33" default-y="10">
    <pitch>
     <step>C</step>
     <octave>3</octave>
    </pitch>
    <duration>512</duration>
    <instrument id="P5-I1" />
    <voice>1</voice>
    <type>half</type>
    <stem>up</stem>
    <staff>1</staff>
    <lyric default-y="-80" number="part5verse1" color="#000000">
     <syllabic>end</syllabic>
     <text>ro,</text>
    </lyric>
   </note>
   <note color="#000000" default-x="166" default-y="5">
    <pitch>
     <step>B</step>
     <alter>-1</alter>
     <octave>2</octave>
    </pitch>
    <duration>512</duration>
    <instrument id="P5-I1" />
    <voice>1</voice>
    <type>half</type>
    <accidental>flat</accidental>
    <stem>up</stem>
    <staff>1</staff>
    <lyric default-y="-80" number="part5verse1" color="#000000">
     <syllabic>single</syllabic>
     <text>Io</text>
    </lyric>
   </note>
  </measure>
  <!--============== Part: P5, Measure: 4 ==============-->
  <measure number="4" width="335">
   <attributes>
    <time color="#000000">
     <beats>4</beats>
     <beat-type>2</beat-type>
    </time>
   </attributes>
   <note color="#000000" default-x="33">
    <pitch>
     <step>A</step>
     <alter>-1</alter>
     <octave>2</octave>
    </pitch>
    <duration>1024</duration>
    <instrument id="P5-I1" />
    <voice>1</voice>
    <type>whole</type>
    <accidental>flat</accidental>
    <staff>1</staff>
    <lyric default-y="-80" number="part5verse1" color="#000000">
     <syllabic>begin</syllabic>
     <text>mo</text>
    </lyric>
   </note>
   <note color="#000000" default-x="156">
    <pitch>
     <step>G</step>
     <octave>2</octave>
    </pitch>
    <duration>1024</duration>
    <instrument id="P5-I1" />
    <voice>1</voice>
    <type>whole</type>
    <staff>1</staff>
    <lyric default-y="-80" number="part5verse1" color="#000000">
     <syllabic>end</syllabic>
     <text>ro,</text>
    </lyric>
   </note>
  </measure>
  <!--============== Part: P5, Measure: 5 ==============-->
  <measure number="5" width="180">
   <note>
    <rest />
    <duration>2048</duration>
    <instrument id="P5-I1" />
    <voice>1</voice>
    <type>whole</type>
    <staff>1</staff>
   </note>
  </measure>
  <!--============== Part: P5, Measure: 6 ==============-->
  <measure number="6" width="678">
   <print new-system="yes">
    <system-layout>
     <system-margins>
      <left-margin>22</left-margin>
      <right-margin>0</right-margin>
     </system-margins>
    </system-layout>
    <staff-layout number="1">
     <staff-distance>90</staff-distance>
    </staff-layout>
   </print>
   <attributes>
    <staff-details number="1" print-object="yes" />
   </attributes>
   <note color="#000000" default-x="57" default-y="10">
    <pitch>
     <step>C</step>
     <alter>0</alter>
     <octave>3</octave>
    </pitch>
    <duration>960</duration>
    <instrument id="P5-I1" />
    <voice>1</voice>
    <type>half</type>
    <dot />
    <dot />
    <dot />
    <accidental>quarter-sharp</accidental>
    <stem>up</stem>
    <staff>1</staff>
    <lyric default-y="-80" number="part5verse1" color="#000000">
     <syllabic>single</syllabic>
     <text>tà</text>
    </lyric>
   </note>
   <note default-x="355">
    <rest />
    <duration>64</duration>
    <instrument id="P5-I1" />
    <voice>1</voice>
    <type>16th</type>
    <staff>1</staff>
   </note>
   <note color="#000000" default-x="393" default-y="-20">
    <pitch>
     <step>C</step>
     <alter>0</alter>
     <octave>3</octave>
    </pitch>
    <duration>224</duration>
    <instrument id="P5-I1" />
    <voice>1</voice>
    <type>eighth</type>
    <dot />
    <dot />
    <accidental>quarter-sharp</accidental>
    <stem>up</stem>
    <staff>1</staff>
    <lyric default-y="-80" number="part5verse1" color="#000000">
     <syllabic>single</syllabic>
     <text>del</text>
    </lyric>
   </note>
   <note default-x="461">
    <rest />
    <duration>32</duration>
    <instrument id="P5-I1" />
    <voice>1</voice>
    <type>32nd</type>
    <staff>1</staff>
   </note>
   <note color="#000000" default-x="493" default-y="10">
    <pitch>
     <step>C</step>
     <alter>0</alter>
     <octave>3</octave>
    </pitch>
    <duration>256</duration>
    <instrument id="P5-I1" />
    <voice>1</voice>
    <type>quarter</type>
    <accidental>quarter-sharp</accidental>
    <stem>up</stem>
    <staff>1</staff>
    <lyric default-y="-80" number="part5verse1" color="#000000">
     <syllabic>single</syllabic>
     <text>mio</text>
    </lyric>
   </note>
   <note color="#000000" default-x="562" default-y="5">
    <pitch>
     <step>B</step>
     <alter>0</alter>
     <octave>2</octave>
    </pitch>
    <duration>512</duration>
    <instrument id="P5-I1" />
    <voice>1</voice>
    <type>half</type>
    <accidental>quarter-sharp</accidental>
    <stem>up</stem>
    <staff>1</staff>
    <lyric default-y="-80" number="part5verse1" color="#000000">
     <syllabic>begin</syllabic>
     <text>mor</text>
    </lyric>
   </note>
  </measure>
  <!--============== Part: P5, Measure: 7 ==============-->
  <measure number="7" width="516">
   <note color="#000000" default-x="20">
    <pitch>
     <step>A</step>
     <alter>0</alter>
     <octave>2</octave>
    </pitch>
    <duration>1024</duration>
    <instrument id="P5-I1" />
    <voice>1</voice>
    <type>whole</type>
    <accidental>quarter-sharp</accidental>
    <staff>1</staff>
    <lyric default-y="-80" number="part5verse1" color="#000000">
     <syllabic>end</syllabic>
     <text>te</text>
    </lyric>
   </note>
   <note color="#000000" default-x="181" default-y="-40">
    <pitch>
     <step>G</step>
     <octave>3</octave>
    </pitch>
    <duration>480</duration>
    <instrument id="P5-I1" />
    <voice>1</voice>
    <type>quarter</type>
    <dot />
    <dot />
    <dot />
    <stem>down</stem>
    <staff>1</staff>
    <lyric default-y="-80" number="part5verse1" color="#000000">
     <syllabic>single</syllabic>
     <text>più</text>
    </lyric>
   </note>
   <note default-x="291">
    <rest />
    <duration>32</duration>
    <instrument id="P5-I1" />
    <voice>1</voice>
    <type>32nd</type>
    <staff>1</staff>
   </note>
   <note color="#000000" default-x="324" default-y="-20">
    <pitch>
     <step>G</step>
     <octave>3</octave>
    </pitch>
    <duration>224</duration>
    <instrument id="P5-I1" />
    <voice>1</voice>
    <type>eighth</type>
    <dot />
    <dot />
    <stem>down</stem>
    <staff>1</staff>
    <lyric default-y="-80" number="part5verse1" color="#000000">
     <syllabic>single</syllabic>
     <text>de</text>
    </lyric>
   </note>
   <note default-x="387">
    <rest />
    <duration>32</duration>
    <instrument id="P5-I1" />
    <voice>1</voice>
    <type>32nd</type>
    <staff>1</staff>
   </note>
   <note color="#000000" default-x="420" default-y="-40">
    <pitch>
     <step>G</step>
     <octave>3</octave>
    </pitch>
    <duration>256</duration>
    <instrument id="P5-I1" />
    <voice>1</voice>
    <type>quarter</type>
    <stem>down</stem>
    <staff>1</staff>
    <lyric default-y="-80" number="part5verse1" color="#000000">
     <syllabic>single</syllabic>
     <text>la</text>
    </lyric>
   </note>
  </measure>
  <!--============== Part: P5, Measure: 8 ==============-->
  <measure number="8" width="423">
   <note color="#000000" default-x="15" default-y="-45">
    <pitch>
     <step>F</step>
     <alter>0</alter>
     <octave>3</octave>
    </pitch>
    <duration>512</duration>
    <instrument id="P5-I1" />
    <voice>1</voice>
    <type>half</type>
    <accidental>quarter-sharp</accidental>
    <stem>down</stem>
    <staff>1</staff>
    <lyric default-y="-80" number="part5verse1" color="#000000">
     <syllabic>begin</syllabic>
     <text>mor</text>
    </lyric>
   </note>
   <note color="#000000" default-x="131" default-y="-50">
    <pitch>
     <step>E</step>
     <alter>-1</alter>
     <octave>3</octave>
    </pitch>
    <duration>512</duration>
    <instrument id="P5-I1" />
    <voice>1</voice>
    <type>half</type>
    <accidental>flat</accidental>
    <stem>down</stem>
    <staff>1</staff>
    <lyric default-y="-80" number="part5verse1" color="#000000">
     <syllabic>end</syllabic>
     <text>te</text>
    </lyric>
   </note>
   <note default-x="247">
    <rest />
    <duration>1024</duration>
    <instrument id="P5-I1" />
    <voice>1</voice>
    <type>whole</type>
    <staff>1</staff>
   </note>
   <barline>
    <bar-style>light-heavy</bar-style>
   </barline>
  </measure>
 </part>
</score-partwise>
